<svg width="42" height="46" viewBox="0 0 42 46" fill="none" xmlns="http://www.w3.org/2000/svg">
<path fill-rule="evenodd" clip-rule="evenodd" d="M0 3C0 1.34315 1.34315 0 3 0H38.4C40.0569 0 41.4 1.34315 41.4 3V5.06824H0V3ZM0 6.06824H41.4V43C41.4 44.6569 40.0569 46 38.4 46H3C1.34315 46 0 44.6569 0 43V6.06824ZM9.85762 4.02313C10.4927 4.02313 11.0076 3.50173 11.0076 2.85857C11.0076 2.2154 10.4927 1.69401 9.85762 1.69401C9.22249 1.69401 8.70762 2.2154 8.70762 2.85857C8.70762 3.50173 9.22249 4.02313 9.85762 4.02313ZM4.22529 4.02385C4.86042 4.02385 5.37529 3.50246 5.37529 2.85929C5.37529 2.21612 4.86042 1.69473 4.22529 1.69473C3.59017 1.69473 3.07529 2.21612 3.07529 2.85929C3.07529 3.50246 3.59017 4.02385 4.22529 4.02385ZM16.6431 2.85857C16.6431 3.50173 16.1282 4.02313 15.4931 4.02313C14.8579 4.02313 14.3431 3.50173 14.3431 2.85857C14.3431 2.2154 14.8579 1.69401 15.4931 1.69401C16.1282 1.69401 16.6431 2.2154 16.6431 2.85857ZM24.5296 10.925L32.995 23L20.3092 23L16.0642 23L10.3499 23L15.3296 16.1L18.156 20.0163L24.5296 10.925ZM17.9171 14.95C18.711 14.95 19.3546 14.3064 19.3546 13.5125C19.3546 12.7186 18.711 12.075 17.9171 12.075C17.1232 12.075 16.4796 12.7186 16.4796 13.5125C16.4796 14.3064 17.1232 14.95 17.9171 14.95ZM13.7249 24.875C13.4488 24.875 13.2249 25.0989 13.2249 25.375C13.2249 25.6511 13.4488 25.875 13.7249 25.875H29.9749C30.2511 25.875 30.4749 25.6511 30.4749 25.375C30.4749 25.0989 30.2511 24.875 29.9749 24.875H13.7249ZM18.9757 28.25C18.9757 27.9739 19.1996 27.75 19.4757 27.75H24.8007C25.0769 27.75 25.3007 27.9739 25.3007 28.25C25.3007 28.5261 25.0769 28.75 24.8007 28.75H19.4757C19.1996 28.75 18.9757 28.5261 18.9757 28.25ZM19.4754 33.5C19.1992 33.5 18.9754 33.7239 18.9754 34C18.9754 34.2761 19.1992 34.5 19.4754 34.5H24.8004C25.0765 34.5 25.3004 34.2761 25.3004 34C25.3004 33.7239 25.0765 33.5 24.8004 33.5H19.4754ZM18.9754 36.3C18.9754 36.0239 19.1992 35.8 19.4754 35.8H35.7254C36.0015 35.8 36.2254 36.0239 36.2254 36.3C36.2254 36.5761 36.0015 36.8 35.7254 36.8H19.4754C19.1992 36.8 18.9754 36.5761 18.9754 36.3ZM19.4754 38.1C19.1992 38.1 18.9754 38.3239 18.9754 38.6C18.9754 38.8761 19.1992 39.1 19.4754 39.1H35.7254C36.0015 39.1 36.2254 38.8761 36.2254 38.6C36.2254 38.3239 36.0015 38.1 35.7254 38.1H19.4754Z" fill="url(#paint0_linear)"/>
<circle cx="11.2129" cy="36.5125" r="4.3125" fill="white"/>
<defs>
<linearGradient id="paint0_linear" x1="22.0196" y1="-8.35203" x2="-9.34906" y2="20.6337" gradientUnits="userSpaceOnUse">
<stop stop-color="#9898AE" stop-opacity="0.943428"/>
<stop offset="1" stop-color="#232330"/>
</linearGradient>
</defs>
</svg>
