<svg width="60" height="43" viewBox="0 0 60 43" fill="none" xmlns="http://www.w3.org/2000/svg">
<path fill-rule="evenodd" clip-rule="evenodd" d="M36.4023 22.856C36.4023 21.1991 37.7455 19.856 39.4023 19.856H56.5675C58.2244 19.856 59.5675 21.1991 59.5675 22.856V28.9901C59.5675 30.6469 58.2244 31.9901 56.5675 31.9901H39.4023C37.7455 31.9901 36.4023 30.6469 36.4023 28.9901V22.856ZM39.6471 24.2716C39.6471 24.0783 39.8038 23.9216 39.9971 23.9216H56.0043C56.1976 23.9216 56.3543 24.0783 56.3543 24.2716C56.3543 24.4649 56.1976 24.6216 56.0043 24.6216H39.9971C39.8038 24.6216 39.6471 24.4649 39.6471 24.2716ZM39.9971 27.6007C39.8038 27.6007 39.6471 27.7574 39.6471 27.9507C39.6471 28.144 39.8038 28.3007 39.9971 28.3007H44.0094C44.2027 28.3007 44.3594 28.144 44.3594 27.9507C44.3594 27.7574 44.2027 27.6007 44.0094 27.6007H39.9971Z" fill="#4AD3F4"/>
<path fill-rule="evenodd" clip-rule="evenodd" d="M15.6143 6C15.6143 2.68629 18.3005 0 21.6143 0H37.3739C40.6876 0 43.3739 2.68629 43.3739 6V7.55901H15.6143V6ZM15.6143 8.55901H43.3739V17.6497H37.1962C35.5393 17.6497 34.1962 18.9928 34.1962 20.6497V31.1962C34.1962 32.8531 35.5393 34.1962 37.1962 34.1962H43.3739V36.7961C43.3739 40.1098 40.6876 42.7961 37.3739 42.7961H21.6143C18.3005 42.7961 15.6143 40.1098 15.6143 36.7961V8.55901ZM25.3683 3.62652C25.0922 3.62652 24.8683 3.85037 24.8683 4.12652C24.8683 4.40266 25.0922 4.62652 25.3683 4.62652H33.6215C33.8977 4.62652 34.1215 4.40266 34.1215 4.12652C34.1215 3.85037 33.8977 3.62652 33.6215 3.62652H25.3683ZM31.2296 38.7479C31.2296 39.7061 30.4528 40.4829 29.4946 40.4829C28.5364 40.4829 27.7596 39.7061 27.7596 38.7479C27.7596 37.7897 28.5364 37.0129 29.4946 37.0129C30.4528 37.0129 31.2296 37.7897 31.2296 38.7479Z" fill="url(#paint0_linear)"/>
<path fill-rule="evenodd" clip-rule="evenodd" d="M10.7232 8.6748C11.8277 8.6748 12.7232 9.57024 12.7232 10.6748V17.9381V22.2973C12.7232 23.0306 11.6154 22.037 10.8906 21.3084C10.4902 20.9059 9.95211 20.6626 9.38439 20.6626H2C0.895431 20.6626 0 19.7672 0 18.6626V10.6748C0 9.57024 0.89543 8.6748 2 8.6748H10.7232ZM2.46994 11.7884C2.27664 11.7884 2.11994 11.9451 2.11994 12.1384C2.11994 12.3317 2.27664 12.4884 2.46994 12.4884H10.2521C10.4453 12.4884 10.6021 12.3317 10.6021 12.1384C10.6021 11.9451 10.4453 11.7884 10.2521 11.7884H2.46994ZM2.46994 14.5136C2.27664 14.5136 2.11994 14.6703 2.11994 14.8636C2.11994 15.0569 2.27664 15.2136 2.46994 15.2136H10.2521C10.4453 15.2136 10.6021 15.0569 10.6021 14.8636C10.6021 14.6703 10.4453 14.5136 10.2521 14.5136H2.46994ZM2.11994 17.5882C2.11994 17.3949 2.27664 17.2382 2.46994 17.2382H6.01099C6.20429 17.2382 6.36099 17.3949 6.36099 17.5882C6.36099 17.7815 6.20429 17.9382 6.01099 17.9382H2.46994C2.27664 17.9382 2.11994 17.7815 2.11994 17.5882Z" fill="url(#paint1_linear)"/>
<defs>
<linearGradient id="paint0_linear" x1="15.6143" y1="38.5166" x2="44.7168" y2="15.6862" gradientUnits="userSpaceOnUse">
<stop stop-color="#717186" stop-opacity="0.19"/>
<stop offset="1" stop-color="#101017"/>
</linearGradient>
<linearGradient id="paint1_linear" x1="-0.413016" y1="21.1667" x2="9.21712" y2="10.1441" gradientUnits="userSpaceOnUse">
<stop stop-color="#717186" stop-opacity="0.19"/>
<stop offset="1" stop-color="#101017"/>
</linearGradient>
</defs>
</svg>
