<svg xmlns="http://www.w3.org/2000/svg" width="140" height="31.56" viewBox="0 0 140 31.56"><defs><style>.cls-1{fill:#676461;}</style></defs><title>emontana</title><g id="Layer_2" data-name="Layer 2"><g id="Layer_1-2" data-name="Layer 1"><path class="cls-1" d="M120.23,24H118L129.07,4.1l9.71,17a14.93,14.93,0,0,0,1.22-6,15.11,15.11,0,1,0-29,6l9.26-15.89,1.13,1.93-9.32,16a15.1,15.1,0,0,0,25.62,0l-8.61-15Zm-6.72,0,8.88-15.24,1.14,1.93L115.77,24Zm11.33,0h-2.25L127,16.53l1.13,1.93Zm5.49-1.74-1,1.74h-2.25l2.13-3.67Z"/><path class="cls-1" d="M26.85,10.73a2.54,2.54,0,0,0-2.29-2.62,2.42,2.42,0,0,0-2.18,2.65V26H20.3V10.73A2.54,2.54,0,0,0,18,8.11a2.42,2.42,0,0,0-2.19,2.65V26H13.65V7.44h2.18V8A2.9,2.9,0,0,1,18.55,6.8a3.61,3.61,0,0,1,3,1.68A3.84,3.84,0,0,1,25.07,6.8a3.82,3.82,0,0,1,3.86,3.76V26H26.85Z"/><path class="cls-1" d="M41.52,22.28c0,1.54-.78,3.93-4.3,3.93h-.07c-3,0-4.36-2-4.36-3.76V10.79c0-2.45,2-4,4.4-4a4,4,0,0,1,4.33,3.89ZM39.47,11c0-1-.64-2.76-2.25-2.76S35,10,35,11V21.71c0,1.81.94,2.95,2.18,2.95s2.32-1.11,2.32-2.95Z"/><path class="cls-1" d="M52.06,10.73a2.51,2.51,0,0,0-2.25-2.62,2.44,2.44,0,0,0-2.22,2.65V26H45.41V7.44h2.18V8A3.37,3.37,0,0,1,50.25,6.8a3.84,3.84,0,0,1,3.89,3.76V26H52.06Z"/><path class="cls-1" d="M62.31,6.58v25H60v-25H56V4.93H66.31V6.58Z"/><path class="cls-1" d="M68.51,18.55a3.5,3.5,0,0,1,3.79-3.49,2.93,2.93,0,0,1,2.76,1.21V11c0-1.05-.47-2.76-2.25-2.76A2.85,2.85,0,0,0,70.15,11v2.41H68.51V10.69A4,4,0,0,1,72.84,6.8c2.38,0,4.4,1.54,4.4,4V26H75.06v-.7a4.18,4.18,0,0,1-2.72.77,3.91,3.91,0,0,1-3.83-3.59Zm2.18,3.32c0,1.18.61,2.69,2.12,2.69,1.31,0,2.25-1,2.25-2.89L75,19c0-1-.4-2.75-2.15-2.75S70.69,18,70.69,19Z"/><path class="cls-1" d="M88,10.73a2.51,2.51,0,0,0-2.25-2.62,2.44,2.44,0,0,0-2.22,2.65V26H81.37V7.44h2.18V8A3.36,3.36,0,0,1,86.2,6.8a3.84,3.84,0,0,1,3.9,3.76V26H88Z"/><path class="cls-1" d="M94.26,18.55a3.5,3.5,0,0,1,3.79-3.49,2.91,2.91,0,0,1,2.76,1.21V11c0-1.05-.47-2.76-2.25-2.76A2.85,2.85,0,0,0,95.9,11v2.41H94.26V10.69A4,4,0,0,1,98.59,6.8c2.39,0,4.4,1.54,4.4,4V26h-2.18v-.7a4.18,4.18,0,0,1-2.72.77,3.91,3.91,0,0,1-3.83-3.59Zm2.18,3.32c0,1.18.61,2.69,2.12,2.69,1.31,0,2.25-1,2.25-2.89l0-2.65c0-1-.4-2.75-2.14-2.75S96.44,18,96.44,19Z"/><path class="cls-1" d="M0,21.39V11C0,8.26,2.18,6.58,4.77,6.58a4.42,4.42,0,0,1,4.66,4.23V18H3.19v2.88c0,1.65.91,2.66,1.78,2.66,1.48,0,2.35-.94,3.46-2.42l2.18,1.51c-.27.4-2.15,3.56-5.51,3.56A4.89,4.89,0,0,1,0,21.39Zm3.22-6H6.31V11.15c0-.78-.3-2.05-1.54-2.05s-1.55,1.31-1.55,2.05Z"/></g></g></svg>