<svg xmlns="http://www.w3.org/2000/svg" width="133.4" height="40.86" viewBox="0 0 133.4 40.86"><defs><style>.cls-1,.cls-2{fill:#676461;}.cls-2{fill-rule:evenodd;}</style></defs><title>gordic_old_1</title><g id="Layer_2" data-name="Layer 2"><g id="Layer_1-2" data-name="Layer 1"><path class="cls-1" d="M59.92,12.3l.4,4.83h-.4a6.74,6.74,0,0,0-1.55-2.72,4.84,4.84,0,0,0-3.5-1.32,5,5,0,0,0-4.45,2.31,8.31,8.31,0,0,0-1.28,4.65A9.21,9.21,0,0,0,50,24a6,6,0,0,0,2.22,2.65A5.29,5.29,0,0,0,55,27.5a5.94,5.94,0,0,0,1.63-.22,7,7,0,0,0,1.53-.63V22.23A4.27,4.27,0,0,0,58,20.72a1,1,0,0,0-.54-.54A3,3,0,0,0,56.19,20v-.42H62.1V20h-.29a1.29,1.29,0,0,0-1.22.59,4,4,0,0,0-.22,1.64v4.66A10.43,10.43,0,0,1,55,28.26a8.15,8.15,0,0,1-6.71-2.82,7.65,7.65,0,0,1-1.73-4.92,8.13,8.13,0,0,1,1-3.86,8.32,8.32,0,0,1,3.14-3.37,7.77,7.77,0,0,1,3.95-1,7.68,7.68,0,0,1,1.51.14,14.08,14.08,0,0,1,1.93.6,3.08,3.08,0,0,0,.85.25.45.45,0,0,0,.36-.2,1.61,1.61,0,0,0,.18-.77"/><path class="cls-1" d="M70.85,12.3A6.9,6.9,0,0,1,76,14.57a7.76,7.76,0,0,1,2.18,5.63A8,8,0,0,1,76,26,7.36,7.36,0,0,1,65.35,26a8.07,8.07,0,0,1-2.15-5.79,7.74,7.74,0,0,1,2.47-5.93,7.51,7.51,0,0,1,5.18-2m-.2.83a4,4,0,0,0-3.28,1.53,8.57,8.57,0,0,0-1.55,5.54A9.09,9.09,0,0,0,67.42,26a4,4,0,0,0,3.23,1.53,4.38,4.38,0,0,0,3.55-1.69c.94-1.12,1.39-2.87,1.39-5.29q0-3.91-1.55-5.84a4.13,4.13,0,0,0-3.39-1.53"/><path class="cls-1" d="M94.65,27.93H90.56L85.4,20.79c-.38,0-.7,0-.94,0h-.32a2.36,2.36,0,0,1-.36,0v4.44A3.26,3.26,0,0,0,84.1,27a1.58,1.58,0,0,0,1.28.49H86V28H79.45V27.5H80a1.54,1.54,0,0,0,1.4-.63,3.7,3.7,0,0,0,.22-1.66V15.36a3.28,3.28,0,0,0-.31-1.8A1.61,1.61,0,0,0,80,13.07h-.58v-.43H85a12.74,12.74,0,0,1,3.59.36,4.13,4.13,0,0,1,2,1.3,3.38,3.38,0,0,1,.81,2.27A3.56,3.56,0,0,1,90.45,19a5.08,5.08,0,0,1-2.85,1.46l3.14,4.38a7.36,7.36,0,0,0,1.87,2,4.5,4.5,0,0,0,2,.63M83.81,20.07h.65a5,5,0,0,0,3.3-.94,3,3,0,0,0,1.1-2.41,3.09,3.09,0,0,0-3.26-3.23,8.88,8.88,0,0,0-1.77.23v6.35Z"/><path class="cls-1" d="M94.85,27.93V27.5h.59a1.47,1.47,0,0,0,1.37-.63,3.76,3.76,0,0,0,.24-1.66V15.36a3.33,3.33,0,0,0-.31-1.8,1.6,1.6,0,0,0-1.3-.49h-.59v-.43h6.22a13.71,13.71,0,0,1,5.21.78A6.12,6.12,0,0,1,109.15,16a8,8,0,0,1,1.08,4.19,7.66,7.66,0,0,1-1.93,5.33c-1.46,1.59-3.66,2.38-6.62,2.38m-2.47-1.08a12,12,0,0,0,2.4.31,5.61,5.61,0,0,0,4.33-1.84,6.94,6.94,0,0,0,1.73-5,7,7,0,0,0-1.73-5,5.81,5.81,0,0,0-4.42-1.82,9.62,9.62,0,0,0-2.31.34Z"/><path class="cls-1" d="M118.2,27.5v.43h-6.53V27.5h.54a1.61,1.61,0,0,0,1.37-.56,3.43,3.43,0,0,0,.27-1.73V15.36a5.42,5.42,0,0,0-.14-1.53,1,1,0,0,0-.47-.5,2.25,2.25,0,0,0-1-.26h-.54v-.43h6.53v.43h-.56a1.57,1.57,0,0,0-1.37.56,3.31,3.31,0,0,0-.29,1.73v9.85a4.35,4.35,0,0,0,.16,1.53.92.92,0,0,0,.47.49,2.06,2.06,0,0,0,1,.27"/><path class="cls-1" d="M132.66,12.3l.36,5.19h-.36a6.44,6.44,0,0,0-2-3.35,4.92,4.92,0,0,0-3.1-1,5,5,0,0,0-2.74.76,5.2,5.2,0,0,0-1.93,2.47,11,11,0,0,0-.69,4.2,8.75,8.75,0,0,0,.67,3.59,5,5,0,0,0,2,2.34,5.8,5.8,0,0,0,3,.81,5.36,5.36,0,0,0,2.63-.63A8.43,8.43,0,0,0,133,24.11l.36.23a8,8,0,0,1-2.67,3,6.73,6.73,0,0,1-3.64.94,6.91,6.91,0,0,1-5.88-2.8,8.06,8.06,0,0,1-1.55-4.94,8.68,8.68,0,0,1,1-4.2,7.22,7.22,0,0,1,2.83-3,7.67,7.67,0,0,1,3.93-1.06,7.14,7.14,0,0,1,3.26.81,1.81,1.81,0,0,0,.67.25.73.73,0,0,0,.54-.23,1.79,1.79,0,0,0,.42-.85"/><path class="cls-2" d="M21.06,8.42A25.74,25.74,0,0,0,31.5,5.54a2.77,2.77,0,0,1,3.88,3.57A23.16,23.16,0,0,0,33,15.18a38.48,38.48,0,0,1-3.62-2.77A28.3,28.3,0,0,1,17.6,13.74s1-1.26,1.95-2.72c.59-.9,1.08-1.86,1.51-2.6"/><path class="cls-2" d="M8.4,19.8A25.86,25.86,0,0,0,5.52,9.36,2.77,2.77,0,0,1,9.09,5.48a23.56,23.56,0,0,0,6,2.38,24.41,24.41,0,0,1-2.72,3.63,28.3,28.3,0,0,1,1.32,11.75s-1.25-1-2.71-2c-.88-.56-1.84-1.05-2.58-1.48"/><path class="cls-2" d="M12.37,11.47A25.55,25.55,0,0,0,17.71,2,2.77,2.77,0,0,1,23,1.82a24.6,24.6,0,0,0,2.56,5.92,19.35,19.35,0,0,1-4.49.66,28.54,28.54,0,0,1-7.39,9.25s-.18-1.6-.54-3.3c-.2-1-.54-2-.76-2.88"/><path class="cls-2" d="M32.44,21.08a25.66,25.66,0,0,0,2.87,10.44,2.76,2.76,0,0,1-3.57,3.88A23,23,0,0,0,25.68,33a45.46,45.46,0,0,1,2.76-3.64A28.46,28.46,0,0,1,27.12,17.6s1.26,1,2.72,1.95c.87.61,1.84,1.1,2.6,1.53"/><path class="cls-2" d="M29.36,12.39a25.87,25.87,0,0,0,9.43,5.35A2.77,2.77,0,0,1,39,23a25.29,25.29,0,0,0-5.93,2.56,18.8,18.8,0,0,1-.65-4.49,28.43,28.43,0,0,1-9.25-7.39s1.59-.18,3.3-.53c1-.21,2-.54,2.87-.77"/><path class="cls-2" d="M19.78,32.46A25.86,25.86,0,0,0,9.34,35.34a2.77,2.77,0,0,1-3.89-3.57A23.18,23.18,0,0,0,7.86,25.7a38,38,0,0,1,3.63,2.79,28.47,28.47,0,0,1,11.75-1.33s-1,1.26-2,2.72c-.58.85-1.08,1.82-1.5,2.58"/><path class="cls-2" d="M28.47,29.39a25.56,25.56,0,0,0-5.35,9.43,2.76,2.76,0,0,1-5.27.2,25.29,25.29,0,0,0-2.56-5.93,18.73,18.73,0,0,1,4.49-.65,28.53,28.53,0,0,1,7.38-9.25s.18,1.59.54,3.3c.21,1,.54,2.07.77,2.9"/><path class="cls-2" d="M11.47,28.49A25.55,25.55,0,0,0,2,23.15a2.77,2.77,0,0,1-.22-5.28,25,25,0,0,0,5.92-2.56A19.35,19.35,0,0,1,8.4,19.8a28.54,28.54,0,0,1,9.25,7.39s-1.6.18-3.3.54c-1,.2-2,.53-2.88.76"/><path class="cls-1" d="M21,20.54v.18a1.25,1.25,0,0,1,.52.07.4.4,0,0,1,.22.22,1.71,1.71,0,0,1,.07.63v1.42c-.16.06-.31.13-.47.18a1.72,1.72,0,0,0-.18,0,2.93,2.93,0,0,0-.29,0H20.5a2.19,2.19,0,0,1-.81-.25,1.26,1.26,0,0,1-.29-.2,1.8,1.8,0,0,1-.54-.74,2.49,2.49,0,0,1-.18-.45,3.69,3.69,0,0,1-.2-1v-.51a3.76,3.76,0,0,1,.15-.9,2.4,2.4,0,0,1,.45-.92l.2-.23a1.93,1.93,0,0,1,1.17-.51,2.26,2.26,0,0,1,.52,0,2.37,2.37,0,0,1,.92.33,4.19,4.19,0,0,1,.45.39,2.85,2.85,0,0,1,.54,1H23l0-2.06h-.18a.72.72,0,0,1-.16.34l0,0a.21.21,0,0,1-.13.07H22.4a.75.75,0,0,1-.22-.07c-.09,0-.18-.07-.27-.09l-.61-.2a.15.15,0,0,1-.09,0,3.62,3.62,0,0,0-.69-.06,3.48,3.48,0,0,0-2.18.74,3.63,3.63,0,0,0-1,1.3,2.94,2.94,0,0,0-.29,1.3,2.63,2.63,0,0,0,.29,1.26,3.44,3.44,0,0,0,.63.87,3.07,3.07,0,0,0,1,.72,4,4,0,0,0,1.62.29,5.91,5.91,0,0,0,1.28-.13,4.89,4.89,0,0,0,1.19-.43V21.66a1.59,1.59,0,0,1,.09-.69.54.54,0,0,1,.49-.25h.11v-.18"/></g></g></svg>