<svg xmlns="http://www.w3.org/2000/svg" width="140" height="42.86" viewBox="0 0 140 42.86"><defs><style>.cls-1{fill:#656666;}</style></defs><title>gordic_new</title><g id="Layer_2" data-name="Layer 2"><g id="Layer_1-2" data-name="Layer 1"><path class="cls-1" d="M24.28,22.31c0,1.34-1.17,2.18-2.65,2.18a2.88,2.88,0,0,1-3-3.06,2.92,2.92,0,0,1,3-3.07,3.59,3.59,0,0,1,2.47.88c.16.15.24.19.3.19.32,0,.46-.54.46-.88a1.31,1.31,0,0,0-.71-1.16,5.12,5.12,0,0,0-2.52-.62,4.66,4.66,0,1,0-.05,9.32A4.06,4.06,0,0,0,26,21.78v-.52a.48.48,0,0,0-.5-.5H21.53a.3.3,0,0,0-.32.31c0,.69.22,1.24,1.19,1.24Z"/><path class="cls-1" d="M18,2.29a3.68,3.68,0,0,1,6.82,0,27.34,27.34,0,0,0,1.85,3.8c-.56.11-1.51.28-2.53.38a4.3,4.3,0,0,0-3.49,2.47,27.51,27.51,0,0,1-6.2,8.59,27.28,27.28,0,0,0-1.3-4.79,3.09,3.09,0,0,1,.51-3.06A28.57,28.57,0,0,0,18,2.29"/><path class="cls-1" d="M5.48,10.3A3.69,3.69,0,0,1,10.3,5.48a27.32,27.32,0,0,0,4,1.38c-.32.48-.87,1.26-1.52,2.06a4.34,4.34,0,0,0-.72,4.22,27.49,27.49,0,0,1,1.69,10.45,27.3,27.3,0,0,0-4.3-2.46A3.12,3.12,0,0,1,7.64,18.6a28.36,28.36,0,0,0-2.16-8.3"/><path class="cls-1" d="M2.29,24.84a3.68,3.68,0,0,1,0-6.82,27.34,27.34,0,0,0,3.8-1.85c.11.56.28,1.5.38,2.53A4.31,4.31,0,0,0,9,22.19a27.71,27.71,0,0,1,8.58,6.19,28.17,28.17,0,0,0-4.79,1.31,3.09,3.09,0,0,1-3.06-.51,28.57,28.57,0,0,0-7.39-4.34"/><path class="cls-1" d="M10.3,37.37a3.68,3.68,0,0,1-4.82-4.82,27,27,0,0,0,1.38-4,23.42,23.42,0,0,1,2.06,1.52,4.31,4.31,0,0,0,4.22.71,27.73,27.73,0,0,1,10.45-1.68,27.3,27.3,0,0,0-2.46,4.3,3.14,3.14,0,0,1-2.53,1.81,28.7,28.7,0,0,0-8.3,2.15"/><path class="cls-1" d="M24.84,40.57a3.68,3.68,0,0,1-6.82,0,27.34,27.34,0,0,0-1.85-3.8,23.92,23.92,0,0,1,2.53-.38,4.32,4.32,0,0,0,3.49-2.48,27.71,27.71,0,0,1,6.19-8.58,28.06,28.06,0,0,0,1.31,4.78,3.11,3.11,0,0,1-.51,3.07,28.4,28.4,0,0,0-4.34,7.39"/><path class="cls-1" d="M37.37,32.55a3.69,3.69,0,0,1-4.82,4.83,27.57,27.57,0,0,0-4-1.39,25,25,0,0,1,1.52-2.06,4.28,4.28,0,0,0,.71-4.21,27.73,27.73,0,0,1-1.68-10.45,28.11,28.11,0,0,0,4.3,2.46,3.12,3.12,0,0,1,1.81,2.53,28.71,28.71,0,0,0,2.15,8.29"/><path class="cls-1" d="M40.57,18a3.68,3.68,0,0,1,0,6.82,27.34,27.34,0,0,0-3.8,1.85c-.11-.57-.28-1.51-.38-2.53a4.3,4.3,0,0,0-2.48-3.49,27.6,27.6,0,0,1-8.58-6.2,27.16,27.16,0,0,0,4.78-1.3,3.11,3.11,0,0,1,3.07.51A28.4,28.4,0,0,0,40.57,18"/><path class="cls-1" d="M32.55,5.48a3.68,3.68,0,0,1,4.82,4.82,28.71,28.71,0,0,0-1.38,4c-.47-.32-1.26-.87-2.05-1.52a4.34,4.34,0,0,0-4.22-.72,27.52,27.52,0,0,1-10.45,1.69,28.11,28.11,0,0,0,2.46-4.3,3.12,3.12,0,0,1,2.53-1.81,28.28,28.28,0,0,0,8.29-2.16"/><path class="cls-1" d="M66.55,21H61.71c-.34,0-.51.25-.48.59l0,.43c.08.82.59,1.22,1.73,1.22h1.35v2.15a.68.68,0,0,1-.55.67,8.61,8.61,0,0,1-2,.2c-3,0-4.55-1.75-4.55-4.79s1.67-4.71,4.79-4.71a7.33,7.33,0,0,1,3.12.57c.58.26.76.42,1,.42s.34-.12.34-.41a3.67,3.67,0,0,0-.5-2c-.59-.69-2.51-1-4-1-4.83,0-7.77,2.73-7.77,7.14s2.67,7.14,7.34,7.14c2,0,5.47-.47,5.47-2.55v-2.9c0-.83.16-1.2.16-1.57a.63.63,0,0,0-.71-.59"/><path class="cls-1" d="M139.69,25.11c-.34,0-.48.21-1.05.45a8.06,8.06,0,0,1-3.12.58c-3,0-4.55-1.67-4.55-4.71s1.66-4.71,4.43-4.71a7,7,0,0,1,2.93.57c.54.24.75.42,1,.42s.33-.11.33-.43a3.57,3.57,0,0,0-.51-2c-.59-.69-2.32-1-3.77-1-4.47,0-7.42,2.73-7.42,7.14s2.87,7.14,7.54,7.14c1.65,0,3.14-.33,3.84-1.08a3.25,3.25,0,0,0,.64-2c0-.27-.12-.4-.31-.4"/><path class="cls-1" d="M108.93,14.56c-1.24,0-3.22,0-3.59.1s-.75.18-.75.59a13.7,13.7,0,0,1,.2,1.57V27.71a.55.55,0,0,0,.55.59h4.18c5.34,0,8.2-2.65,8.2-6.87s-2.86-6.87-8.79-6.87m.59,11.38h-1.91V17.55a.57.57,0,0,1,.55-.59c.42,0,.93,0,1.36,0,3.23,0,5.22,1.47,5.22,4.51s-2,4.51-5.22,4.51"/><path class="cls-1" d="M77.81,14.29c-4.47,0-7.34,2.92-7.34,7.14s2.87,7.14,7.34,7.14,7.34-2.92,7.34-7.14-2.86-7.14-7.34-7.14m0,11.85c-2.65,0-4.35-1.67-4.35-4.71s1.7-4.71,4.35-4.71,4.36,1.67,4.36,4.71-1.71,4.71-4.36,4.71"/><path class="cls-1" d="M123.83,14.56H122.1c-.33,0-.75.18-.75.59a14,14,0,0,1,.2,1.57v11a.55.55,0,0,0,.55.59h1.73a.55.55,0,0,0,.55-.59V15.15a.55.55,0,0,0-.55-.59"/><path class="cls-1" d="M101,27.26c-1-.31-3.46-3.1-4.23-4.36A3.83,3.83,0,0,0,99.63,19c0-3.44-2.92-4.42-6.34-4.42-1.23,0-3.41,0-3.78.1s-.75.18-.75.59a13.7,13.7,0,0,1,.2,1.57V27.71a.55.55,0,0,0,.55.59h1.72a.55.55,0,0,0,.55-.59V23.39h2.14a15.53,15.53,0,0,0,3.85,4.7,3.53,3.53,0,0,0,2,.49c.45,0,1.78,0,1.78-.78,0-.37-.25-.45-.55-.53m-9.24-6V17.55a.57.57,0,0,1,.55-.59c.41,0,.92,0,1.35,0,1.73,0,3.09.45,3.09,2.06s-1.28,2.25-2.89,2.25Z"/></g></g></svg>