<svg xmlns="http://www.w3.org/2000/svg" width="85" height="42" viewBox="0 0 85 42">
  <g fill="#646565">
    <path d="M24.9713798,0.000160038176 C29.2269499,-0.0140326946 33.4327545,0.915937027 37.2859507,2.72326958 C40.8201306,4.36966512 43.8945473,6.86176687 46.2374865,9.97932519 C46.5773273,10.4422695 46.6281918,11.0570545 46.3690594,11.5696082 C46.109927,12.0821618 45.5848074,12.4054343 45.0107169,12.4058269 C44.5253078,12.405016 44.0690654,12.1738508 43.7811487,11.7828393 C41.7366869,9.07056648 39.0554989,6.90437004 35.9748778,5.4759648 C32.5315364,3.86288922 28.7734317,3.03414844 24.9713798,3.04946309 C20.6502837,3.01937097 16.393536,4.09744158 12.6071365,6.18085078 C9.08493982,8.15516149 6.35925137,10.8991069 4.72425807,14.111343 C2.48890362,18.4314107 2.48890362,23.5684011 4.72425807,27.8884688 C5.86521891,30.0893881 7.44533415,32.032711 9.36688346,33.5982552 C13.518731,37.0498865 19.058259,38.9503487 24.9650833,38.9503487 C28.7607956,38.9665029 32.5130213,38.141791 35.9524902,36.5353968 C39.0275819,35.1128315 41.7063033,32.9562093 43.7531642,30.2551217 C44.0412702,29.8660795 44.496345,29.6363437 44.9802837,29.6356341 C45.305537,29.6351004 45.6222867,29.7395535 45.8834829,29.9334781 C46.5601172,30.4341662 46.7039054,31.3879963 46.2053044,32.0659857 C43.8590736,35.1701052 40.7872366,37.6506172 37.2593654,39.2898419 C33.4131339,41.0884551 29.2169477,42.0137638 24.9713798,41.999488 C20.1281798,42.0285957 15.3582421,40.8160744 11.1162633,38.4775081 C7.07040699,36.2081533 3.92075366,33.0246166 2.008714,29.2726913 C-0.669571334,24.0831294 -0.669571334,17.9170324 2.008714,12.7274705 C3.33710392,10.1568398 5.17814172,7.8859972 7.41811417,6.05520328 C12.121256,2.15243094 18.3551489,0.000160038176 24.9713798,0.000160038176 Z M48.3209311,19.8137795 C48.7662479,19.8137795 49.1933256,19.9907755 49.5082121,20.3058303 C49.8230986,20.6208852 50,21.0481912 50,21.4937461 C50,22.421566 49.2482553,23.1737126 48.3209311,23.1737126 C47.393607,23.1737126 46.6418623,22.421566 46.6418623,21.4937461 C46.6418623,20.5659262 47.393607,19.8137795 48.3209311,19.8137795 Z"/>
    <path d="M36.8298643 18.2176908C36.8788245 18.1035913 36.907909 17.9830957 36.9161376 17.8606513 36.9196104 17.6385719 36.8208265 17.425487 36.644156 17.2741663 36.4674856 17.1228457 36.2294502 17.0474402 35.9889985 17.0666238 35.5931711 17.0510501 35.2445238 17.3043087 35.1690672 17.6622247L33.2720602 22.9998361 31.0941831 17.6220899C30.983718 17.2905769 30.6510534 17.0642478 30.2742518 17.0642478 29.8974501 17.0642478 29.5647855 17.2905769 29.4543204 17.6220899L27.2980756 22.999515 25.4017663 17.6619036C25.3265997 17.3039608 24.9779794 17.050614 24.5821839 17.0663027 24.3417322 17.0471191 24.1036969 17.1225246 23.9270264 17.2738452 23.750356 17.4251659 23.6515721 17.6382508 23.6550449 17.8603302 23.6631862 17.9827859 23.6922737 18.1032939 23.7413182 18.2173697L26.393011 25.4599407C26.490019 25.8059436 26.8481544 26.0340871 27.2342256 25.9958209 27.6261638 26.0143537 27.981615 25.7853037 28.0967235 25.4400338L30.2746007 19.9438096 32.4727144 25.4403549C32.5864549 25.7866807 32.9430209 26.0163562 33.3355612 25.996142 33.7196302 26.0245856 34.0721352 25.799636 34.1778226 25.4586564L36.8295153 18.2160854 36.8298643 18.2176908zM17.057308 24.3400184L13.9192389 21.4698964 17.057308 18.5997743C17.4531055 18.2356337 17.4531836 17.6451731 17.0574824 17.2809438 16.6617812 16.9167145 16.0201447 16.9166426 15.6243472 17.2807833L11.8062585 20.7943469C11.4080842 21.1701844 11.4080842 21.7696083 11.8062585 22.1454458L15.6243472 25.6586884C16.0200484 26.022829 16.6616068 26.022829 17.057308 25.6586884 17.4530092 25.2945477 17.4530092 24.704159 17.057308 24.3400184M11.0268004 24.9963031L11.0268004 17.9325729C11.0268004 17.4175271 10.5730857 17 10.0134002 17 9.45371473 17 9 17.4175271 9 17.9325729L9 24.9963031C9 25.5113489 9.45371474 25.928876 10.0134002 25.928876 10.5730857 25.928876 11.0268004 25.5113489 11.0268004 24.9963031M19.6057243 17.9993573L19.6057243 25.0630875C19.6057243 25.5782219 20.0595171 25.9958209 20.6192989 25.9958209 21.1790807 25.9958209 21.6328736 25.5782219 21.6328736 25.0630875L21.6328736 17.9993573C21.6328736 17.4842228 21.1790807 17.0666238 20.6192989 17.0666238 20.0595171 17.0666238 19.6057243 17.4842228 19.6057243 17.9993573M38.9728507 17.9993573L38.9728507 25.0630875C38.9728507 25.5782219 39.4266435 25.9958209 39.9864253 25.9958209 40.5462072 25.9958209 41 25.5782219 41 25.0630875L41 17.9993573C41 17.4842228 40.5462072 17.0666238 39.9864253 17.0666238 39.4266435 17.0666238 38.9728507 17.4842228 38.9728507 17.9993573M38.9728507 17.9993573L38.9728507 25.0630875C38.9728507 25.5782219 39.4266435 25.9958209 39.9864253 25.9958209 40.5462072 25.9958209 41 25.5782219 41 25.0630875L41 17.9993573C41 17.4842228 40.5462072 17.0666238 39.9864253 17.0666238 39.4266435 17.0666238 38.9728507 17.4842228 38.9728507 17.9993573M38.9728507 17.9993573L38.9728507 25.0630875C38.9728507 25.5782219 39.4266435 25.9958209 39.9864253 25.9958209 40.5462072 25.9958209 41 25.5782219 41 25.0630875L41 17.9993573C41 17.4842228 40.5462072 17.0666238 39.9864253 17.0666238 39.4266435 17.0666238 38.9728507 17.4842228 38.9728507 17.9993573M38.9728507 17.9993573L38.9728507 25.0630875C38.9728507 25.5782219 39.4266435 25.9958209 39.9864253 25.9958209 40.5462072 25.9958209 41 25.5782219 41 25.0630875L41 17.9993573C41 17.4842228 40.5462072 17.0666238 39.9864253 17.0666238 39.4266435 17.0666238 38.9728507 17.4842228 38.9728507 17.9993573M59.721075 17.0013362C60.8725206 16.9737252 61.9888702 17.3749765 62.8266074 18.1175625 63.0056481 18.269723 63.1096111 18.484744 63.1137841 18.7115148 63.1208178 18.9284951 63.0330899 19.1387398 62.870969 19.2934344 62.7088481 19.448129 62.4864371 19.5338165 62.2553753 19.5306021 62.0383598 19.5264137 61.8281348 19.4587637 61.6539689 19.3370707 61.1199232 18.8951923 60.4323947 18.651866 59.7207282 18.6528689L59.72 18.652 59.5381598 18.6576526C58.0316483 18.737099 56.976683 19.7990727 56.8977603 21.3159506L56.8930082 21.5001258C56.8930082 23.1767459 58.0562822 24.3477084 59.721075 24.3477084 60.4264103 24.3476171 61.1079006 24.107837 61.6397488 23.6726293 61.8174806 23.546135 62.0328304 23.4749436 62.2557222 23.4689978 62.486846 23.4657798 62.7093127 23.5515115 62.8714445 23.706278 63.0335763 23.8610444 63.1212613 24.071375 63.114131 24.2884109 63.1088205 24.5172557 63.002847 24.7338134 62.8214049 24.8865988 61.9847494 25.6271992 60.8702627 26.0269306 59.721075 25.9985896 56.9422583 25.9985896 55 24.1486383 55 21.4998 55 18.8509616 56.9412178 17.0013362 59.721075 17.0013362zM69.1004486 17.0019878C70.373843 16.979929 71.6014397 17.448068 72.4981455 18.2976857 73.3948514 19.1473033 73.8826402 20.3044709 73.8482297 21.5004516 73.8482297 23.9636516 71.7225757 25.9604697 69.1004486 25.9604697 66.4783215 25.9604697 64.3526675 23.9636516 64.3526675 21.5004516 64.3182569 20.3044709 64.8060458 19.1473033 65.7027516 18.2976857 66.5994574 17.448068 67.8270541 16.979929 69.1004486 17.0019878zM84.0988448 17.0524884C84.3415549 17.0390637 84.5787901 17.1237863 84.7507093 17.2852855 84.9226285 17.4467846 85.0128175 17.6696411 84.9985266 17.8976405L84.9985266 17.8976405 84.9985266 25.1159693C84.9985266 25.5789551 84.5989863 25.9542793 84.1061283 25.9542793 83.6132703 25.9542793 83.2137299 25.5789551 83.2137299 25.1159693L83.2137299 25.1159693 83.2137299 21.2684746 81.1247617 25.4795736C80.988459 25.7683453 80.6816569 25.9526592 80.3454306 25.9477631 80.0080519 25.9621988 79.6971223 25.7767651 79.5674868 25.4838092L79.5674868 25.4838092 77.4497315 21.267823 77.4497315 25.1032627C77.4497315 25.5662485 77.0501912 25.9415727 76.5573332 25.9415727 76.0644752 25.9415727 75.6648803 25.5662485 75.6648803 25.1032627L75.6648803 25.1032627 75.6648803 17.8842823C75.6623071 17.6629293 75.7547524 17.449922 75.9213818 17.2933921 76.0880111 17.1368621 76.3147618 17.0500199 76.5503966 17.0524884 76.9094262 17.0502802 77.2350966 17.2498732 77.3775905 17.5594493L77.3775905 17.5594493 80.3187245 23.2920828 80.3443901 23.3429092 83.2785875 17.5711785C83.4192466 17.2614969 83.740483 17.0583629 84.0988448 17.0524884zM69.1004486 18.6088845C67.6791317 18.6088845 66.2397795 19.6019545 66.2397795 21.5004516 66.2397795 22.9372753 67.2223541 24.3923444 69.1004486 24.3923444 70.522806 24.3923444 71.9625049 23.3989486 71.9625049 21.5004516 71.9625049 20.0636278 70.9792367 18.6088845 69.1004486 18.6088845z"/>
  </g>
</svg>
