<svg xmlns="http://www.w3.org/2000/svg" width="140" height="26.53" viewBox="0 0 140 26.53"><defs><style>.cls-1{fill:#656666;}</style></defs><title>ntsup</title><g id="Layer_2" data-name="Layer 2"><g id="Layer_1-2" data-name="Layer 1"><polygon class="cls-1" points="49.63 25.29 48.38 22.43 47.81 22.43 46.92 26.51 47.54 26.5 48.17 23.64 49.42 26.5 49.99 26.5 50.88 22.42 50.26 22.42 49.63 25.29"/><path class="cls-1" d="M53.27,22.38h0a1.86,1.86,0,0,0-1.17.44,2.5,2.5,0,0,0-.75,1.64c-.17.78-.28,1.23,0,1.63a1.17,1.17,0,0,0,1,.44,1.81,1.81,0,0,0,1.17-.44,2.46,2.46,0,0,0,.75-1.64c.17-.78.28-1.23,0-1.64a1.21,1.21,0,0,0-1-.43m.39,2.07c-.18.82-.27,1.05-.51,1.27a1.09,1.09,0,0,1-.67.25.65.65,0,0,1-.55-.25c-.15-.22-.14-.44,0-1.26s.27-1.05.51-1.27a1.09,1.09,0,0,1,.67-.25.65.65,0,0,1,.55.25c.15.22.14.45,0,1.26"/><polygon class="cls-1" points="58.03 22.41 55.17 22.41 55.05 22.97 56.17 22.96 55.4 26.48 56.02 26.48 56.79 22.96 57.91 22.96 58.03 22.41"/><polygon class="cls-1" points="61.21 22.96 61.34 22.4 58.73 22.41 57.84 26.48 60.45 26.48 60.57 25.92 58.58 25.92 58.85 24.7 60.54 24.7 60.66 24.15 58.97 24.15 59.23 22.96 61.21 22.96"/><path class="cls-1" d="M63.77,22.39H62.18l-.89,4.07h1.65a1.43,1.43,0,0,0,1.48-1.15.76.76,0,0,0-.4-.95,1.2,1.2,0,0,0,.73-.86c.15-.69-.22-1.12-1-1.12m0,2.9a.78.78,0,0,1-.8.62H62l.28-1.25h1c.43,0,.61.26.53.62m.32-1.76a.75.75,0,0,1-.79.59h-.91L62.68,23h.92c.39,0,.61.2.53.58"/><path class="cls-1" d="M67.3,22.35h0a1.8,1.8,0,0,0-1.16.44,2.51,2.51,0,0,0-.76,1.64c-.16.78-.27,1.23,0,1.64a1.2,1.2,0,0,0,1,.43,1.83,1.83,0,0,0,1.17-.44,2.55,2.55,0,0,0,.75-1.64c.17-.78.28-1.24,0-1.64a1.17,1.17,0,0,0-1-.43m.39,2.07c-.17.82-.26,1-.51,1.27a1.06,1.06,0,0,1-.66.25h0a.67.67,0,0,1-.55-.25c-.16-.22-.15-.45,0-1.26s.27-1.05.52-1.27a1.06,1.06,0,0,1,.66-.25.65.65,0,0,1,.55.25c.15.21.14.44,0,1.26"/><path class="cls-1" d="M71,22.34a1.8,1.8,0,0,0-1.16.44,2.49,2.49,0,0,0-.76,1.64c-.17.78-.27,1.24,0,1.64a1.17,1.17,0,0,0,1,.43,1.85,1.85,0,0,0,1.17-.44A2.5,2.5,0,0,0,72,24.41c.17-.78.28-1.23,0-1.63a1.19,1.19,0,0,0-1-.44m.39,2.07c-.17.82-.26,1.05-.51,1.27a1,1,0,0,1-.66.25h0a.66.66,0,0,1-.55-.25c-.15-.22-.14-.44,0-1.26s.27-1.05.52-1.27a1,1,0,0,1,.66-.25.67.67,0,0,1,.55.25c.15.22.14.44,0,1.26"/><polygon class="cls-1" points="75.66 22.37 73.54 24.42 73.99 22.37 73.38 22.37 72.48 26.45 73.1 26.45 73.36 25.26 74.23 24.43 74.93 26.44 75.66 26.44 74.74 23.97 76.41 22.37 75.66 22.37"/><path class="cls-1" d="M79.53,22.86a1,1,0,0,1,.81.31l.48-.38a1.35,1.35,0,0,0-1.16-.47A1.56,1.56,0,0,0,78,23.52a.9.9,0,0,0,.12.78,1.18,1.18,0,0,0,.71.33l.46.06c.23,0,.33.08.41.18a.44.44,0,0,1,.07.42.89.89,0,0,1-1,.62,1.06,1.06,0,0,1-1-.38l-.51.4a1.51,1.51,0,0,0,1.33.54,1.64,1.64,0,0,0,1.72-1.2.88.88,0,0,0-.15-.84,1.08,1.08,0,0,0-.69-.3l-.45-.06a.78.78,0,0,1-.42-.19.45.45,0,0,1-.07-.38.86.86,0,0,1,.89-.64"/><path class="cls-1" d="M83.55,25a1,1,0,0,1-1,.88c-.51,0-.77-.33-.65-.87l.58-2.68h-.61l-.59,2.71a1.08,1.08,0,0,0,1.15,1.4,1.81,1.81,0,0,0,1.77-1.41l.59-2.7h-.62Z"/><path class="cls-1" d="M87.3,22.34H85.75l-.89,4.07h.62l.35-1.61h.93a1.57,1.57,0,0,0,1.57-1.23,1,1,0,0,0-1-1.24m.41,1.24a.83.83,0,0,1-.86.67H86l.3-1.35h.89c.43,0,.67.25.57.68"/><path class="cls-1" d="M90.9,22.33H89.35l-.89,4.07h.62l.35-1.6h.93a1.59,1.59,0,0,0,1.57-1.24,1,1,0,0,0-1-1.24m.42,1.24a.84.84,0,0,1-.87.67h-.9l.3-1.36h.89c.43,0,.67.25.58.68"/><path class="cls-1" d="M94.28,22.29h0a1.86,1.86,0,0,0-1.17.44,2.46,2.46,0,0,0-.75,1.64c-.17.78-.28,1.23,0,1.63a1.17,1.17,0,0,0,1,.44A1.81,1.81,0,0,0,94.54,26a2.46,2.46,0,0,0,.75-1.64c.17-.78.28-1.24,0-1.64a1.21,1.21,0,0,0-1-.43m.39,2.07c-.18.82-.27,1.05-.52,1.27a1,1,0,0,1-.66.25.65.65,0,0,1-.55-.25c-.15-.22-.14-.44,0-1.26s.27-1.05.52-1.27a1,1,0,0,1,.65-.25.65.65,0,0,1,.56.25c.15.21.14.44,0,1.26"/><path class="cls-1" d="M98.23,22.32H96.65l-.89,4.08h.62l.38-1.72h.77L98,26.39h.72l-.54-1.8a1.44,1.44,0,0,0,1-1.09.92.92,0,0,0-1-1.18m.39,1.19a.81.81,0,0,1-.83.64h-.92l.28-1.27h.91c.42,0,.64.24.56.64"/><polygon class="cls-1" points="99.92 22.87 101.04 22.87 100.27 26.39 100.89 26.39 101.66 22.86 102.78 22.86 102.9 22.31 100.04 22.31 99.92 22.87"/><path class="cls-1" d="M107.09,24.31a1.71,1.71,0,0,1-.4.82l-.63-1,.34-.21a1.11,1.11,0,0,0,.59-.72.7.7,0,0,0-.76-.9h0a1.18,1.18,0,0,0-1.19.9,1.12,1.12,0,0,0,.23.88,1.91,1.91,0,0,0-1.06,1.15c-.16.74.21,1.21,1,1.21a2,2,0,0,0,1.23-.44l.24.4h.75l-.5-.81a2.45,2.45,0,0,0,.68-1.26Zm-1.47-1.13a.51.51,0,0,1,.49-.41.31.31,0,0,1,.32.41.7.7,0,0,1-.39.42l-.22.14a.78.78,0,0,1-.2-.56m-.25,2.7a.54.54,0,0,1-.58-.69c.08-.38.37-.57.71-.78l.72,1.15a1.33,1.33,0,0,1-.85.32"/><path class="cls-1" d="M48.8,20.54h4.28a.68.68,0,0,0,.64-.52L56.09,8.78c.06-.29.2-.3.3,0,0,0,1.36,3.56,2.08,5.6s2,5.68,2,5.68a.81.81,0,0,0,.71.5h5.75a.69.69,0,0,0,.64-.52l3-14.17a.69.69,0,0,1,.64-.53H76a.41.41,0,0,1,.43.52L73.43,20a.41.41,0,0,0,.42.52H78.3A.7.7,0,0,0,79,20L82,5.85a.69.69,0,0,1,.64-.53h5.52a.67.67,0,0,0,.65-.52L89.57,1a.42.42,0,0,0-.42-.52H66.77a.69.69,0,0,0-.64.52l-2.34,10.9c-.06.28-.18.29-.27,0,0,0-1.1-3.54-1.78-5.53S59.81,1,59.81,1a.84.84,0,0,0-.72-.5h-6a.69.69,0,0,0-.64.53l-4,19a.41.41,0,0,0,.42.52"/><path class="cls-1" d="M104.27.63l-.7-.17c-.44-.1-.9-.18-1.37-.25s-.94-.11-1.42-.15S99.87,0,99.44,0h0A16.17,16.17,0,0,0,96,.32a8.93,8.93,0,0,0-2.73,1,6.31,6.31,0,0,0-2,1.81,7.18,7.18,0,0,0-1.15,2.74,5.53,5.53,0,0,0-.07,2.34A2.81,2.81,0,0,0,91,9.79a4.93,4.93,0,0,0,2,1,15.18,15.18,0,0,0,3,.46,9,9,0,0,1,2.37.44,3.43,3.43,0,0,1,1.38.85,2.13,2.13,0,0,1,.56,1.18,4.51,4.51,0,0,1-.05,1.41A4.77,4.77,0,0,1,99.38,17a4.4,4.4,0,0,1-1.48,1.21,6.83,6.83,0,0,1-2,.63,17.18,17.18,0,0,1-2.46.17c-.4,0-.83,0-1.28-.06s-.91-.08-1.35-.14a11.7,11.7,0,0,1-1.28-.23L89,18.47a.65.65,0,0,0-.75.29l-.48.9a.42.42,0,0,0,.26.62s.27.08.73.18.93.2,1.42.27,1,.11,1.48.15,1,.06,1.41.06a17.26,17.26,0,0,0,3.41-.32,9.09,9.09,0,0,0,2.78-1,6.62,6.62,0,0,0,2-1.81,7,7,0,0,0,1.17-2.72c.38-1.86.12-3.24-.77-4.16S99.1,9.45,96.72,9.26a12.44,12.44,0,0,1-2.38-.37,4.06,4.06,0,0,1-1.43-.69,1.85,1.85,0,0,1-.62-1,3.49,3.49,0,0,1,.06-1.35,5.23,5.23,0,0,1,.82-1.91A4.26,4.26,0,0,1,94.6,2.67a6.42,6.42,0,0,1,2-.63A16.67,16.67,0,0,1,99,1.87c.4,0,.83,0,1.3.06s.93.09,1.38.16a9.58,9.58,0,0,1,1.23.24l.37.1a.59.59,0,0,0,.74-.26l.48-.92a.42.42,0,0,0-.26-.62"/><path class="cls-1" d="M123.4.49h-1a.68.68,0,0,0-.65.52l-2.56,12.07c-.07.29-.18.76-.26,1a14.21,14.21,0,0,1-.83,2.29,4.9,4.9,0,0,1-1.49,1.68,5.16,5.16,0,0,1-2,.82,14.08,14.08,0,0,1-2.66.22,14.7,14.7,0,0,1-2.56-.2,3.26,3.26,0,0,1-1.71-.81,2.91,2.91,0,0,1-.78-1.68,11.82,11.82,0,0,1,.14-2.31c0-.29.13-.76.19-1.05L109.76,1a.41.41,0,0,0-.42-.52h-1a.68.68,0,0,0-.64.52l-2.57,12c-.06.29-.15.76-.19,1a16.08,16.08,0,0,0-.18,3.2,3.81,3.81,0,0,0,1.09,2.24,4.52,4.52,0,0,0,2.3,1.11,17.67,17.67,0,0,0,3.4.29,19.72,19.72,0,0,0,3.52-.29,6.92,6.92,0,0,0,2.76-1.11,6.69,6.69,0,0,0,2-2.24A18.63,18.63,0,0,0,121,14.09c.08-.28.19-.75.26-1l2.56-12a.41.41,0,0,0-.42-.52"/><path class="cls-1" d="M139.54,2.44A3.29,3.29,0,0,0,138.1,1,7.64,7.64,0,0,0,136,.54c-.29,0-.77-.05-1.07-.06H127a.68.68,0,0,0-.65.52l-4,19a.41.41,0,0,0,.42.52h1a.68.68,0,0,0,.64-.51l1.33-6.33a.69.69,0,0,1,.64-.52h6c.29,0,.77,0,1.06-.05a8.87,8.87,0,0,0,2.19-.48,6.66,6.66,0,0,0,2-1.4,7,7,0,0,0,1.37-2A11.36,11.36,0,0,0,139.76,7,12.06,12.06,0,0,0,140,4.52a4.72,4.72,0,0,0-.46-2.08M137.45,7A6.79,6.79,0,0,1,136,10.11a5,5,0,0,1-2.34,1.12,6.14,6.14,0,0,1-1.06.1h-5.78a.41.41,0,0,1-.42-.52l1.71-8.08a.69.69,0,0,1,.64-.52h5.93a6.26,6.26,0,0,1,1,.12s1.31.3,1.68,1.14A5.72,5.72,0,0,1,137.45,7"/><path class="cls-1" d="M47.7.46H18a1.09,1.09,0,0,0-1.09,1.09L13,19.44a1.1,1.1,0,0,0,1.1,1.1h29a1.71,1.71,0,0,0,1.87-1.1L48.79,1.55A1.09,1.09,0,0,0,47.7.46M43.46,18.94l0,0H14.69L18.36,2H47.11Z"/><path class="cls-1" d="M43.54,22H.55a.55.55,0,0,0-.55.54v2.94a1.09,1.09,0,0,0,1.09,1.09H42.43c.61,0,.93-.41,1.1-1.1l.56-2.93a.55.55,0,0,0-.55-.55"/><path class="cls-1" d="M25.69,10.4l3.1-5.76a.46.46,0,0,1,.87.22v9.32l3.06-5.84a.45.45,0,0,1,.44-.24.45.45,0,0,1,.41.31l.66,2H44.51l1.65-7.62H19L17.33,10.4Z"/><path class="cls-1" d="M33.46,11,33,9.73l-3.42,6.55a.46.46,0,0,1-.41.24h-.11a.45.45,0,0,1-.35-.45V6.69l-2.37,4.39a.46.46,0,0,1-.4.25H17.13l-1.48,6.89H42.82l1.49-6.89H33.9a.46.46,0,0,1-.44-.32"/><path class="cls-1" d="M110.75,26.47a1.57,1.57,0,0,1-1.35-.53l.5-.41a1.14,1.14,0,0,0,1,.39c.54,0,.9-.23,1-.63a.46.46,0,0,0-.08-.42.63.63,0,0,0-.41-.17l-.48-.06a1.16,1.16,0,0,1-.71-.33.82.82,0,0,1-.14-.77,1.55,1.55,0,0,1,1.62-1.19,1.44,1.44,0,0,1,1.19.45l-.48.39a1.05,1.05,0,0,0-.83-.31.85.85,0,0,0-.89.64.4.4,0,0,0,.08.37.75.75,0,0,0,.42.19l.46.07a1.1,1.1,0,0,1,.71.29.89.89,0,0,1,.16.83,1.63,1.63,0,0,1-1.73,1.2"/><polygon class="cls-1" points="113.09 26.43 113.92 22.37 116.56 22.36 116.45 22.92 114.44 22.92 114.19 24.11 115.91 24.1 115.8 24.65 114.08 24.66 113.83 25.87 115.84 25.86 115.72 26.42 113.09 26.43"/><path class="cls-1" d="M118.86,26.41l-.51-1.71h-.79l-.35,1.71h-.63l.84-4.05H119a.93.93,0,0,1,1,1.18,1.37,1.37,0,0,1-1,1.07l.58,1.79Zm0-3.5h-.93l-.26,1.27h.93a.8.8,0,0,0,.83-.64c.08-.4-.15-.63-.57-.63"/><polygon class="cls-1" points="121.72 26.4 121.23 26.4 120.71 22.35 121.36 22.35 121.7 25.29 123.26 22.34 123.92 22.34 121.72 26.4"/><polygon class="cls-1" points="123.66 26.39 124.49 22.34 125.12 22.33 124.28 26.39 123.66 26.39"/><path class="cls-1" d="M126.69,26.41a1.24,1.24,0,0,1-1-.43c-.32-.39-.22-.84-.06-1.62a2.4,2.4,0,0,1,.74-1.63,1.83,1.83,0,0,1,1.17-.44,1.1,1.1,0,0,1,1.21,1.24h-.63a.65.65,0,0,0-.69-.7,1,1,0,0,0-.66.25c-.25.22-.35.45-.51,1.26s-.18,1,0,1.27a.7.7,0,0,0,.56.24,1.09,1.09,0,0,0,1-.7h.63a1.83,1.83,0,0,1-1.73,1.25"/><polygon class="cls-1" points="129 26.37 129.84 22.32 132.48 22.31 132.37 22.86 130.35 22.87 130.11 24.05 131.82 24.05 131.71 24.59 130 24.6 129.74 25.82 131.76 25.81 131.64 26.36 129 26.37"/><path class="cls-1" d="M133.59,26.39a1.55,1.55,0,0,1-1.35-.53l.5-.41a1.13,1.13,0,0,0,1,.39c.53,0,.89-.24,1-.63a.49.49,0,0,0-.08-.42c-.08-.09-.18-.13-.42-.17l-.47-.06a1.16,1.16,0,0,1-.72-.33.85.85,0,0,1-.14-.77,1.56,1.56,0,0,1,1.63-1.19,1.43,1.43,0,0,1,1.19.45l-.48.39a1,1,0,0,0-.84-.31.84.84,0,0,0-.88.64.4.4,0,0,0,.08.37A.75.75,0,0,0,134,24l.46.07a1.12,1.12,0,0,1,.71.29.92.92,0,0,1,.16.83,1.65,1.65,0,0,1-1.73,1.2"/></g></g></svg>