<svg width="146" height="50" viewBox="0 0 146 50" fill="none" xmlns="http://www.w3.org/2000/svg">
<path d="M137.625 22.5201C138.407 23.3471 138.81 24.4645 138.81 25.8948V33.3817H135.881V26.7441C135.881 25.9172 135.635 25.2467 135.166 24.755C134.696 24.2634 134.048 24.0175 133.221 24.0175C132.259 24.0399 131.477 24.3527 130.918 25.0009C130.359 25.649 130.069 26.4535 130.069 27.4592V33.3593H127.162V16.7318H130.069V23.6599C130.896 22.0955 132.327 21.291 134.383 21.2686C135.747 21.291 136.82 21.6932 137.625 22.5201ZM120.724 23.8611C119.762 23.8611 118.98 24.1963 118.376 24.8444C117.773 25.4925 117.482 26.3641 117.482 27.3922C117.482 28.4649 117.795 29.3365 118.376 29.9846C118.98 30.6328 119.762 30.968 120.724 30.968C122.154 30.968 123.228 30.4987 123.943 29.56L125.754 31.0574C125.217 31.8396 124.479 32.443 123.63 32.8453C122.758 33.2699 121.73 33.4711 120.567 33.4711C119.382 33.4711 118.354 33.2252 117.437 32.7112C116.543 32.2195 115.805 31.482 115.313 30.5657C114.799 29.6494 114.553 28.599 114.553 27.3922C114.553 26.1853 114.822 25.1126 115.313 24.1963C115.805 23.28 116.543 22.5425 117.46 22.0508C118.376 21.5368 119.427 21.291 120.612 21.291C121.707 21.291 122.669 21.4698 123.518 21.872C124.368 22.2743 125.061 22.7883 125.597 23.5035L123.854 25.1797C123.049 24.308 121.998 23.8611 120.724 23.8611ZM112.698 21.4027V33.3817H109.791V31.482C109.389 32.1301 108.808 32.6442 108.137 33.0017C107.466 33.3593 106.684 33.5381 105.812 33.5381C104.672 33.5381 103.688 33.2699 102.839 32.7559C101.989 32.2419 101.318 31.5267 100.849 30.5881C100.379 29.6494 100.134 28.5767 100.134 27.3698C100.134 26.1853 100.379 25.1126 100.849 24.1963C101.318 23.28 101.989 22.5648 102.839 22.0508C103.688 21.5368 104.672 21.291 105.79 21.291C106.662 21.291 107.444 21.4698 108.137 21.8273C108.808 22.1849 109.389 22.6989 109.814 23.347V21.4251L112.698 21.4027ZM108.741 30.1858C109.344 29.6047 109.702 28.8225 109.791 27.8392V26.9899C109.702 26.0289 109.344 25.2467 108.741 24.6433C108.137 24.0622 107.355 23.7493 106.416 23.7493C105.41 23.7493 104.605 24.0846 103.979 24.7774C103.353 25.4478 103.04 26.3418 103.018 27.4145C103.04 28.4873 103.353 29.3589 103.979 30.0517C104.605 30.7222 105.41 31.0797 106.416 31.0797C107.355 31.0797 108.137 30.7892 108.741 30.1858ZM97.1825 22.9448C98.1438 24.0399 98.6133 25.5596 98.6133 27.5486C98.6133 27.9286 98.6133 28.2191 98.591 28.4202H89.7826C89.9838 29.2695 90.3639 29.94 90.9675 30.4316C91.5711 30.9233 92.3089 31.1691 93.1808 31.1691C93.7844 31.1691 94.388 31.0574 94.9245 30.8116C95.4835 30.5881 95.9753 30.2528 96.3777 29.8059L97.9426 31.4373C97.339 32.1078 96.6013 32.6218 95.7741 32.957C94.9245 33.3146 93.9632 33.4934 92.9348 33.4934C91.7052 33.4934 90.6321 33.2476 89.7155 32.7336C88.7989 32.2419 88.0612 31.5044 87.5693 30.5881C87.0551 29.6718 86.8092 28.6214 86.8092 27.4145C86.8092 26.23 87.0551 25.1573 87.5693 24.241C88.0612 23.3247 88.8213 22.5872 89.7155 22.0732C90.6321 21.5591 91.6829 21.291 92.8678 21.291C94.7904 21.3133 96.2212 21.8497 97.1825 22.9448ZM95.9753 26.4535C95.9529 25.5819 95.6623 24.8668 95.1034 24.3527C94.5445 23.8387 93.8291 23.5705 92.9125 23.5705C92.0629 23.5705 91.3475 23.8387 90.7886 24.3527C90.2074 24.8668 89.872 25.5819 89.7379 26.4759H95.9753V26.4535ZM83.6793 21.9167C84.3724 21.5144 85.1772 21.291 86.0938 21.2686V24.0846C84.8642 24.0175 83.8806 24.2857 83.1428 24.9562C82.405 25.6043 82.0473 26.4759 82.0473 27.5933V33.3817H79.141V21.4027H82.0473V23.7046C82.4274 22.9224 82.9863 22.3414 83.6793 21.9167ZM76.9501 32.6442C75.9888 33.2252 75.0051 33.5158 73.9544 33.5158C72.926 33.5158 72.0765 33.2029 71.4281 32.5995C70.7798 31.996 70.4445 31.1021 70.4445 29.9176V18.5868L73.3284 18.2515V21.8944H76.7489V24.0175H73.3284V29.4259C73.3284 29.9846 73.4402 30.3646 73.6414 30.6104C73.8426 30.8339 74.1556 30.968 74.5804 30.968C75.0275 30.968 75.5864 30.8116 76.2794 30.4763L76.9501 32.6442ZM65.079 21.4027H67.9629V28.1297C67.9629 32.0407 65.2354 33.5158 62.4633 33.5158C59.6911 33.5158 56.9636 32.0631 56.9636 28.1297V21.4027H59.8476V28.2191C59.8476 29.7165 60.9654 30.9456 62.4633 30.9456C63.9611 30.9456 65.079 29.7165 65.079 28.2191V21.4027ZM51.0169 18.5421C52.2688 19.2125 53.2972 20.2182 54.0126 21.4251C54.7504 22.6542 55.1081 24.0175 55.1081 25.4925C55.1081 26.9899 54.7504 28.3532 54.0126 29.5824C53.2972 30.8116 52.2465 31.8172 51.0169 32.5101C49.7426 33.2252 48.3341 33.5828 46.7915 33.5828C45.249 33.5828 43.8405 33.2252 42.5662 32.5101C41.3143 31.8172 40.2859 30.8116 39.5705 29.5824C38.8327 28.3532 38.475 26.9899 38.475 25.4925C38.475 23.9952 38.8327 22.6319 39.5705 21.4251C40.2859 20.2182 41.3366 19.2125 42.5662 18.5421C43.8405 17.8492 45.249 17.4917 46.7915 17.4917C48.3341 17.4917 49.7426 17.8492 51.0169 18.5421ZM44.1535 20.8887C43.3487 21.358 42.678 22.0061 42.2085 22.8107C41.739 23.6152 41.4931 24.5315 41.4931 25.5149C41.4931 26.4982 41.739 27.4145 42.2085 28.2191C42.678 29.0237 43.3487 29.6941 44.1535 30.1634C44.9583 30.6328 45.8526 30.8786 46.7915 30.8786C47.7081 30.8786 48.6248 30.6328 49.4072 30.1634C50.212 29.6941 50.8604 29.0237 51.3075 28.2191C51.777 27.3922 52.0229 26.4535 52.0005 25.5149C52.0005 24.5315 51.7546 23.6376 51.3075 22.8107C50.8604 22.0061 50.1897 21.3357 49.4072 20.8887C48.6248 20.4194 47.7081 20.1735 46.7915 20.1735C45.8973 20.1735 44.9807 20.4194 44.1535 20.8887ZM16.5882 10.787C20.7018 10.787 26.8945 12.0609 29.8008 14.9439C30.5385 15.6814 31.4999 17.1117 31.4999 19.2349C31.4999 22.9895 28.4818 28.7331 25.173 32.0854C23.4516 33.8063 20.7241 36.0635 17.0354 36.0635C13.436 36.0635 10.6862 33.6052 9.90373 32.823C6.86328 29.7612 4.67236 25.135 4.67236 20.7993C4.67236 18.0727 5.45483 15.6814 7.42218 13.6924C9.25539 11.8374 12.4076 10.787 16.5882 10.787ZM21.6855 25.7384C23.0716 24.3527 23.4516 22.6319 23.4516 21.6932C23.4516 21.0004 23.2728 19.9947 22.4232 19.1455C21.1042 17.8269 19.6734 17.4693 18.0861 17.4693C16.0964 17.4693 14.755 18.0951 13.8608 18.989C13.1677 19.6818 12.5641 20.7769 12.5641 22.319C12.5641 23.8611 13.3689 25.3361 14.2632 26.2301C15.0904 27.057 16.3647 27.6604 17.6837 27.6604C19.0027 27.6604 20.2994 27.124 21.6855 25.7384Z" fill="#646565"/>
</svg>
