<svg width="115" height="28" viewBox="0 0 115 28" fill="none" xmlns="http://www.w3.org/2000/svg">
<path d="M15.4124 25.7008L13.7937 27.3454H0.931121V24.0563H13.7937L15.4124 25.7008ZM11.0672 9.20206C9.12905 8.6113 7.07825 8.8641 5.72154 8.35849C4.67388 7.96465 4.061 7.1477 4.061 6.0806C4.061 4.68885 5.09032 3.57385 6.76134 3.27048L8.36949 1.63657L6.76134 0C3.15739 0.383197 0.737305 2.90591 0.737305 6.24825C0.737305 8.78161 2.12283 10.7721 4.66602 11.5385C6.46799 12.0707 8.62617 11.8765 10.0405 12.4113C11.0096 12.7759 11.756 13.537 11.756 14.7744C11.756 16.2965 10.6874 17.4807 8.87499 17.7868L7.27207 19.4153L8.87499 21.0466C12.6466 20.6501 15.064 18.0449 15.064 14.5775C15.064 11.8765 13.5685 9.96313 11.0777 9.20206H11.0672ZM72.7821 6.54097V20.7778H69.448V6.54097L71.1085 4.85383L72.7821 6.54097ZM78.67 0.223532H62.6932V3.5153H78.67L80.2912 1.86809L78.67 0.223532ZM95.3487 16.3178H92.1848C92.1848 19.1306 94.5132 21.0732 97.6692 21.0732C100.938 21.0732 103.125 19.0188 103.125 16.2832C103.125 14.2874 101.933 12.6535 99.5236 12.2916C98.3607 12.1213 97.5592 12.1213 96.6425 11.9244C95.8935 11.7567 95.5058 11.3921 95.5058 10.7987C95.5058 9.95515 96.3099 9.30851 97.6012 9.30851C98.8924 9.30851 99.7593 9.89927 99.7593 10.8573H102.918C102.918 8.15625 100.676 6.26954 97.6012 6.26954C94.4713 6.26954 92.3393 8.26802 92.3393 10.9131C92.3393 12.8265 93.4184 14.4284 95.9118 14.8516C96.9359 15.0192 97.8788 15.0485 98.709 15.2454C99.4948 15.3864 99.9531 15.7776 99.9531 16.4269C99.9531 17.3557 99.0967 18.0023 97.6561 18.0023C96.2706 18.0023 95.3303 17.3849 95.3303 16.3152L95.3487 16.3178ZM79.419 12.3741H86.8417C86.4541 10.5113 85.0423 9.42027 83.1566 9.42027C81.1922 9.42027 79.8067 10.5193 79.419 12.3741ZM89.9323 15.107H79.4871C79.9298 16.8527 81.4253 18.0342 83.3923 18.0342C84.7923 18.0706 86.1036 17.3399 86.826 16.1209L89.4582 17.7814C88.1593 19.9107 85.8494 21.1838 83.3844 21.1291C79.1755 21.1291 76.1556 17.8932 76.1556 13.7579C76.1556 9.53736 79.0366 6.32808 83.1356 6.32808C87.2346 6.32808 90.058 9.52139 90.058 13.6993C90.0562 14.172 90.0097 14.6434 89.9192 15.107H89.9323ZM64.0289 6.59153C62.6172 6.59153 61.3155 7.12375 60.5141 8.18818V6.59153H57.4182V20.7725H60.5769V12.9968C60.5769 11.1686 61.8498 9.73428 63.7068 9.73428H65.6712V6.58088L64.0289 6.59153ZM50.4565 15.8229V14.5828L47.2455 14.8649C45.7211 15.0059 45.1502 15.6818 45.1502 16.6372C45.1502 17.5925 45.9359 18.3243 47.4209 18.3243C49.2543 18.3243 50.467 17.2838 50.467 15.8229H50.4565ZM53.5681 11.6157V20.7592H50.4644V19.7187C49.5791 20.5915 48.4162 21.0705 46.8107 21.0705C43.9296 21.0705 41.9915 19.269 41.9915 16.709C41.9915 13.9521 43.9558 12.6003 46.8107 12.3475L50.4644 12.0095V11.6157C50.4644 10.349 49.3565 9.39366 47.8898 9.39366C46.5802 9.39366 45.5928 10.1255 45.399 11.1659H42.3241C42.5179 8.35051 44.7887 6.26954 47.8898 6.26954C51.2685 6.26954 53.5681 8.52082 53.5681 11.6157ZM33.3221 6.26954C31.7358 6.23018 30.207 6.87391 29.1131 8.04183C27.1483 5.86655 23.8392 5.66753 21.6355 7.5921V6.57822H18.6444V20.7592H21.8005V12.1479C21.7699 11.1526 22.275 10.2193 23.1186 9.71251C23.9623 9.20568 25.0106 9.20568 25.8542 9.71251C26.6978 10.2193 27.2029 11.1526 27.1723 12.1479V20.7565H30.331V12.1479C30.331 10.6371 31.5365 9.41229 33.0235 9.41229C34.5105 9.41229 35.716 10.6371 35.716 12.1479V20.7565H38.859V11.5891C38.859 8.55009 36.5594 6.26688 33.3195 6.26688L33.3221 6.26954ZM113.505 17.7362H111.566C110.432 17.7362 109.712 16.9778 109.712 15.8255V9.61985H114.254V6.58088H109.704V3.73884H107.96L104.6 7.95933V9.61985H106.54V16.4056C106.54 19.0215 108.311 20.7645 110.885 20.7645H113.505L115 19.245L113.505 17.7362Z" fill="#646565"/>
<path d="M8.8457 0V3.24993C10.0103 3.6735 10.7532 4.56942 10.8084 5.76311L12.4022 7.39065L14.006 5.76311C14.006 2.76219 11.8977 0.569894 8.85825 0" fill="#646565"/>
<path d="M3.42362 14.2773L1.71181 12.5642L0 14.2773C0 17.6708 2.42483 20.1029 5.89744 20.6939V17.2596C4.40879 16.7938 3.42362 15.7262 3.42362 14.2637" fill="#646565"/>
</svg>
