<svg xmlns="http://www.w3.org/2000/svg" width="140" height="31.84" viewBox="0 0 140 31.84"><defs><style>.cls-1{fill:#646565;}</style></defs><title>solarwinds</title><g id="Layer_2" data-name="Layer 2"><g id="Layer_1-2" data-name="Layer 1"><path class="cls-1" d="M105.67,8.86a.75.75,0,0,1,.25-.22,42.5,42.5,0,0,1,3.82-2.35,39.83,39.83,0,0,1,4.88-2.22,38.53,38.53,0,0,1,4.51-1.38l1.78-.37L122.57,2c.32-.06.66,0,1-.1s.82,0,1.22-.12h.07l2.66-.1a.18.18,0,0,1,.12,0l-.87.81-.91.81a9.91,9.91,0,0,0-.88.85,1.14,1.14,0,0,0,.32,0,1.6,1.6,0,0,1,.44,0A10,10,0,0,0,127.43,4l1-.1,1.47-.21,1.5-.26,2.78-.65c.65-.19,1.29-.41,1.91-.66A9.34,9.34,0,0,0,138.35.88a4.45,4.45,0,0,0,.78-.72c.07-.07.1-.16.19-.16a.45.45,0,0,1,0,.28,14.6,14.6,0,0,1-1.91,4,14,14,0,0,1-2.16,2.4,20.63,20.63,0,0,1-4.94,3.13l-3.2,1.38L123,12.64l-2.81.75-2.54.69h0c-.34.09-.31.09-.59-.13a20.22,20.22,0,0,0-3.26-2.31,21.24,21.24,0,0,0-3.85-1.75,16.19,16.19,0,0,0-2.53-.66L105.74,9c.06,0,0-.07-.06-.13Z"/><path class="cls-1" d="M64.45,30.26l.19-1.06.53-2.72.5-2.38.79-3.82a.42.42,0,0,1,.06-.19.23.23,0,0,1,.16-.16H68.8c.16,0,.19.07.16.19l-.22.88-1.4,5.38-1,3.88L66,31.42a.31.31,0,0,1-.14.14H63.11c-.19,0-.19,0-.25-.22L61.2,25.55,60.13,21.7,60,21.28s0,0-.06,0,0,0-.07,0l-.09.25-.44,1.66L57.14,31a1.12,1.12,0,0,1-.22.53c-.19,0-.37,0-.53,0H54.18c-.28,0-.26,0-.32-.25l-.56-2.13-1.07-4.1-1.31-4.9c0-.06,0-.09,0-.16s0-.06.06-.09.09,0,.16,0h2c.22,0,.22,0,.28.25L54,23l.9,4.53.28,1.63.19,1.1c.1,0,.1-.07.14-.16l.53-2.44.38-1.35,1.69-5.63.19-.6a.19.19,0,0,1,.18-.15h2.82c.22,0,.22,0,.28.25l.53,1.78L62.76,24,64,28.34l.38,1.72c0,.14,0,.19.06.22Zm34.3-.06c-.15,0-.18.14-.25.19a4.54,4.54,0,0,1-2.6,1.31,5.13,5.13,0,0,1-2.66-.21,4.17,4.17,0,0,1-2.19-1.82,6.15,6.15,0,0,1-.69-1.94,12.11,12.11,0,0,1-.14-2.82,6.88,6.88,0,0,1,.69-2.56,4.75,4.75,0,0,1,2.63-2.29,6.29,6.29,0,0,1,2.51-.31,4,4,0,0,1,2,.75l.31.22h0a.4.4,0,0,0,0-.28V16.59c0-.56,0-.47.5-.47h1.56c.16,0,.16,0,.16.16V31.05c0,.56.06.47-.47.47h-1.1c-.15,0-.18,0-.18-.19l-.19-1.13Zm-.25-4.49V23a.51.51,0,0,0-.22-.47A4.36,4.36,0,0,0,95,21.55a2.63,2.63,0,0,0-2.2,1.72,5.73,5.73,0,0,0-.37,1.91,11.15,11.15,0,0,0,.06,2,6.06,6.06,0,0,0,.44,1.5,2.3,2.3,0,0,0,1.19,1.13,3.3,3.3,0,0,0,2.19.1,6.69,6.69,0,0,0,2-1,.52.52,0,0,0,.22-.44Z"/><path class="cls-1" d="M140,12.46a.33.33,0,0,1-.25.12,21,21,0,0,0-3.35.94l-3,1.22-1.72.79L127,17.84l-3.6,1.91-1,.53a2.55,2.55,0,0,1-.37.19c-.07-.15-.16-.28-.22-.4s-.16-.26-.22-.38a22.62,22.62,0,0,0-1.94-2.94l-1.06-1.25a.43.43,0,0,1-.13-.16c0-.06,0-.09,0-.12a.49.49,0,0,1,.19-.07l3.38-.94,3.32-.71,1.62-.26L129,13l1-.09a10.86,10.86,0,0,0,1.13-.13h.06l1.44-.09,1.79-.13h5.41a.35.35,0,0,1,.22-.06Z"/><path class="cls-1" d="M36.79,30.14a.34.34,0,0,0-.19.16,4.93,4.93,0,0,1-2.8,1.4,4.79,4.79,0,0,1-2.32-.14,2.86,2.86,0,0,1-2.06-2.15,4.53,4.53,0,0,1-.13-1.1,4.18,4.18,0,0,1,.5-2.1A3.13,3.13,0,0,1,31,25.09a5.71,5.71,0,0,1,1.88-.66,7,7,0,0,1,1.44-.1h2.28c.14,0,.16,0,.16-.15v-1a2,2,0,0,0-.14-.66,1.22,1.22,0,0,0-.78-.81,2.36,2.36,0,0,0-.69-.19,8,8,0,0,0-1.69,0,12.14,12.14,0,0,0-2.32.5l-.81.26a.46.46,0,0,1,0-.28V20.72c0-.19,0-.22.22-.28A11.06,11.06,0,0,1,32.28,20a11,11,0,0,1,3-.21,5.14,5.14,0,0,1,1.62.34,3.1,3.1,0,0,1,1.85,2.16A5.14,5.14,0,0,1,39,23.73V31.4c0,.14,0,.15-.16.15H37.23c-.16,0-.19,0-.22-.19l-.09-.78a4.5,4.5,0,0,1-.16-.44Zm0-3V25.88c0-.09,0-.15-.14-.15a22.17,22.17,0,0,0-2.94.09,3.9,3.9,0,0,0-.82.19,2,2,0,0,0-1.28,1.38,3.35,3.35,0,0,0,0,1.41A1.55,1.55,0,0,0,32.77,30a3.17,3.17,0,0,0,1.56,0,2.86,2.86,0,0,0,.72-.29,6.39,6.39,0,0,0,1.51-1,.43.43,0,0,0,.15-.34l0-1.19ZM15.91,19.75a5.72,5.72,0,0,1,2,.28,4.28,4.28,0,0,1,2.85,2.75,8.74,8.74,0,0,1,.42,1.82,16.48,16.48,0,0,1,.06,1.72A7.83,7.83,0,0,1,20.72,29a4.19,4.19,0,0,1-2.6,2.44,5.71,5.71,0,0,1-1.88.32h-.78a6.4,6.4,0,0,1-2.22-.47,4.22,4.22,0,0,1-1.91-1.63,6.62,6.62,0,0,1-.79-2.19,8.71,8.71,0,0,1-.12-2,7.61,7.61,0,0,1,.53-2.8,4.35,4.35,0,0,1,2.56-2.53,6.61,6.61,0,0,1,2.41-.34Zm3.13,6c0-.35,0-.69-.06-1.07A5.74,5.74,0,0,0,18.56,23a2.51,2.51,0,0,0-2.28-1.59,4.92,4.92,0,0,0-.94,0,2.49,2.49,0,0,0-1.63.72,3.27,3.27,0,0,0-.88,1.59,8.64,8.64,0,0,0-.25,2c0,.28.06.56.06.84A4.48,4.48,0,0,0,13,28.11a3.2,3.2,0,0,0,1,1.44,2.73,2.73,0,0,0,1.25.5,3.64,3.64,0,0,0,1.82-.19,2.78,2.78,0,0,0,1.56-1.69A7,7,0,0,0,19,25.73Zm58.27,0V20.11c0-.09,0-.14.16-.14h1.38c.16,0,.22,0,.25.19l.25.93.1.35a.09.09,0,0,0,.14,0,.46.46,0,0,0,.18-.16,7.73,7.73,0,0,1,2-1.19,5.66,5.66,0,0,1,2.38-.4,5.21,5.21,0,0,1,1.56.31,2.75,2.75,0,0,1,1.54,1.47,4.36,4.36,0,0,1,.34,1.5c.06.79,0,1.57,0,2.35v6a.13.13,0,0,1-.14.14H85.58c-.16,0-.19,0-.19-.19V23.75l0-.66a1.55,1.55,0,0,0-.22-.75,1.17,1.17,0,0,0-.62-.56,3.37,3.37,0,0,0-.82-.19,5.54,5.54,0,0,0-2.63.53,11.74,11.74,0,0,0-1.34.75.5.5,0,0,0-.25.44v8c0,.16,0,.19-.19.19H77.41c-.14,0-.15,0-.15-.15V31l.06-5.29Zm34.21-3.57L111,22a8,8,0,0,0-2.1-.47,7.15,7.15,0,0,0-1.6,0,2.23,2.23,0,0,0-.62.19,1.13,1.13,0,0,0-.72.81,1.75,1.75,0,0,0,0,.79,1.32,1.32,0,0,0,.87,1c.42.18.85.28,1.29.42a11.14,11.14,0,0,1,1.78.56,3.47,3.47,0,0,1,1.66,1.41,3.06,3.06,0,0,1,.34,1.06,3.87,3.87,0,0,1-.15,1.82,2.76,2.76,0,0,1-1.57,1.75,6.86,6.86,0,0,1-1.47.42,9.52,9.52,0,0,1-1.85.06,10.43,10.43,0,0,1-2.75-.56s-.06,0-.09-.06-.14-.07-.14-.16V29.38c0-.09.06-.14.15-.09l1.51.42a8.55,8.55,0,0,0,2.31.28,3.63,3.63,0,0,0,1-.19,1.29,1.29,0,0,0,.94-1.22v-.31a1.22,1.22,0,0,0-.69-1.13,4.23,4.23,0,0,0-1-.37l-1.88-.56a4.71,4.71,0,0,1-1.28-.66,2.7,2.7,0,0,1-1-1.57,4,4,0,0,1,0-1.91,2.9,2.9,0,0,1,1.75-1.94,6.81,6.81,0,0,1,2-.42h1.26a6.6,6.6,0,0,1,2.47.57.23.23,0,0,1,.19.21l0,1.73Zm-103.77,0c-.22-.06-.38-.14-.53-.19A8.71,8.71,0,0,0,5,21.5a3.66,3.66,0,0,0-.81,0,4.41,4.41,0,0,0-1.28.22,1.22,1.22,0,0,0-.85,1.16,1.85,1.85,0,0,0,.07.62,1.28,1.28,0,0,0,.78.81,6.25,6.25,0,0,0,1,.35l1.44.42a5,5,0,0,1,1.54.75A2.77,2.77,0,0,1,8,28a4.58,4.58,0,0,1-.18,1.69,2.56,2.56,0,0,1-1.23,1.47,4.62,4.62,0,0,1-1.69.56A9.37,9.37,0,0,1,3,31.78a10.12,10.12,0,0,1-2.69-.54C0,31.1.05,31.15.05,30.82v-1.4c0-.14.07-.16.16-.14l1.53.42A7.57,7.57,0,0,0,4,30,3.75,3.75,0,0,0,5,29.76a1.31,1.31,0,0,0,.91-1.25,2.44,2.44,0,0,0,0-.66,1.19,1.19,0,0,0-.54-.65,2.84,2.84,0,0,0-1.15-.44l-1.69-.47A4.23,4.23,0,0,1,1,25.51a2.67,2.67,0,0,1-1-1.79A8.28,8.28,0,0,1,0,22.5a2.65,2.65,0,0,1,1.1-1.91,4.86,4.86,0,0,1,1.56-.69,9.69,9.69,0,0,1,2.69-.14,6.7,6.7,0,0,1,2.2.54.22.22,0,0,1,.18.21v1.68Z"/><path class="cls-1" d="M134.15,17.31c0,.09-.1.16-.16.22l-3.22,3.32-5.54,5.72-.94,1s-.06.07-.09,0,0-.06-.07-.09a19.48,19.48,0,0,0-1.15-5s0-.06,0-.09c-.1-.28-.1-.28.15-.37l3.76-1.63,3.56-1.53,3-1.32c.19-.06.34-.16.53-.22a.17.17,0,0,1,.19-.06Z"/><path class="cls-1" d="M26.27,23.85v7.54a.13.13,0,0,1-.14.14h-2a.13.13,0,0,1-.14-.14V16.53c0-.51-.06-.44.44-.44h1.59c.1,0,.14,0,.14.15v.32l.07,7.29Zm18.12-2.38.35-.5a2.87,2.87,0,0,1,1.41-1.1,2.23,2.23,0,0,1,.75-.15,3.94,3.94,0,0,1,1.44.15.58.58,0,0,0,.21.07c.1,0,.16.09.16.18v1.82a.59.59,0,0,1-.34-.06,5.13,5.13,0,0,0-1.22-.22,2.32,2.32,0,0,0-1.57.47,4.16,4.16,0,0,0-.72.62.93.93,0,0,0-.25.63v8c0,.09,0,.14-.16.14H42.51a.13.13,0,0,1-.14-.14V20.11c0-.16,0-.19.19-.19h1.38c.14,0,.15,0,.19.16l.25,1.41Zm27.32,4.26V20c0-.09,0-.14.16-.14h1.88c.14,0,.15,0,.15.16V31.41c0,.09,0,.14-.15.14H71.87c-.14,0-.16,0-.16-.16Z"/><path class="cls-1" d="M134.15,17.31s0-.06,0-.06S134.15,17.28,134.15,17.31Z"/></g></g></svg>