<svg width="24" height="24" viewBox="0 0 24 24" fill="none" xmlns="http://www.w3.org/2000/svg">
<g clip-path="url(#clip0_2955_192)">
<path d="M11.6064 18.083C12.9392 18.083 14.0195 17.0026 14.0195 15.6699C14.0195 14.3372 12.9392 13.2568 11.6064 13.2568C10.2737 13.2568 9.19336 14.3372 9.19336 15.6699C9.19336 17.0026 10.2737 18.083 11.6064 18.083Z" fill="#707076"/>
<path d="M18.5262 15.5628V3H15.2207V9.81548C14.2595 9.24017 13.1705 8.91254 12.0514 8.86199C10.9323 8.81144 9.81818 9.03956 8.80903 9.52586C7.79987 10.0122 6.92725 10.7414 6.26951 11.6482C5.61176 12.555 5.18947 13.6109 5.04053 14.7212C4.8916 15.8315 5.02068 16.9614 5.4162 18.0094C5.81171 19.0575 6.46128 19.991 7.3066 20.7261C8.15192 21.4611 9.16653 21.9748 10.2594 22.221C11.3522 22.4671 12.4891 22.4381 13.5679 22.1364C13.5891 22.1364 13.6078 22.1252 13.6277 22.1202V19.4504C13.5205 19.5357 13.4033 19.6077 13.2787 19.6648C12.7472 19.9027 12.1696 20.0198 11.5873 20.0075C11.0231 20.0214 10.4621 19.9177 9.94002 19.7031C9.41796 19.4885 8.94623 19.1677 8.55478 18.7611C8.1591 18.3561 7.84832 17.8761 7.6407 17.3494C7.43308 16.8226 7.3328 16.2597 7.34574 15.6936C7.34574 14.4647 7.7608 13.4214 8.58095 12.5913C9.4011 11.7612 10.4419 11.3448 11.6696 11.3448C12.2928 11.3448 13.5567 11.5106 14.3307 12.1201C15.0424 12.6823 15.8053 13.5024 15.7803 15.6575C15.7729 16.2957 15.7803 19.1575 15.7953 21.0657C15.9102 20.986 16.0185 20.8972 16.1194 20.8003C16.8498 20.1865 17.4417 19.4248 17.856 18.5653C18.2703 17.7059 18.4974 16.7683 18.5225 15.8145V15.6999C18.5225 15.6787 18.5225 15.6587 18.5225 15.6375C18.5225 15.6164 18.5262 15.584 18.5262 15.5628Z" fill="#707076"/>
</g>
<defs>
<clipPath id="clip0_2955_192">
<rect width="14" height="19" fill="white" transform="translate(5 3)"/>
</clipPath>
</defs>
</svg>
