<svg width="24" height="24" viewBox="0 0 24 24" fill="none" xmlns="http://www.w3.org/2000/svg">
<path opacity="0.05" d="M12.2758 15.7696C17.7169 15.7696 22.1278 15.1584 22.1278 14.4046C22.1278 13.6507 17.7169 13.0396 12.2758 13.0396C6.83472 13.0396 2.42383 13.6507 2.42383 14.4046C2.42383 15.1584 6.83472 15.7696 12.2758 15.7696Z" fill="black"/>
<path d="M11.4031 14.0991C10.5479 13.4561 9.60471 12.9419 8.60314 12.5725C7.84935 12.265 7.13054 11.8764 6.45914 11.4135C4.85914 10.2881 4.05914 8.89213 4.05914 7.22559C4.02701 6.22028 4.34554 5.2355 4.95914 4.44309C5.06585 4.30943 5.18074 4.18265 5.30314 4.06348L1.88314 4.87117C1.64553 4.92332 1.42045 5.02231 1.22079 5.16246C1.02114 5.3026 0.850852 5.48115 0.719679 5.68787C0.588505 5.89459 0.499029 6.12541 0.456381 6.36711C0.413732 6.60881 0.418748 6.85663 0.471142 7.09636L3.30314 19.45C3.41806 19.9273 3.71477 20.3396 4.12889 20.5974C4.54301 20.8552 5.04112 20.9378 5.51514 20.8271L6.91914 20.5L6.79914 20.4879C5.85517 20.1961 4.94573 19.8007 4.08714 19.3087L5.55114 16.0052C6.72566 16.9708 8.19652 17.4934 9.71114 17.4833C11.3111 17.4833 12.1111 16.9058 12.1111 15.7589C12.1213 15.4467 12.0631 15.136 11.9407 14.8492C11.8183 14.5623 11.6348 14.3061 11.4031 14.0991Z" fill="#707076"/>
<path d="M19.1389 15.7587L16.3069 3.40507C16.1965 2.92316 15.901 2.50527 15.4854 2.24325C15.0699 1.98122 14.5683 1.89652 14.0909 2.00776L12.0309 2.48833C12.2683 2.52603 12.5029 2.57045 12.7349 2.6216C13.6596 2.82884 14.5547 3.15314 15.3989 3.5868L14.1989 6.81757C13.3029 6.04218 12.0509 5.65449 10.4509 5.65449C9.01626 5.65449 8.29759 6.23064 8.29492 7.38295C8.31063 7.62679 8.38288 7.86348 8.50587 8.07393C8.62885 8.28438 8.79912 8.4627 9.00292 8.59449C9.95178 9.20203 10.9664 9.69795 12.0269 10.0726C12.9474 10.4138 13.8097 10.8974 14.5829 11.5062C14.8786 11.7445 15.1469 12.0154 15.3829 12.3139C16.0698 13.2196 16.4284 14.3357 16.3989 15.476C16.4319 16.58 16.0857 17.6615 15.4189 18.5372L17.7509 18.0001C17.9883 17.9458 18.2127 17.8446 18.4112 17.7024C18.6096 17.5601 18.7783 17.3796 18.9073 17.1713C19.0363 16.9629 19.1232 16.7308 19.163 16.4884C19.2027 16.2459 19.1946 15.9979 19.1389 15.7587Z" fill="#707076"/>
</svg>
