<svg width="807" height="188" viewBox="0 0 807 188" fill="none" xmlns="http://www.w3.org/2000/svg">
<g id="About" opacity="0.05">
<path fill-rule="evenodd" clip-rule="evenodd" d="M291.25 187.5C303.75 187.5 315.125 184.625 325.375 178.875C335.625 173.125 343.667 165.042 349.5 154.625C355.333 144.208 358.25 132.083 358.25 118.25C358.25 104.417 355.333 92.2917 349.5 81.875C343.667 71.4583 335.625 63.375 325.375 57.625C315.125 51.875 303.75 49 291.25 49C274.083 49 260.583 54.4167 250.75 65.25V0H211.75V185.5H249V170C258.667 181.667 272.75 187.5 291.25 187.5ZM57 148L41.5 185.5H0L78 10.5H118L196.25 185.5H153.75L138.25 148H57ZM97.75 50.25L70 117.25H125.5L97.75 50.25ZM259.875 145.375C266.292 152.125 274.5 155.5 284.5 155.5C294.5 155.5 302.708 152.125 309.125 145.375C315.542 138.625 318.75 129.583 318.75 118.25C318.75 106.917 315.542 97.875 309.125 91.125C302.708 84.375 294.5 81 284.5 81C274.5 81 266.292 84.375 259.875 91.125C253.458 97.875 250.25 106.917 250.25 118.25C250.25 129.583 253.458 138.625 259.875 145.375ZM448.25 187.5C462.417 187.5 475.083 184.542 486.25 178.625C497.417 172.708 506.167 164.5 512.5 154C518.833 143.5 522 131.583 522 118.25C522 104.917 518.833 93 512.5 82.5C506.167 72 497.417 63.7917 486.25 57.875C475.083 51.9583 462.417 49 448.25 49C434.083 49 421.375 51.9583 410.125 57.875C398.875 63.7917 390.083 72 383.75 82.5C377.417 93 374.25 104.917 374.25 118.25C374.25 131.583 377.417 143.5 383.75 154C390.083 164.5 398.875 172.708 410.125 178.625C421.375 184.542 434.083 187.5 448.25 187.5ZM423.5 145.375C430 152.125 438.25 155.5 448.25 155.5C458.25 155.5 466.458 152.125 472.875 145.375C479.292 138.625 482.5 129.583 482.5 118.25C482.5 106.917 479.292 97.875 472.875 91.125C466.458 84.375 458.25 81 448.25 81C438.25 81 430 84.375 423.5 91.125C417 97.875 413.75 106.917 413.75 118.25C413.75 129.583 417 138.625 423.5 145.375ZM604.75 187.5C613.083 187.5 620.833 185.958 628 182.875C635.167 179.792 641.333 175.333 646.5 169.5V185.5H683.5V51H644.5V117.5C644.5 129.5 641.667 138.542 636 144.625C630.333 150.708 622.833 153.75 613.5 153.75C595.333 153.75 586.25 142.917 586.25 121.25V51H547.25V127C547.25 147 552.417 162.083 562.75 172.25C573.083 182.417 587.083 187.5 604.75 187.5ZM792.375 185.375C786.792 186.792 780.917 187.5 774.75 187.5C758.75 187.5 746.375 183.417 737.625 175.25C728.875 167.083 724.5 155.083 724.5 139.25V84H703.75V54H724.5V21.25H763.5V54H797V84H763.5V138.75C763.5 144.417 764.958 148.792 767.875 151.875C770.792 154.958 774.917 156.5 780.25 156.5C786.417 156.5 791.667 154.833 796 151.5L806.5 179C802.667 181.833 797.958 183.958 792.375 185.375Z" fill="#0D0D19"/>
<path fill-rule="evenodd" clip-rule="evenodd" d="M291.25 187.5C303.75 187.5 315.125 184.625 325.375 178.875C335.625 173.125 343.667 165.042 349.5 154.625C355.333 144.208 358.25 132.083 358.25 118.25C358.25 104.417 355.333 92.2917 349.5 81.875C343.667 71.4583 335.625 63.375 325.375 57.625C315.125 51.875 303.75 49 291.25 49C274.083 49 260.583 54.4167 250.75 65.25V0H211.75V185.5H249V170C258.667 181.667 272.75 187.5 291.25 187.5ZM57 148L41.5 185.5H0L78 10.5H118L196.25 185.5H153.75L138.25 148H57ZM97.75 50.25L70 117.25H125.5L97.75 50.25ZM259.875 145.375C266.292 152.125 274.5 155.5 284.5 155.5C294.5 155.5 302.708 152.125 309.125 145.375C315.542 138.625 318.75 129.583 318.75 118.25C318.75 106.917 315.542 97.875 309.125 91.125C302.708 84.375 294.5 81 284.5 81C274.5 81 266.292 84.375 259.875 91.125C253.458 97.875 250.25 106.917 250.25 118.25C250.25 129.583 253.458 138.625 259.875 145.375ZM448.25 187.5C462.417 187.5 475.083 184.542 486.25 178.625C497.417 172.708 506.167 164.5 512.5 154C518.833 143.5 522 131.583 522 118.25C522 104.917 518.833 93 512.5 82.5C506.167 72 497.417 63.7917 486.25 57.875C475.083 51.9583 462.417 49 448.25 49C434.083 49 421.375 51.9583 410.125 57.875C398.875 63.7917 390.083 72 383.75 82.5C377.417 93 374.25 104.917 374.25 118.25C374.25 131.583 377.417 143.5 383.75 154C390.083 164.5 398.875 172.708 410.125 178.625C421.375 184.542 434.083 187.5 448.25 187.5ZM423.5 145.375C430 152.125 438.25 155.5 448.25 155.5C458.25 155.5 466.458 152.125 472.875 145.375C479.292 138.625 482.5 129.583 482.5 118.25C482.5 106.917 479.292 97.875 472.875 91.125C466.458 84.375 458.25 81 448.25 81C438.25 81 430 84.375 423.5 91.125C417 97.875 413.75 106.917 413.75 118.25C413.75 129.583 417 138.625 423.5 145.375ZM604.75 187.5C613.083 187.5 620.833 185.958 628 182.875C635.167 179.792 641.333 175.333 646.5 169.5V185.5H683.5V51H644.5V117.5C644.5 129.5 641.667 138.542 636 144.625C630.333 150.708 622.833 153.75 613.5 153.75C595.333 153.75 586.25 142.917 586.25 121.25V51H547.25V127C547.25 147 552.417 162.083 562.75 172.25C573.083 182.417 587.083 187.5 604.75 187.5ZM792.375 185.375C786.792 186.792 780.917 187.5 774.75 187.5C758.75 187.5 746.375 183.417 737.625 175.25C728.875 167.083 724.5 155.083 724.5 139.25V84H703.75V54H724.5V21.25H763.5V54H797V84H763.5V138.75C763.5 144.417 764.958 148.792 767.875 151.875C770.792 154.958 774.917 156.5 780.25 156.5C786.417 156.5 791.667 154.833 796 151.5L806.5 179C802.667 181.833 797.958 183.958 792.375 185.375Z" fill="url(#paint0_linear)"/>
</g>
<defs>
<linearGradient id="paint0_linear" x1="787.132" y1="15.7105" x2="312.118" y2="-302.055" gradientUnits="userSpaceOnUse">
<stop stop-color="#EEEEEE" stop-opacity="0.01"/>
<stop offset="1" stop-color="#D8D8D8"/>
</linearGradient>
</defs>
</svg>
