<svg width="22px" height="23px" viewBox="0 0 22 23" version="1.1" xmlns="http://www.w3.org/2000/svg" xmlns:xlink="http://www.w3.org/1999/xlink">

    <g id="Page-1" stroke="none" stroke-width="1" fill="none" fill-rule="evenodd">
        <g id="home-copy-5" transform="translate(-1084.000000, -4917.000000)" fill="#00D9FF" fill-rule="nonzero">
            <g id="Group-7" transform="translate(1084.000000, 4917.000000)">
                <path d="M11.2255782,22.2646168 C10.996697,22.4934504 10.6257185,22.4934504 10.3968849,22.2646645 L0.171613284,12.0393929 C-0.057172639,11.8105116 -0.057172639,11.4395331 0.171613284,11.2106995 L10.3968849,0.985427891 C10.6257662,0.756641968 10.9967446,0.756641968 11.2255782,0.985427891 L12.1923156,1.95216524 C12.4211015,2.18099885 12.4211015,2.55197727 12.1923156,2.78081088 L4.61763235,10.3554941 L21.2890117,10.3554941 C21.6125927,10.3554941 21.8749478,10.6178493 21.8749478,10.9414302 L21.8749478,12.3086145 C21.8749478,12.6321954 21.6125927,12.8945506 21.2890117,12.8945506 L4.61763235,12.8945506 L12.1923156,20.4691861 C12.4211015,20.6980674 12.4211015,21.0690459 12.1923156,21.2978318 L11.2255782,22.2646168 Z" id="arrow--left"></path>
            </g>
        </g>
    </g>
</svg>