<svg width="22px" height="23px" viewBox="0 0 22 23" version="1.1" xmlns="http://www.w3.org/2000/svg" xmlns:xlink="http://www.w3.org/1999/xlink">
    <g id="Page-1" stroke="none" stroke-width="1" fill="none" fill-rule="evenodd">
        <g id="home-copy-5" transform="translate(-1172.000000, -4917.000000)" fill="#00D9FF" fill-rule="nonzero">
            <g id="Group-7" transform="translate(1084.000000, 4917.000000)">
                <path d="M98.6494173,0.985427891 C98.8782509,0.756594285 99.2492293,0.756594285 99.4780629,0.985427891 L109.703382,11.2106995 C109.932168,11.4395808 109.932168,11.8105592 109.703382,12.0393929 L99.4781106,22.2646645 C99.2492293,22.4934504 98.8782509,22.4934504 98.6494173,22.2646645 L97.6826799,21.2978795 C97.453894,21.0690459 97.453894,20.6980674 97.6826799,20.4692338 L105.257363,12.8945506 L88.5859361,12.8945506 C88.2623552,12.8945506 88,12.6321954 88,12.3086145 L88,10.9414302 C88,10.6178493 88.2623552,10.3554941 88.5859361,10.3554941 L105.257363,10.3554941 L97.6826799,2.78085856 C97.453894,2.55197727 97.453894,2.18099885 97.6826799,1.95221292 L98.6494173,0.985427891 Z" id="arrow--right"></path>
            </g>
        </g>
    </g>
</svg>