<?xml version="1.0" encoding="UTF-8"?>
<svg width="14px" height="9px" viewBox="0 0 14 9" version="1.1" xmlns="http://www.w3.org/2000/svg" xmlns:xlink="http://www.w3.org/1999/xlink">
    <g id="Page-1" stroke="none" stroke-width="1" fill="none" fill-rule="evenodd">
        <g id="Artboard" transform="translate(-175.000000, -102.000000)" fill="#CACDCE" fill-rule="nonzero">
            <path d="M180.437487,106.054699 C180.937486,106.195324 181.316391,106.449229 181.574203,106.816416 C181.832015,107.183603 181.960921,107.63282 181.960921,108.164069 C181.960921,108.960942 181.656234,109.570316 181.046861,109.99219 C180.531237,110.382814 179.859363,110.578126 179.03124,110.578126 L175,110.578126 L175,102.257833 L178.914053,102.257833 C179.726551,102.257833 180.35155,102.398458 180.789049,102.679707 C181.304672,103.007832 181.562484,103.562518 181.562484,104.343766 C181.562484,105.125014 181.187485,105.695325 180.437487,106.054699 Z M176.828121,103.687517 L176.828121,105.632825 L178.679679,105.632825 C179.023428,105.632825 179.292959,105.550794 179.488271,105.386732 C179.683582,105.22267 179.781239,104.968764 179.781239,104.625015 C179.781239,104.000017 179.367177,103.687517 178.539054,103.687517 L176.828121,103.687517 Z M178.773429,109.171879 C179.679676,109.171879 180.1328,108.804693 180.1328,108.070319 C180.1328,107.273446 179.695301,106.87501 178.820303,106.87501 L176.828121,106.87501 L176.828121,109.171879 L178.773429,109.171879 Z M183.812479,103.523455 L183.812479,102.703145 L187.187471,102.703145 L187.187471,103.523455 L183.812479,103.523455 Z M188.499968,107.648445 L188.47653,107.953132 L184.140603,107.953132 C184.140603,108.453131 184.269509,108.835943 184.527321,109.101567 C184.785133,109.367191 185.148413,109.500004 185.617162,109.500004 C185.898412,109.500004 186.167942,109.429691 186.425754,109.289067 C186.683566,109.148442 186.851534,108.95313 186.929659,108.70313 L188.382781,108.70313 C187.945282,110.046877 187.007784,110.718751 185.570287,110.718751 C184.63279,110.718751 183.886698,110.429689 183.332011,109.851565 C182.777325,109.273441 182.499982,108.515631 182.499982,107.578133 C182.499982,106.984385 182.628888,106.445323 182.8867,105.96095 C183.144512,105.476576 183.507792,105.093764 183.976541,104.812515 C184.44529,104.531265 184.976539,104.390641 185.570287,104.390641 C186.476535,104.390641 187.203096,104.710953 187.74997,105.351576 C188.249968,105.96095 188.499968,106.726573 188.499968,107.648445 Z M184.140603,106.921885 L186.835909,106.921885 C186.804659,106.515636 186.67966,106.19923 186.46091,105.972668 C186.242161,105.746106 185.933568,105.632825 185.535131,105.632825 C185.136695,105.632825 184.812477,105.750013 184.562477,105.984387 C184.312478,106.218761 184.171853,106.531261 184.140603,106.921885 Z" id=""></path>
        </g>
    </g>
</svg>