<svg xmlns="http://www.w3.org/2000/svg" width="41" height="34" viewBox="0 0 41 34">
  <defs>
    <linearGradient id="browser-a" x1="88.291%" x2="14.824%" y1="30.894%" y2="73.78%">
      <stop offset="0%" stop-color="#717186" stop-opacity=".943"/>
      <stop offset="100%" stop-color="#101017"/>
    </linearGradient>
  </defs>
  <g fill="none" fill-rule="evenodd">
    <path fill="url(#browser-a)" d="M41,6 L41,26 C41,28.209139 39.209139,30 37,30 L5,30 C2.790861,30 1,28.209139 1,26 L1,6 L41,6 Z M37,0 C39.209139,-4.05812251e-16 41,1.790861 41,4 L41,5 L1,5 L1,4 C1,1.790861 2.790861,4.05812251e-16 5,0 L37,0 Z M4.75,2 C4.33578644,2 4,2.33578644 4,2.75 C4,3.16421356 4.33578644,3.5 4.75,3.5 C5.16421356,3.5 5.5,3.16421356 5.5,2.75 C5.5,2.33578644 5.16421356,2 4.75,2 Z M7.75,2 C7.33578644,2 7,2.33578644 7,2.75 C7,3.16421356 7.33578644,3.5 7.75,3.5 C8.16421356,3.5 8.5,3.16421356 8.5,2.75 C8.5,2.33578644 8.16421356,2 7.75,2 Z M10.75,2 C10.3357864,2 10,2.33578644 10,2.75 C10,3.16421356 10.3357864,3.5 10.75,3.5 C11.1642136,3.5 11.5,3.16421356 11.5,2.75 C11.5,2.33578644 11.1642136,2 10.75,2 Z"/>
    <path fill="#FFF" fill-rule="nonzero" d="M6.79664136,33.1988397 L8.52509564,32.445557 C8.83758727,32.3049323 8.99383308,31.9332863 8.85708795,31.6018434 L6.89431645,26.8208451 L10.6238226,26.8208451 C11.1689835,26.8208451 11.466575,26.1190607 11.0632747,25.7260601 L1.06443533,15.4414052 C0.700342416,15.035736 0,15.3168137 0,15.8933542 L0,30.999176 C0,31.5468088 0.658422808,31.8687075 1.06446966,31.4511594 L4.11124584,28.3174197 L5.97637659,32.8573373 C6.11308738,33.1787553 6.47443372,33.3394643 6.79664136,33.1988397 Z"/>
  </g>
</svg>
