<svg width="156" height="148" viewBox="0 0 156 148" fill="none" xmlns="http://www.w3.org/2000/svg">
<g opacity="0.7">
<path d="M13.8561 64.4688C13.802 64.7081 13.6793 64.8875 13.4883 65.0071C13.2868 65.1243 13.0614 65.1537 12.8121 65.0954C12.5629 65.037 12.378 64.9116 12.2575 64.7191C12.1266 64.5241 12.0883 64.307 12.1424 64.0677C12.1965 63.8284 12.3243 63.6502 12.5258 63.533C12.7193 63.403 12.9406 63.3672 13.1899 63.4256C13.4392 63.4839 13.6281 63.6157 13.7566 63.8211C13.8771 64.0136 13.9102 64.2295 13.8561 64.4688Z" fill="white"/>
<path d="M10.9535 48.6606L12.9845 44.5779C13.5118 43.5178 14.1908 42.6917 15.0214 42.0995C15.8426 41.5025 16.7442 41.1748 17.7262 41.1164C18.6988 41.0531 19.6688 41.2704 20.6362 41.7682C21.6036 42.266 22.3551 42.9346 22.8906 43.7739C23.4166 44.6083 23.691 45.5412 23.714 46.5726C23.7275 47.5992 23.4706 48.6425 22.9433 49.7025L20.9123 53.7853L10.9535 48.6606ZM22.0042 49.2913C22.4413 48.4127 22.653 47.556 22.6394 46.7214C22.6163 45.8818 22.3915 45.1244 21.965 44.4491C21.529 43.769 20.9127 43.2239 20.116 42.8139C19.3193 42.404 18.5272 42.2243 17.7396 42.2748C16.9426 42.3205 16.2095 42.5849 15.5402 43.0682C14.8615 43.5466 14.3036 44.2251 13.8665 45.1037L12.3914 48.0691L20.5291 52.2567L22.0042 49.2913Z" fill="white"/>
<path d="M27.8564 35.2488L23.7179 40.9439C24.4547 41.4177 25.2192 41.5721 26.0115 41.4071C26.7952 41.2358 27.4598 40.7747 28.0054 40.024C28.3126 39.6012 28.5223 39.1584 28.6344 38.6956C28.7381 38.2265 28.739 37.7535 28.6372 37.2767L29.6017 37.2012C29.7404 37.7724 29.7373 38.3572 29.5926 38.9555C29.4541 39.5452 29.1873 40.1119 28.7923 40.6555C28.2844 41.3545 27.688 41.8668 27.003 42.1925C26.3158 42.5032 25.6025 42.6141 24.8629 42.5251C24.1233 42.4362 23.4253 42.1449 22.7687 41.6514C22.1122 41.1579 21.6273 40.5733 21.3142 39.8976C21.0072 39.2132 20.8907 38.5118 20.9645 37.7934C21.0445 37.0664 21.3134 36.3879 21.7712 35.758C22.2289 35.1281 22.7846 34.6719 23.4381 34.3893C24.0917 34.1067 24.782 34.0186 25.5091 34.1248C26.2276 34.2246 26.9194 34.5244 27.5844 35.0243L27.8564 35.2488ZM22.5513 36.3445C22.0748 37.0003 21.8824 37.7096 21.9741 38.4723C22.0636 39.22 22.4189 39.8741 23.0401 40.4344L26.5484 35.6065C25.8394 35.167 25.1173 35.0177 24.3819 35.1588C23.6444 35.2848 23.0342 35.68 22.5513 36.3445Z" fill="white"/>
<path d="M34.1154 34.5424C33.6419 35.0342 33.1189 35.439 32.5464 35.7569C31.9737 36.0596 31.4594 36.2323 31.0037 36.2751L30.7239 35.274C31.1646 35.2162 31.6341 35.0591 32.1325 34.8028C32.6233 34.5391 33.0685 34.1997 33.468 33.7848C34.0006 33.2315 34.3096 32.7414 34.3948 32.3146C34.4799 31.8725 34.3676 31.4972 34.0577 31.1886C33.8385 30.9703 33.5982 30.8739 33.3367 30.8995C33.0676 30.9175 32.7956 31.0079 32.5206 31.1705C32.238 31.3256 31.889 31.5574 31.4734 31.8661C30.9092 32.2675 30.4375 32.5729 30.0583 32.7823C29.6715 32.9841 29.2612 33.0797 28.8273 33.0691C28.4009 33.0507 27.9873 32.8421 27.5868 32.4432C27.0879 31.9464 26.8833 31.3286 26.9727 30.5898C27.0622 29.8511 27.4694 29.1052 28.1944 28.3521C28.5717 27.9602 29.0019 27.621 29.4851 27.3345C29.9606 27.0405 30.4036 26.8494 30.814 26.7615L31.1162 27.7623C30.2952 27.9231 29.5518 28.3493 28.886 29.0408C28.3829 29.5634 28.0926 30.0494 28.0151 30.499C27.9449 30.9409 28.0572 31.3087 28.352 31.6022C28.5787 31.828 28.8304 31.9357 29.107 31.9252C29.391 31.907 29.6743 31.8203 29.9568 31.6652C30.2319 31.5026 30.592 31.2592 31.0373 30.9351C31.5941 30.5413 32.0584 30.2436 32.4302 30.0419C32.802 29.8402 33.1974 29.7448 33.6163 29.7556C34.0353 29.7664 34.4375 29.9637 34.8229 30.3476C35.3444 30.867 35.5455 31.5038 35.4263 32.2581C35.3069 32.9972 34.87 33.7586 34.1154 34.5424Z" fill="white"/>
<path d="M33.1826 23.8875L34.0583 23.164L39.3104 29.74L38.4347 30.4635L33.1826 23.8875ZM32.4783 22.0829C32.2974 22.2324 32.0954 22.2956 31.8722 22.2724C31.649 22.2493 31.4675 22.1503 31.3277 21.9752C31.1946 21.8085 31.1397 21.6117 31.1632 21.3848C31.1867 21.1579 31.2889 20.9697 31.4698 20.8202C31.6508 20.6707 31.8528 20.6076 32.076 20.6307C32.2926 20.6455 32.4674 20.7362 32.6005 20.9029C32.747 21.0862 32.8084 21.2914 32.7849 21.5183C32.7614 21.7452 32.6592 21.9334 32.4783 22.0829Z" fill="white"/>
<path d="M45.4488 15.4386L49.2881 21.7553C50.0304 22.9768 50.2809 24.0665 50.0395 25.0246C49.8126 25.9861 49.1032 26.8416 47.9112 27.591C47.252 28.0055 46.5635 28.2998 45.8456 28.474C45.1423 28.6516 44.5003 28.6836 43.9195 28.57L43.9584 27.5251C44.4899 27.6193 45.0521 27.5997 45.645 27.4663C46.2469 27.3272 46.8188 27.0873 47.3606 26.7467C48.2636 26.1789 48.7971 25.5474 48.9612 24.8522C49.1307 24.166 48.9441 23.3763 48.4011 22.4831L47.8444 21.567C47.8234 22.2101 47.6411 22.8034 47.2975 23.347C46.9629 23.8849 46.5022 24.3384 45.9152 24.7074C45.247 25.1276 44.5488 25.3649 43.8207 25.4196C43.0961 25.4594 42.415 25.3144 41.7777 24.9844C41.1438 24.6397 40.6218 24.13 40.2119 23.4555C39.8019 22.781 39.5898 22.0829 39.5755 21.3612C39.5702 20.6338 39.7498 19.9539 40.1144 19.3216C40.4789 18.6892 40.9998 18.1602 41.6771 17.7344C42.2821 17.354 42.9032 17.1335 43.5404 17.0731C44.1776 17.0126 44.7865 17.1211 45.367 17.3986L44.5277 16.0177L45.4488 15.4386ZM45.4865 23.7864C46.0012 23.4628 46.3998 23.061 46.6822 22.5811C46.9591 22.0921 47.0885 21.5761 47.0705 21.033C47.0615 20.4844 46.9019 19.9548 46.5917 19.4444C46.2814 18.9339 45.8898 18.5565 45.4168 18.3122C44.9473 18.0531 44.4384 17.9447 43.89 17.9871C43.3452 18.0147 42.8108 18.1932 42.2871 18.5225C41.7724 18.8461 41.3738 19.2478 41.0914 19.7278C40.818 20.202 40.6858 20.7135 40.6948 21.2622C40.7128 21.8052 40.8769 22.3319 41.1871 22.8423C41.4974 23.3528 41.8873 23.7376 42.3568 23.9967C42.8353 24.2501 43.347 24.3631 43.8919 24.3355C44.4402 24.2931 44.9718 24.11 45.4865 23.7864Z" fill="white"/>
<path d="M52.5827 12.3166C53.5547 11.9039 54.4429 11.8628 55.2473 12.1933C56.0575 12.5098 56.6853 13.2108 57.1309 14.2962L58.9839 18.8107L57.9383 19.2547L56.1277 14.8438C55.7956 14.0347 55.3412 13.5034 54.7645 13.25C54.1878 12.9966 53.5263 13.0283 52.7801 13.3452C51.9456 13.6995 51.3861 14.2325 51.1018 14.9442C50.8232 15.6419 50.8641 16.4299 51.2246 17.3081L52.9015 21.3933L51.8558 21.8373L48.6601 14.0517L49.6616 13.6264L50.2509 15.0622C50.3412 14.4676 50.5841 13.9358 50.9795 13.4666C51.3807 12.9834 51.9151 12.6001 52.5827 12.3166Z" fill="white"/>
<path d="M65.9984 8.65728L67.1178 8.46408L68.5027 16.7654L67.3833 16.9585L65.9984 8.65728ZM66.2632 6.7444C66.032 6.78431 65.8243 6.73896 65.6403 6.60835C65.4563 6.47774 65.3459 6.30197 65.309 6.08102C65.2739 5.87059 65.3221 5.67287 65.4534 5.48784C65.5847 5.30281 65.766 5.19034 65.9973 5.15043C66.2285 5.11052 66.4362 5.15587 66.6201 5.28648C66.8024 5.40657 66.9111 5.57183 66.9462 5.78225C66.9848 6.01372 66.9384 6.22197 66.8071 6.407C66.6757 6.59203 66.4945 6.70449 66.2632 6.7444Z" fill="white"/>
<path d="M75.6935 16.1458C75.0119 16.1835 74.3517 16.1239 73.7131 15.967C73.0845 15.7988 72.5866 15.5753 72.2191 15.2965L72.6825 14.3735C73.0487 14.631 73.503 14.8355 74.0452 14.9871C74.5868 15.1281 75.1452 15.1826 75.7203 15.1508C76.4872 15.1083 77.0454 14.9599 77.3949 14.7055C77.7546 14.4399 77.9227 14.0887 77.8994 13.652C77.8828 13.3431 77.7688 13.1091 77.5573 12.9499C77.3453 12.78 77.0826 12.661 76.7691 12.5929C76.4551 12.5141 76.0403 12.4463 75.5245 12.3894C74.836 12.2993 74.2807 12.2019 73.8585 12.097C73.4357 11.9816 73.0667 11.7723 72.7514 11.4693C72.4467 11.1656 72.2793 10.7316 72.249 10.167C72.2114 9.46406 72.4735 8.87266 73.0353 8.39288C73.5972 7.91309 74.4 7.6443 75.4437 7.58652C75.9869 7.55645 76.534 7.60094 77.0852 7.71999C77.6357 7.82838 78.093 7.99002 78.457 8.20489L78.0105 9.14301C77.2926 8.70202 76.4544 8.50806 75.4959 8.56112C74.7716 8.60122 74.23 8.7594 73.8709 9.03567C73.5225 9.31135 73.3594 9.6569 73.3816 10.0723C73.3987 10.3918 73.5136 10.6419 73.7262 10.8224C73.9494 11.0023 74.2181 11.1317 74.5321 11.2104C74.8455 11.2786 75.2763 11.3455 75.8246 11.4113C76.5025 11.502 77.0471 11.6 77.4587 11.7054C77.8702 11.8108 78.2281 12.01 78.5322 12.303C78.8363 12.596 79.0028 13.0141 79.0319 13.5573C79.0712 14.2922 78.7937 14.8952 78.1994 15.3661C77.6151 15.8257 76.7798 16.0856 75.6935 16.1458Z" fill="white"/>
<path d="M95.4799 14.3287L88.5613 13.027C88.4676 13.8994 88.6709 14.6594 89.1711 15.3071C89.6732 15.9442 90.3802 16.3486 91.2922 16.5201C91.8059 16.6168 92.2938 16.6163 92.7561 16.5188C93.2202 16.4107 93.642 16.2079 94.0214 15.9102L94.5186 16.7527C94.0716 17.1244 93.5492 17.3735 92.9517 17.4998C92.3646 17.6282 91.7408 17.6302 91.0804 17.506C90.2313 17.3462 89.509 17.0258 88.9135 16.5447C88.3303 16.0552 87.9135 15.4558 87.6631 14.7466C87.4126 14.0374 87.3609 13.2788 87.5078 12.4707C87.6548 11.6626 87.9595 10.971 88.4218 10.3959C88.8947 9.82282 89.4675 9.41505 90.1404 9.17263C90.8238 8.93217 91.5481 8.88393 92.3133 9.0279C93.0786 9.17187 93.7328 9.47945 94.2759 9.95065C94.819 10.4219 95.2053 11.0101 95.4348 11.7153C95.6662 12.4101 95.7075 13.1667 95.5586 13.9853L95.4799 14.3287ZM92.1387 9.98815C91.342 9.83826 90.6244 9.96916 89.9857 10.3808C89.3595 10.784 88.9352 11.388 88.713 12.1927L94.5781 13.2962C94.6536 12.4638 94.4646 11.7444 94.0111 11.1382C93.57 10.5233 92.9459 10.14 92.1387 9.98815Z" fill="white"/>
<path d="M105.996 13.2535L99.799 20.0208L98.6945 19.6407L97.8261 10.4419L98.9457 10.8272L99.6634 18.6544L104.937 12.889L105.996 13.2535Z" fill="white"/>
<path d="M112.921 22.0524L106.665 18.8234C106.332 19.6354 106.313 20.4242 106.611 21.1898C106.913 21.9459 107.476 22.5368 108.301 22.9624C108.765 23.2022 109.232 23.3412 109.702 23.3795C110.176 23.4083 110.637 23.3339 111.083 23.1561L111.323 24.1082C110.791 24.3379 110.222 24.428 109.615 24.3787C109.017 24.3343 108.42 24.1579 107.822 23.8497C107.055 23.4534 106.453 22.9389 106.018 22.3062C105.597 21.6688 105.366 20.9733 105.325 20.2199C105.283 19.4664 105.446 18.7223 105.813 17.9873C106.18 17.2524 106.665 16.6746 107.268 16.2538C107.881 15.838 108.543 15.6097 109.255 15.5689C109.976 15.5331 110.682 15.6937 111.374 16.0509C112.066 16.408 112.606 16.8907 112.994 17.499C113.382 18.1073 113.587 18.7832 113.609 19.5269C113.636 20.261 113.464 21.0003 113.092 21.7448L112.921 22.0524ZM110.938 16.9242C110.218 16.5523 109.495 16.4731 108.769 16.6863C108.057 16.8949 107.482 17.3544 107.044 18.0646L112.347 20.8019C112.652 20.0232 112.673 19.2776 112.408 18.565C112.158 17.8478 111.668 17.3009 110.938 16.9242Z" fill="white"/>
<path d="M117.499 21.9026C118.034 21.5875 118.596 21.4607 119.186 21.5221C119.784 21.5896 120.402 21.8467 121.04 22.2934L120.421 23.2076L120.207 23.0383C119.482 22.5303 118.762 22.3578 118.046 22.5206C117.33 22.6834 116.698 23.1711 116.147 23.9837L113.743 27.5342L112.813 26.8825L117.531 19.9138L118.423 20.5381L117.499 21.9026Z" fill="white"/>
<path d="M129.451 29.8795L120.107 34.1068C119.332 34.4684 118.67 34.622 118.12 34.5678C117.571 34.5136 117.064 34.2743 116.599 33.8499C116.3 33.5766 116.062 33.2733 115.887 32.94C115.712 32.6066 115.614 32.2577 115.595 31.8932L116.546 31.6135C116.579 32.2211 116.816 32.7263 117.257 33.1291C117.54 33.388 117.851 33.5274 118.189 33.5473C118.535 33.5744 118.964 33.4751 119.476 33.2496L120.288 32.886L123.071 24.0532L123.945 24.8516L121.551 32.3496L128.624 29.1242L129.451 29.8795Z" fill="white"/>
<path d="M128.08 40.7129C127.797 40.6765 127.513 40.5713 127.226 40.3973C126.954 40.2244 126.707 40.0076 126.487 39.7471C125.977 39.1445 125.745 38.5399 125.79 37.9331C125.836 37.3264 126.151 36.7666 126.737 36.2538L130.566 32.9026L129.594 31.7545L130.317 31.1222L131.288 32.2703L132.673 31.0584L133.407 31.9256L132.022 33.1375L133.676 35.0918L132.953 35.7241L131.3 33.7698L127.519 37.0788C127.142 37.409 126.932 37.7556 126.89 38.1185C126.863 38.4825 127.001 38.8437 127.304 39.202C127.456 39.3811 127.628 39.5275 127.822 39.6412C128.023 39.763 128.228 39.8393 128.435 39.8701L128.08 40.7129Z" fill="white"/>
<path d="M138.713 42.4726C139.277 43.3647 139.467 44.2416 139.28 45.1033C139.108 45.9682 138.532 46.7221 137.55 47.365L133.468 50.0392L132.86 49.0794L136.849 46.4667C137.58 45.9874 138.021 45.4373 138.171 44.8165C138.32 44.1957 138.178 43.5428 137.745 42.858C137.26 42.092 136.647 41.6327 135.906 41.4803C135.181 41.3309 134.421 41.5164 133.627 42.0366L129.933 44.4565L129.325 43.4967L139.256 36.9911L139.864 37.9509L135.741 40.6513C136.317 40.6438 136.862 40.7967 137.376 41.1102C137.89 41.4237 138.336 41.8778 138.713 42.4726Z" fill="white"/>
<path d="M141.901 48.7135L142.382 49.7427L134.805 53.4054L134.324 52.3763L141.901 48.7135ZM143.802 48.4345C143.702 48.2219 143.691 48.0083 143.767 47.7938C143.843 47.5792 143.982 47.4231 144.184 47.3256C144.376 47.2328 144.578 47.224 144.79 47.2994C145.002 47.3747 145.157 47.5186 145.256 47.7312C145.356 47.9438 145.367 48.1574 145.291 48.372C145.224 48.582 145.095 48.7334 144.903 48.8262C144.692 48.9283 144.48 48.9417 144.268 48.8664C144.056 48.7911 143.901 48.6471 143.802 48.4345Z" fill="white"/>
<path d="M146.012 59.3921C146.334 60.3977 146.296 61.2924 145.898 62.0763C145.513 62.8669 144.764 63.4469 143.65 63.8162L139.018 65.3521L138.671 64.2703L143.197 62.7697C144.027 62.4944 144.593 62.0763 144.895 61.5155C145.197 60.9547 145.224 60.2883 144.976 59.5163C144.7 58.6529 144.222 58.0529 143.543 57.7162C142.877 57.3864 142.093 57.3708 141.192 57.6696L137.001 59.0594L136.654 57.9776L144.642 55.3289L144.974 56.365L143.501 56.8534C144.082 56.9869 144.587 57.269 145.016 57.6997C145.459 58.1373 145.791 58.7014 146.012 59.3921Z" fill="white"/>
<path d="M148.782 74.0137L141.484 75.1883C140.073 75.4155 138.976 75.2355 138.194 74.6483C137.403 74.0734 136.899 73.0903 136.682 71.6991C136.563 70.9297 136.565 70.1785 136.688 69.4456C136.803 68.7249 137.026 68.1163 137.359 67.6197L138.301 68.0516C138.005 68.5097 137.802 69.0395 137.69 69.6409C137.58 70.2527 137.574 70.8749 137.673 71.5073C137.837 72.5613 138.205 73.2961 138.777 73.7118C139.338 74.1292 140.135 74.2549 141.167 74.0887L142.226 73.9184C141.645 73.6553 141.173 73.2613 140.811 72.7362C140.45 72.2216 140.217 71.6218 140.11 70.9367C139.989 70.1568 140.046 69.4182 140.283 68.721C140.532 68.0327 140.934 67.455 141.487 66.9877C142.053 66.5294 142.725 66.2375 143.504 66.112C144.284 65.9866 145.007 66.0539 145.673 66.314C146.341 66.5845 146.893 67.0089 147.329 67.587C147.764 68.1652 148.043 68.8495 148.166 69.64C148.276 70.3462 148.233 71.0067 148.037 71.6216C147.842 72.2365 147.502 72.7611 147.019 73.1954L148.615 72.9386L148.782 74.0137ZM141.122 70.8872C141.216 71.488 141.427 72.0104 141.755 72.4546C142.094 72.8971 142.515 73.2127 143.02 73.4016C143.526 73.6011 144.073 73.6534 144.663 73.5584C145.253 73.4635 145.753 73.2426 146.163 72.8957C146.585 72.5576 146.885 72.1258 147.063 71.6003C147.252 71.0836 147.299 70.5196 147.204 69.9083C147.111 69.3075 146.9 68.7851 146.572 68.3409C146.245 67.9073 145.829 67.5908 145.323 67.3913C144.818 67.2024 144.271 67.1554 143.682 67.2503C143.092 67.3453 142.586 67.5618 142.163 67.8999C141.743 68.2485 141.438 68.6811 141.248 69.1978C141.071 69.7233 141.029 70.2864 141.122 70.8872Z" fill="white"/>
<path d="M18.1616 80.8737L18.7181 85.3996C18.8626 86.5748 18.752 87.6416 18.3863 88.6001C18.0311 89.5572 17.4606 90.3367 16.6748 90.9384C15.8997 91.5388 14.9721 91.9054 13.8923 92.0382C12.8124 92.171 11.8184 92.0407 10.9103 91.6472C10.0127 91.2525 9.2704 90.6345 8.68334 89.7932C8.10686 88.9506 7.74637 87.9417 7.60187 86.7665L7.04534 82.2406L18.1616 80.8737ZM8.6104 86.578C8.73017 87.552 9.02553 88.3809 9.49648 89.0645C9.97802 89.7468 10.5823 90.2475 11.3093 90.5665C12.047 90.8841 12.8604 90.9883 13.7497 90.879C14.639 90.7696 15.3977 90.4721 16.0258 89.9865C16.6645 89.4996 17.1295 88.8674 17.4208 88.0901C17.7227 87.3114 17.8138 86.4351 17.694 85.4611L17.2898 82.1738L8.20619 83.2908L8.6104 86.578Z" fill="white"/>
<path d="M15.1569 100.969L13.1409 94.2238C12.3212 94.5356 11.7378 95.0607 11.3907 95.799C11.0538 96.5343 11.0182 97.3465 11.2839 98.2356C11.4336 98.7364 11.6579 99.1703 11.9569 99.5374C12.2661 99.9014 12.6403 100.185 13.0794 100.388L12.5575 101.212C12.0213 100.982 11.5599 100.63 11.1732 100.156C10.7895 99.6915 10.5014 99.1375 10.309 98.4936C10.0616 97.6658 10.0154 96.878 10.1704 96.1303C10.3387 95.3898 10.6812 94.7475 11.1977 94.2034C11.7142 93.6594 12.3659 93.2698 13.1528 93.0346C13.9398 92.7994 14.6953 92.7573 15.4196 92.9082C16.1468 93.0694 16.7728 93.3944 17.2974 93.8833C17.8251 94.3824 18.2005 95.005 18.4235 95.7511C18.6464 96.4971 18.6728 97.2185 18.5025 97.9151C18.3321 98.6117 17.9857 99.2218 17.4631 99.7454C16.9507 100.266 16.2959 100.645 15.4987 100.884L15.1569 100.969ZM17.4883 96.0306C17.2562 95.2538 16.8103 94.6746 16.1507 94.2928C15.5043 93.9182 14.7719 93.8143 13.9534 93.981L15.6624 99.6991C16.4382 99.3893 16.9919 98.8953 17.3236 98.2173C17.6686 97.5464 17.7235 96.8175 17.4883 96.0306Z" fill="white"/>
<path d="M13.7639 107.037C13.48 106.416 13.2945 105.779 13.2075 105.127C13.1345 104.48 13.1607 103.935 13.2859 103.49L14.3137 103.583C14.2078 104.019 14.1834 104.517 14.2402 105.077C14.3068 105.633 14.4598 106.173 14.6993 106.697C15.0187 107.395 15.3605 107.861 15.7247 108.093C16.103 108.33 16.4911 108.358 16.8888 108.176C17.1701 108.048 17.3463 107.856 17.4172 107.601C17.4978 107.341 17.5127 107.053 17.4616 106.736C17.4203 106.415 17.332 106.003 17.1967 105.502C17.0293 104.828 16.9172 104.275 16.8607 103.844C16.8138 103.408 16.8738 102.987 17.0406 102.583C17.2119 102.188 17.5546 101.873 18.0687 101.638C18.709 101.345 19.3548 101.372 20.0062 101.719C20.6575 102.067 21.2006 102.716 21.6352 103.666C21.8614 104.161 22.0197 104.687 22.1101 105.244C22.2102 105.796 22.2268 106.281 22.1597 106.699L21.1241 106.627C21.2723 105.797 21.1468 104.945 20.7476 104.072C20.446 103.413 20.1012 102.966 19.7131 102.733C19.3295 102.51 18.9485 102.485 18.5702 102.657C18.2792 102.791 18.0885 102.989 17.9981 103.253C17.9122 103.527 17.8899 103.825 17.9313 104.146C17.9823 104.463 18.0772 104.888 18.2161 105.423C18.3792 106.088 18.4868 106.631 18.5389 107.052C18.591 107.474 18.5363 107.881 18.3747 108.271C18.2132 108.662 17.885 108.97 17.3903 109.196C16.7209 109.502 16.0588 109.465 15.4038 109.084C14.7629 108.709 14.2163 108.026 13.7639 107.037Z" fill="white"/>
<path d="M24.2897 108.649L24.8763 109.622L17.6688 113.968L17.0823 112.995L24.2897 108.649ZM26.1629 108.193C26.0417 107.992 26.0084 107.781 26.0628 107.562C26.1172 107.342 26.2403 107.175 26.4321 107.059C26.6148 106.949 26.816 106.921 27.0356 106.975C27.2553 107.03 27.4257 107.157 27.5468 107.358C27.668 107.559 27.7014 107.77 27.647 107.989C27.6017 108.203 27.4877 108.366 27.305 108.476C27.104 108.597 26.8937 108.63 26.6741 108.576C26.4545 108.521 26.2841 108.394 26.1629 108.193Z" fill="white"/>
<path d="M32.5608 119.904L26.7717 124.501C25.6524 125.39 24.6065 125.771 23.6341 125.644C22.6599 125.532 21.7351 124.925 20.8596 123.822C20.3754 123.212 20.0063 122.559 19.7523 121.862C19.4966 121.179 19.3915 120.541 19.437 119.946L20.4718 119.86C20.4398 120.403 20.5235 120.963 20.723 121.54C20.9291 122.126 21.2311 122.669 21.6291 123.17C22.2924 124.006 22.9762 124.464 23.6806 124.545C24.3766 124.632 25.1339 124.351 25.9526 123.701L26.7921 123.034C26.1555 123.09 25.5496 122.979 24.9742 122.7C24.4055 122.43 23.9055 122.023 23.4744 121.48C22.9836 120.862 22.6695 120.192 22.5322 119.47C22.4099 118.75 22.4749 118.052 22.7273 117.375C22.9946 116.699 23.4374 116.116 24.0556 115.625C24.6737 115.135 25.3378 114.839 26.0479 114.738C26.7645 114.646 27.4555 114.744 28.1208 115.033C28.7861 115.322 29.3674 115.78 29.8649 116.406C30.3093 116.966 30.5978 117.561 30.7305 118.191C30.8631 118.821 30.8258 119.443 30.6187 120.057L31.8842 119.052L32.5608 119.904ZM24.3335 120.941C24.7115 121.418 25.1534 121.768 25.659 121.993C26.1729 122.212 26.6966 122.279 27.23 122.196C27.77 122.122 28.2739 121.899 28.7417 121.527C29.2095 121.156 29.5368 120.719 29.7235 120.216C29.9253 119.716 29.9738 119.194 29.8692 118.65C29.7795 118.109 29.5424 117.595 29.1577 117.111C28.7796 116.635 28.3378 116.284 27.8322 116.059C27.3332 115.842 26.8137 115.771 26.2737 115.846C25.7403 115.929 25.2397 116.156 24.7719 116.528C24.3041 116.899 23.9693 117.335 23.7676 117.836C23.5725 118.345 23.5198 118.87 23.6094 119.412C23.714 119.955 23.9554 120.465 24.3335 120.941Z" fill="white"/>
<path d="M37.4875 124.139C38.2662 124.852 38.6748 125.646 38.7131 126.52C38.7666 127.393 38.397 128.263 37.6046 129.128L34.3085 132.727L33.4708 131.959L36.6912 128.443C37.2819 127.798 37.571 127.159 37.5583 126.525C37.5455 125.892 37.2403 125.301 36.6424 124.754C35.9738 124.141 35.2592 123.856 34.4984 123.897C33.7528 123.937 33.0594 124.307 32.4182 125.007L29.4355 128.264L28.5978 127.496L34.2821 121.29L35.0844 122.025L34.0362 123.169C34.6101 123.001 35.1913 122.998 35.7798 123.161C36.3834 123.323 36.9526 123.649 37.4875 124.139Z" fill="white"/>
<path d="M47.2551 130.974L48.2442 131.533L44.1055 138.861L43.1163 138.302L47.2551 130.974ZM48.6615 129.655C48.4572 129.54 48.3247 129.373 48.264 129.155C48.2034 128.937 48.2282 128.731 48.3383 128.536C48.4432 128.35 48.6047 128.227 48.8227 128.166C49.0407 128.106 49.2519 128.133 49.4562 128.248C49.6605 128.364 49.793 128.53 49.8536 128.748C49.9195 128.957 49.9 129.154 49.7951 129.34C49.6797 129.545 49.513 129.677 49.295 129.738C49.077 129.798 48.8658 129.771 48.6615 129.655Z" fill="white"/>
<path d="M51.565 142.466C50.9363 142.2 50.3696 141.856 49.8649 141.434C49.3742 141.006 49.025 140.586 48.8172 140.174L49.638 139.549C49.8541 139.941 50.1723 140.325 50.5928 140.7C51.0174 141.065 51.4949 141.36 52.0254 141.584C52.7326 141.884 53.299 141.996 53.7244 141.921C54.1638 141.841 54.4688 141.599 54.6393 141.196C54.7599 140.912 54.7601 140.651 54.64 140.415C54.524 140.169 54.3403 139.946 54.0887 139.747C53.8412 139.538 53.4984 139.295 53.0601 139.016C52.4814 138.632 52.0254 138.3 51.6922 138.02C51.3632 137.731 51.1235 137.38 50.9732 136.969C50.8327 136.562 50.8726 136.098 51.093 135.578C51.3674 134.929 51.8621 134.513 52.577 134.329C53.2919 134.145 54.1307 134.257 55.0933 134.665C55.5943 134.877 56.0661 135.158 56.5089 135.507C56.9558 135.847 57.2956 136.193 57.5283 136.547L56.716 137.193C56.2646 136.481 55.5969 135.938 54.7128 135.563C54.0449 135.281 53.4891 135.184 53.0455 135.275C52.6118 135.369 52.3138 135.608 52.1516 135.991C52.0269 136.286 52.0204 136.561 52.1322 136.817C52.2538 137.077 52.4384 137.311 52.6858 137.52C52.9374 137.719 53.295 137.969 53.7585 138.27C54.3275 138.649 54.7736 138.977 55.097 139.253C55.4204 139.529 55.6544 139.865 55.799 140.263C55.9436 140.66 55.9099 141.109 55.6979 141.61C55.411 142.288 54.8974 142.707 54.1572 142.869C53.431 143.025 52.5669 142.891 51.565 142.466Z" fill="white"/>
<path d="M72.9209 143.714L65.9744 142.57C65.8955 143.444 66.1118 144.198 66.6234 144.834C67.1367 145.459 67.8512 145.847 68.7669 145.998C69.2826 146.082 69.771 146.071 70.232 145.963C70.6947 145.845 71.1133 145.632 71.488 145.327L72 146.157C71.5588 146.538 71.0403 146.799 70.4443 146.938C69.8589 147.08 69.2347 147.096 68.5716 146.987C67.7191 146.847 66.9907 146.543 66.3865 146.076C65.7946 145.6 65.3673 145.011 65.1046 144.308C64.8419 143.606 64.7773 142.849 64.9107 142.039C65.0441 141.228 65.3373 140.531 65.7903 139.946C66.2538 139.363 66.8202 138.942 67.4896 138.685C68.1695 138.429 68.8936 138.365 69.6619 138.491C70.4302 138.618 71.0902 138.91 71.6417 139.368C72.1933 139.827 72.5899 140.406 72.8315 141.105C73.0749 141.793 73.129 142.548 72.9939 143.369L72.9209 143.714ZM69.5034 139.454C68.7035 139.323 67.9874 139.47 67.3552 139.895C66.7353 140.312 66.3209 140.925 66.1121 141.734L72.0009 142.703C72.0624 141.87 71.861 141.156 71.3969 140.56C70.945 139.956 70.3138 139.588 69.5034 139.454Z" fill="white"/>
<path d="M82.7836 139.222L78.874 147.562L77.7062 147.539L74.1453 139.051L75.3291 139.075L78.3388 146.303L81.6639 139.2L82.7836 139.222Z" fill="white"/>
<path d="M92.2512 142.458L85.2649 143.325C85.4362 144.186 85.8571 144.848 86.5275 145.313C87.1967 145.767 87.9917 145.937 88.9126 145.823C89.4313 145.758 89.8964 145.609 90.3081 145.375C90.7184 145.131 91.06 144.809 91.3328 144.41L92.0587 145.061C91.7434 145.552 91.3198 145.948 90.7877 146.251C90.2662 146.552 89.672 146.744 89.0051 146.827C88.1477 146.934 87.3632 146.848 86.6516 146.571C85.9493 146.282 85.3728 145.838 84.9221 145.238C84.4714 144.639 84.1954 143.931 84.0942 143.116C83.9929 142.301 84.0769 141.549 84.346 140.86C84.6257 140.17 85.0501 139.606 85.6194 139.17C86.1992 138.733 86.8755 138.466 87.6482 138.37C88.4209 138.274 89.1366 138.368 89.7953 138.651C90.4539 138.935 90.998 139.378 91.4275 139.98C91.8557 140.572 92.1211 141.281 92.2237 142.106L92.2512 142.458ZM87.7685 139.338C86.964 139.438 86.3188 139.782 85.8328 140.369C85.356 140.944 85.1319 141.649 85.1604 142.484L91.0829 141.748C90.9062 140.932 90.5111 140.304 89.8975 139.864C89.2933 139.412 88.5836 139.237 87.7685 139.338Z" fill="white"/>
<path d="M95.0993 138.53C95.2135 137.916 95.4867 137.403 95.919 136.991C96.3616 136.577 96.9594 136.271 97.7125 136.073L97.9932 137.141L97.726 137.194C96.8698 137.419 96.2684 137.859 95.9218 138.512C95.5753 139.166 95.5268 139.967 95.7763 140.916L96.8664 145.063L95.7678 145.352L93.6281 137.213L94.6803 136.936L95.0993 138.53Z" fill="white"/>
<path d="M107.295 132.315L106.94 142.63C106.921 143.49 106.766 144.157 106.475 144.632C106.184 145.107 105.747 145.463 105.164 145.7C104.789 145.852 104.414 145.935 104.039 145.949C103.665 145.963 103.311 145.899 102.978 145.758L103.148 144.774C103.704 145.009 104.258 145.014 104.812 144.789C105.168 144.645 105.429 144.424 105.596 144.126C105.773 143.824 105.873 143.391 105.898 142.829L105.932 141.934L99.2891 135.565L100.386 135.12L106.011 140.555L106.257 132.737L107.295 132.315Z" fill="white"/>
<path d="M116.396 135.995C116.305 136.267 116.146 136.528 115.92 136.779C115.697 137.014 115.438 137.216 115.141 137.384C114.453 137.772 113.819 137.885 113.238 137.724C112.656 137.562 112.174 137.142 111.791 136.464L109.289 132.034L107.98 132.773L107.507 131.938L108.817 131.198L107.912 129.596L108.901 129.037L109.806 130.639L112.035 129.38L112.507 130.216L110.278 131.475L112.749 135.85C112.995 136.286 113.291 136.56 113.636 136.672C113.985 136.769 114.363 136.702 114.772 136.471C114.976 136.356 115.153 136.213 115.302 136.043C115.46 135.868 115.575 135.681 115.646 135.481L116.396 135.995Z" fill="white"/>
<path d="M118.327 124.685C119.167 124.044 120.02 123.781 120.887 123.897C121.756 123.998 122.547 124.515 123.259 125.447L126.223 129.325L125.32 130.014L122.425 126.226C121.894 125.531 121.315 125.134 120.689 125.035C120.063 124.936 119.428 125.133 118.784 125.625C118.064 126.176 117.657 126.829 117.563 127.585C117.472 128.326 117.714 129.074 118.291 129.828L120.972 133.337L120.07 134.027L112.861 124.594L113.763 123.904L116.756 127.82C116.704 127.242 116.813 126.682 117.083 126.14C117.353 125.598 117.768 125.113 118.327 124.685Z" fill="white"/>
<path d="M122.574 120.867L123.38 120.068L129.306 126.044L128.499 126.844L122.574 120.867ZM121.687 119.155C121.521 119.32 121.324 119.402 121.098 119.401C120.872 119.4 120.68 119.32 120.522 119.161C120.372 119.01 120.297 118.821 120.298 118.595C120.299 118.368 120.383 118.173 120.55 118.007C120.716 117.842 120.913 117.76 121.139 117.761C121.358 117.755 121.542 117.827 121.692 117.978C121.858 118.145 121.94 118.342 121.939 118.568C121.938 118.794 121.854 118.99 121.687 119.155Z" fill="white"/>
<path d="M129.355 112.897C130.004 112.063 130.762 111.592 131.63 111.484C132.497 111.36 133.393 111.659 134.319 112.379L138.171 115.376L137.473 116.273L133.71 113.345C133.019 112.808 132.359 112.571 131.728 112.634C131.098 112.698 130.534 113.05 130.036 113.689C129.479 114.405 129.252 115.14 129.354 115.895C129.454 116.635 129.878 117.297 130.627 117.88L134.113 120.591L133.415 121.488L126.773 116.32L127.441 115.461L128.666 116.414C128.452 115.856 128.402 115.277 128.517 114.677C128.631 114.063 128.91 113.469 129.355 112.897Z" fill="white"/>
<path d="M136.252 101.345L142.729 104.908C143.981 105.597 144.737 106.415 144.995 107.361C145.269 108.302 145.066 109.39 144.387 110.624C144.012 111.306 143.552 111.899 143.007 112.403C142.476 112.902 141.928 113.246 141.362 113.433L140.883 112.512C141.396 112.332 141.88 112.038 142.335 111.631C142.796 111.215 143.18 110.727 143.488 110.166C144.003 109.231 144.161 108.424 143.963 107.743C143.775 107.067 143.223 106.477 142.307 105.973L141.368 105.456C141.666 106.022 141.797 106.624 141.762 107.262C141.733 107.891 141.551 108.509 141.217 109.117C140.836 109.808 140.34 110.357 139.727 110.762C139.11 111.153 138.441 111.363 137.719 111.392C136.992 111.407 136.283 111.224 135.592 110.843C134.9 110.463 134.371 109.964 134.004 109.348C133.642 108.723 133.465 108.048 133.475 107.322C133.484 106.597 133.682 105.884 134.067 105.183C134.412 104.557 134.849 104.061 135.379 103.695C135.909 103.329 136.497 103.123 137.144 103.077L135.728 102.298L136.252 101.345ZM140.388 108.533C140.681 108 140.833 107.457 140.846 106.904C140.848 106.345 140.709 105.836 140.426 105.376C140.148 104.907 139.748 104.528 139.225 104.241C138.701 103.953 138.172 103.82 137.636 103.841C137.097 103.849 136.596 104.006 136.135 104.312C135.67 104.604 135.289 105.021 134.991 105.563C134.697 106.096 134.545 106.639 134.533 107.192C134.526 107.736 134.661 108.243 134.938 108.712C135.221 109.172 135.624 109.546 136.147 109.834C136.671 110.122 137.202 110.262 137.742 110.255C138.287 110.238 138.792 110.084 139.257 109.792C139.718 109.485 140.095 109.065 140.388 108.533Z" fill="white"/>
<path d="M145.197 87.6587C145.154 87.9003 145.04 88.0857 144.854 88.2151C144.658 88.3426 144.434 88.3838 144.182 88.3388C143.93 88.2938 143.739 88.1785 143.61 87.9929C143.47 87.8053 143.421 87.5908 143.465 87.3493C143.508 87.1078 143.627 86.9233 143.824 86.7958C144.011 86.6559 144.231 86.6085 144.483 86.6535C144.735 86.6985 144.93 86.82 145.068 87.018C145.197 87.2037 145.24 87.4172 145.197 87.6587Z" fill="white"/>
</g>
</svg>
