<svg width="54" height="45" viewBox="0 0 54 45" fill="none" xmlns="http://www.w3.org/2000/svg">
<path fill-rule="evenodd" clip-rule="evenodd" d="M0 3C0 1.34314 1.34315 0 3 0H51C52.6569 0 54 1.34315 54 3V5.93127H0V3ZM0 6.93127H54V41.0816C54 42.7385 52.6569 44.0816 51 44.0816H3C1.34315 44.0816 0 42.7385 0 41.0816V6.93127ZM8.89651 4.37843C9.50515 4.37843 9.99855 3.88503 9.99855 3.27639C9.99855 2.66775 9.50515 2.17435 8.89651 2.17435C8.28787 2.17435 7.79447 2.66775 7.79447 3.27639C7.79447 3.88503 8.28787 4.37843 8.89651 4.37843ZM3.49769 4.37892C4.10633 4.37892 4.59973 3.88552 4.59973 3.27688C4.59973 2.66824 4.10633 2.17484 3.49769 2.17484C2.88905 2.17484 2.39565 2.66824 2.39565 3.27688C2.39565 3.88552 2.88905 4.37892 3.49769 4.37892ZM15.3982 3.27639C15.3982 3.88503 14.9048 4.37843 14.2961 4.37843C13.6875 4.37843 13.1941 3.88503 13.1941 3.27639C13.1941 2.66775 13.6875 2.17435 14.2961 2.17435C14.9048 2.17435 15.3982 2.66775 15.3982 3.27639Z" fill="url(#paint0_linear)"/>
<line x1="9.06641" y1="11.8726" x2="14.6276" y2="11.8726" stroke="white" stroke-width="0.5" stroke-linecap="round"/>
<rect x="4.4082" y="10.4695" width="2.7551" height="2.7551" rx="1" fill="white"/>
<line x1="26.1484" y1="11.8726" x2="31.7097" y2="11.8726" stroke="white" stroke-width="0.5" stroke-linecap="round"/>
<rect x="21.4902" y="10.4695" width="2.7551" height="2.7551" rx="1" fill="white"/>
<line x1="42.6787" y1="11.8726" x2="48.2399" y2="11.8726" stroke="white" stroke-width="0.5" stroke-linecap="round"/>
<rect x="38.0205" y="10.4695" width="2.7551" height="2.7551" rx="1" fill="white"/>
<path d="M3.85742 23.143L11.3442 16.8637C11.9791 16.3313 12.8765 16.2454 13.6008 16.6478L18.9495 19.6193C19.5073 19.9292 20.1795 19.9543 20.7589 19.6869L26.0269 17.2555C26.6349 16.9749 27.343 17.0172 27.9133 17.3681L32.773 20.3587C33.5823 20.8567 34.6303 20.7165 35.2803 20.0233L36.9919 18.1975C37.7221 17.4187 38.9352 17.3506 39.7479 18.0429L44.8055 22.3513C45.3762 22.8374 46.1708 22.9636 46.864 22.6781L50.4186 21.2144" stroke="white" stroke-width="0.5" stroke-linecap="round"/>
<path d="M3.85742 25.8978L11.8488 22.756C12.2704 22.5903 12.7358 22.5725 13.1687 22.7058L18.4674 24.336C18.8158 24.4432 19.1869 24.4532 19.5406 24.3647L26.5587 22.6103C26.8492 22.5377 27.1523 22.5312 27.4456 22.5914L33.8876 23.9126C34.0707 23.9502 34.2475 24.0132 34.4131 24.0998L38.4796 26.2277C38.8194 26.4055 39.2031 26.4818 39.585 26.4477L45.4324 25.9248C45.633 25.9069 45.8297 25.8588 46.0158 25.7821L50.4186 23.9692" stroke="#4AD3F4" stroke-width="0.5" stroke-linecap="round"/>
<path d="M27.0098 33.3062L28.3088 35.5562H25.7107L27.0098 33.3062Z" fill="#4AD3F4"/>
<line x1="24.7598" y1="37.4644" x2="29.2598" y2="37.4644" stroke="white" stroke-width="0.5" stroke-linecap="round"/>
<path d="M20.9996 35.9825C20.9996 32.6785 23.7133 30 27.0608 30C30.4084 30 33.1221 32.6785 33.1221 35.9825" stroke="white" stroke-linecap="round"/>
<path d="M44.0098 33.3062L45.3088 35.5562H42.7107L44.0098 33.3062Z" fill="#4AD3F4"/>
<line x1="41.7598" y1="37.4644" x2="46.2598" y2="37.4644" stroke="white" stroke-width="0.5" stroke-linecap="round"/>
<path d="M37.9996 35.9825C37.9996 32.6785 40.7133 30 44.0608 30C47.4084 30 50.1221 32.6785 50.1221 35.9825" stroke="white" stroke-linecap="round"/>
<rect x="5" y="34" width="1" height="3" rx="0.5" fill="white"/>
<rect x="8" y="34" width="1" height="3" rx="0.5" fill="white"/>
<rect x="11" y="31" width="1" height="6" rx="0.5" fill="white"/>
<rect x="14" y="29" width="1" height="8" rx="0.5" fill="white"/>
<defs>
<linearGradient id="paint0_linear" x1="-0.00107689" y1="39.7896" x2="27.585" y2="-2.18438" gradientUnits="userSpaceOnUse">
<stop stop-color="#717186" stop-opacity="0.19"/>
<stop offset="1" stop-color="#101017"/>
</linearGradient>
</defs>
</svg>
