<svg width="981" height="450" viewBox="0 0 981 450" fill="none" xmlns="http://www.w3.org/2000/svg">
<rect x="708" width="273" height="450" fill="url(#paint0_linear)"/>
<line opacity="0.2" x1="-4.37114e-08" y1="0.5" x2="708" y2="0.499938" stroke="white"/>
<line opacity="0.2" x1="-4.37114e-08" y1="398.5" x2="708" y2="398.5" stroke="white"/>
<g opacity="0.7">
<path d="M786.856 119.469C786.802 119.708 786.679 119.887 786.488 120.007C786.287 120.124 786.061 120.154 785.812 120.095C785.563 120.037 785.378 119.911 785.258 119.719C785.127 119.524 785.088 119.307 785.142 119.068C785.197 118.828 785.324 118.65 785.526 118.533C785.719 118.403 785.941 118.367 786.19 118.425C786.439 118.484 786.628 118.616 786.757 118.821C786.877 119.013 786.91 119.229 786.856 119.469Z" fill="white"/>
<path d="M783.953 103.661L785.984 99.5779C786.512 98.5178 787.191 97.6917 788.021 97.0995C788.843 96.5025 789.744 96.1748 790.726 96.1164C791.699 96.0531 792.669 96.2704 793.636 96.7682C794.604 97.266 795.355 97.9346 795.891 98.7739C796.417 99.6083 796.691 100.541 796.714 101.573C796.728 102.599 796.471 103.642 795.943 104.703L793.912 108.785L783.953 103.661ZM795.004 104.291C795.441 103.413 795.653 102.556 795.639 101.721C795.616 100.882 795.391 100.124 794.965 99.4491C794.529 98.769 793.913 98.2239 793.116 97.8139C792.319 97.404 791.527 97.2243 790.74 97.2748C789.943 97.3205 789.209 97.5849 788.54 98.0682C787.861 98.5466 787.304 99.2251 786.866 100.104L785.391 103.069L793.529 107.257L795.004 104.291Z" fill="white"/>
<path d="M800.856 90.2488L796.718 95.944C797.455 96.4178 798.219 96.5722 799.011 96.4072C799.795 96.2358 800.46 95.7747 801.005 95.024C801.313 94.6012 801.522 94.1584 801.634 93.6957C801.738 93.2265 801.739 92.7535 801.637 92.2768L802.602 92.2013C802.74 92.7725 802.737 93.3572 802.593 93.9556C802.454 94.5453 802.187 95.112 801.792 95.6556C801.284 96.3545 800.688 96.8669 800.003 97.1926C799.316 97.5032 798.602 97.6141 797.863 97.5252C797.123 97.4362 796.425 97.145 795.769 96.6515C795.112 96.158 794.627 95.5733 794.314 94.8976C794.007 94.2133 793.891 93.5119 793.964 92.7935C794.045 92.0665 794.313 91.388 794.771 90.7581C795.229 90.1282 795.785 89.6719 796.438 89.3894C797.092 89.1068 797.782 89.0186 798.509 89.1248C799.228 89.2246 799.919 89.5245 800.584 90.0244L800.856 90.2488ZM795.551 91.3445C795.075 92.0003 794.882 92.7096 794.974 93.4724C795.064 94.2201 795.419 94.8741 796.04 95.4344L799.548 90.6065C798.839 90.167 798.117 90.0178 797.382 90.1588C796.644 90.2849 796.034 90.6801 795.551 91.3445Z" fill="white"/>
<path d="M807.115 89.5425C806.642 90.0342 806.119 90.4391 805.546 90.757C804.974 91.0596 804.459 91.2324 804.004 91.2752L803.724 90.2741C804.165 90.2162 804.634 90.0591 805.132 89.8029C805.623 89.5391 806.068 89.1998 806.468 88.7848C807.001 88.2316 807.31 87.7415 807.395 87.3146C807.48 86.8726 807.368 86.4972 807.058 86.1886C806.839 85.9703 806.598 85.874 806.337 85.8995C806.068 85.9176 805.796 86.0079 805.521 86.1705C805.238 86.3256 804.889 86.5575 804.473 86.8661C803.909 87.2676 803.438 87.573 803.058 87.7823C802.672 87.9842 802.261 88.0798 801.827 88.0691C801.401 88.0508 800.987 87.8421 800.587 87.4432C800.088 86.9464 799.883 86.3286 799.973 85.5899C800.062 84.8511 800.469 84.1052 801.194 83.3522C801.572 82.9603 802.002 82.6211 802.485 82.3345C802.961 82.0405 803.404 81.8495 803.814 81.7615L804.116 82.7624C803.295 82.9231 802.552 83.3493 801.886 84.0409C801.383 84.5634 801.093 85.0495 801.015 85.4991C800.945 85.941 801.057 86.3087 801.352 86.6023C801.579 86.8281 801.83 86.9357 802.107 86.9252C802.391 86.907 802.674 86.8204 802.957 86.6653C803.232 86.5026 803.592 86.2593 804.037 85.9351C804.594 85.5413 805.058 85.2436 805.43 85.0419C805.802 84.8403 806.197 84.7448 806.616 84.7556C807.035 84.7664 807.437 84.9638 807.823 85.3477C808.344 85.867 808.546 86.5039 808.426 87.2582C808.307 87.9972 807.87 88.7587 807.115 89.5425Z" fill="white"/>
<path d="M806.183 78.8876L807.058 78.164L812.31 84.7401L811.435 85.4636L806.183 78.8876ZM805.478 77.083C805.297 77.2325 805.095 77.2956 804.872 77.2725C804.649 77.2494 804.467 77.1503 804.328 76.9753C804.195 76.8086 804.14 76.6118 804.163 76.3849C804.187 76.158 804.289 75.9698 804.47 75.8203C804.651 75.6708 804.853 75.6077 805.076 75.6308C805.293 75.6455 805.467 75.7363 805.601 75.903C805.747 76.0863 805.808 76.2915 805.785 76.5184C805.761 76.7453 805.659 76.9335 805.478 77.083Z" fill="white"/>
<path d="M818.449 70.4385L822.288 76.7553C823.03 77.9767 823.281 79.0664 823.039 80.0245C822.813 80.986 822.103 81.8415 820.911 82.5909C820.252 83.0054 819.563 83.2997 818.846 83.4739C818.142 83.6515 817.5 83.6835 816.92 83.5699L816.958 82.525C817.49 82.6192 818.052 82.5996 818.645 82.4662C819.247 82.3271 819.819 82.0872 820.361 81.7466C821.264 81.1788 821.797 80.5473 821.961 79.8521C822.131 79.1659 821.944 78.3762 821.401 77.483L820.844 76.5669C820.823 77.21 820.641 77.8033 820.297 78.3469C819.963 78.8848 819.502 79.3383 818.915 79.7073C818.247 80.1275 817.549 80.3649 816.821 80.4195C816.096 80.4593 815.415 80.3143 814.778 79.9843C814.144 79.6396 813.622 79.1299 813.212 78.4554C812.802 77.7809 812.59 77.0828 812.575 76.3611C812.57 75.6337 812.75 74.9538 813.114 74.3215C813.479 73.6892 814 73.1601 814.677 72.7343C815.282 72.3539 815.903 72.1334 816.54 72.073C817.178 72.0125 817.786 72.121 818.367 72.3985L817.528 71.0176L818.449 70.4385ZM818.486 78.7863C819.001 78.4627 819.4 78.061 819.682 77.581C819.959 77.092 820.089 76.576 820.071 76.033C820.062 75.4843 819.902 74.9547 819.592 74.4443C819.281 73.9338 818.89 73.5564 818.417 73.3121C817.947 73.053 817.438 72.9446 816.89 72.987C816.345 73.0146 815.811 73.1931 815.287 73.5224C814.772 73.846 814.374 74.2478 814.091 74.7277C813.818 75.2019 813.686 75.7134 813.695 76.2621C813.713 76.8051 813.877 77.3318 814.187 77.8422C814.497 78.3527 814.887 78.7375 815.357 78.9966C815.835 79.2501 816.347 79.363 816.892 79.3354C817.44 79.293 817.972 79.11 818.486 78.7863Z" fill="white"/>
<path d="M825.583 67.3166C826.555 66.9039 827.443 66.8628 828.247 67.1933C829.057 67.5098 829.685 68.2108 830.131 69.2962L831.984 73.8107L830.938 74.2547L829.128 69.8438C828.796 69.0347 828.341 68.5034 827.764 68.25C827.188 67.9966 826.526 68.0283 825.78 68.3452C824.946 68.6995 824.386 69.2325 824.102 69.9442C823.823 70.6419 823.864 71.4299 824.225 72.3081L825.901 76.3933L824.856 76.8373L821.66 69.0517L822.662 68.6264L823.251 70.0622C823.341 69.4676 823.584 68.9358 823.979 68.4666C824.381 67.9834 824.915 67.6001 825.583 67.3166Z" fill="white"/>
<path d="M838.998 63.6572L840.118 63.464L841.503 71.7653L840.383 71.9585L838.998 63.6572ZM839.263 61.7443C839.032 61.7842 838.824 61.7389 838.64 61.6083C838.456 61.4777 838.346 61.3019 838.309 61.0809C838.274 60.8705 838.322 60.6728 838.453 60.4878C838.585 60.3027 838.766 60.1903 838.997 60.1503C839.229 60.1104 839.436 60.1558 839.62 60.2864C839.802 60.4065 839.911 60.5717 839.946 60.7822C839.985 61.0136 839.938 61.2219 839.807 61.4069C839.676 61.5919 839.494 61.7044 839.263 61.7443Z" fill="white"/>
<path d="M848.693 71.1459C848.012 71.1836 847.352 71.124 846.713 70.9671C846.085 70.7989 845.587 70.5754 845.219 70.2966L845.682 69.3736C846.049 69.6311 846.503 69.8356 847.045 69.9872C847.587 70.1282 848.145 70.1827 848.72 70.1509C849.487 70.1084 850.045 69.96 850.395 69.7056C850.755 69.44 850.923 69.0888 850.899 68.6521C850.883 68.3432 850.769 68.1092 850.557 67.95C850.345 67.7801 850.083 67.6611 849.769 67.593C849.455 67.5142 849.04 67.4464 848.524 67.3895C847.836 67.2994 847.281 67.2019 846.858 67.0971C846.436 66.9816 846.067 66.7724 845.751 66.4694C845.447 66.1657 845.279 65.7317 845.249 65.1671C845.211 64.4641 845.474 63.8728 846.035 63.393C846.597 62.9132 847.4 62.6444 848.444 62.5866C848.987 62.5565 849.534 62.601 850.085 62.7201C850.636 62.8285 851.093 62.9901 851.457 63.205L851.011 64.1431C850.293 63.7021 849.454 63.5081 848.496 63.5612C847.772 63.6013 847.23 63.7595 846.871 64.0358C846.522 64.3114 846.359 64.657 846.382 65.0724C846.399 65.3919 846.514 65.642 846.726 65.8225C846.949 66.0024 847.218 66.1318 847.532 66.2105C847.845 66.2786 848.276 66.3456 848.825 66.4114C849.502 66.5021 850.047 66.6001 850.459 66.7055C850.87 66.8109 851.228 67.0101 851.532 67.3031C851.836 67.5961 852.003 68.0142 852.032 68.5574C852.071 69.2923 851.794 69.8953 851.199 70.3662C850.615 70.8258 849.78 71.0857 848.693 71.1459Z" fill="white"/>
<path d="M868.48 69.3288L861.561 68.0271C861.468 68.8995 861.671 69.6595 862.171 70.3071C862.673 70.9443 863.38 71.3486 864.292 71.5202C864.806 71.6169 865.294 71.6164 865.756 71.5189C866.22 71.4108 866.642 71.208 867.021 70.9103L867.519 71.7528C867.072 72.1245 866.549 72.3736 865.952 72.4999C865.365 72.6282 864.741 72.6303 864.08 72.506C863.231 72.3463 862.509 72.0259 861.913 71.5448C861.33 71.0552 860.914 70.4559 860.663 69.7467C860.413 69.0375 860.361 68.2788 860.508 67.4708C860.655 66.6627 860.959 65.9711 861.422 65.396C861.895 64.8229 862.468 64.4151 863.14 64.1727C863.824 63.9323 864.548 63.884 865.313 64.028C866.079 64.172 866.733 64.4795 867.276 64.9507C867.819 65.4219 868.205 66.0102 868.435 66.7154C868.666 67.4102 868.707 68.1668 868.559 68.9854L868.48 69.3288ZM865.139 64.9882C864.342 64.8383 863.624 64.9692 862.986 65.3809C862.359 65.7841 861.935 66.388 861.713 67.1928L867.578 68.2962C867.654 67.4639 867.465 66.7445 867.011 66.1382C866.57 65.5234 865.946 65.1401 865.139 64.9882Z" fill="white"/>
<path d="M878.996 68.2534L872.799 75.0208L871.695 74.6407L870.826 65.4419L871.946 65.8272L872.663 73.6544L877.937 67.889L878.996 68.2534Z" fill="white"/>
<path d="M885.921 77.0525L879.665 73.8234C879.332 74.6354 879.313 75.4242 879.611 76.1899C879.913 76.946 880.476 77.5368 881.301 77.9625C881.765 78.2022 882.232 78.3413 882.702 78.3796C883.176 78.4084 883.637 78.3339 884.083 78.1562L884.323 79.1083C883.791 79.3379 883.222 79.4281 882.615 79.3787C882.017 79.3343 881.42 79.158 880.822 78.8498C880.055 78.4535 879.453 77.939 879.018 77.3062C878.597 76.6688 878.366 75.9734 878.325 75.22C878.283 74.4665 878.446 73.7223 878.813 72.9874C879.18 72.2525 879.665 71.6746 880.268 71.2539C880.881 70.838 881.543 70.6097 882.255 70.569C882.976 70.5331 883.682 70.6938 884.374 71.0509C885.066 71.4081 885.606 71.8908 885.994 72.4991C886.382 73.1073 886.587 73.7833 886.609 74.527C886.636 75.2611 886.464 76.0004 886.092 76.7448L885.921 77.0525ZM883.938 71.9242C883.218 71.5524 882.495 71.4731 881.769 71.6864C881.057 71.895 880.482 72.3544 880.044 73.0646L885.347 75.802C885.652 75.0233 885.673 74.2776 885.408 73.5651C885.158 72.8479 884.668 72.301 883.938 71.9242Z" fill="white"/>
<path d="M890.499 76.9026C891.034 76.5875 891.596 76.4607 892.186 76.5221C892.784 76.5896 893.402 76.8467 894.04 77.2934L893.421 78.2076L893.207 78.0383C892.482 77.5303 891.762 77.3578 891.046 77.5206C890.33 77.6834 889.698 78.1711 889.147 78.9837L886.743 82.5342L885.813 81.8825L890.531 74.9138L891.423 75.5381L890.499 76.9026Z" fill="white"/>
<path d="M902.451 84.8795L893.107 89.1068C892.332 89.4684 891.67 89.6221 891.12 89.5678C890.571 89.5136 890.064 89.2743 889.599 88.85C889.3 88.5766 889.062 88.2733 888.887 87.94C888.712 87.6067 888.614 87.2577 888.595 86.8932L889.546 86.6135C889.579 87.2211 889.816 87.7263 890.257 88.1291C890.54 88.388 890.851 88.5274 891.189 88.5473C891.535 88.5744 891.964 88.4752 892.476 88.2496L893.288 87.886L896.071 79.0532L896.945 79.8517L894.551 87.3496L901.624 84.1242L902.451 84.8795Z" fill="white"/>
<path d="M901.08 95.7129C900.797 95.6765 900.513 95.5713 900.226 95.3973C899.954 95.2244 899.707 95.0076 899.487 94.7471C898.977 94.1445 898.745 93.5399 898.79 92.9331C898.836 92.3264 899.151 91.7666 899.737 91.2537L903.566 87.9026L902.594 86.7545L903.317 86.1222L904.288 87.2703L905.673 86.0584L906.407 86.9256L905.022 88.1375L906.676 90.0918L905.953 90.724L904.3 88.7698L900.519 92.0788C900.142 92.409 899.932 92.7555 899.89 93.1185C899.863 93.4825 900.001 93.8437 900.304 94.2019C900.456 94.3811 900.628 94.5275 900.822 94.6412C901.023 94.763 901.228 94.8393 901.435 94.8701L901.08 95.7129Z" fill="white"/>
<path d="M911.713 97.4725C912.277 98.3646 912.467 99.2416 912.28 100.103C912.108 100.968 911.532 101.722 910.55 102.365L906.468 105.039L905.86 104.079L909.849 101.467C910.58 100.987 911.021 100.437 911.171 99.8164C911.32 99.1956 911.178 98.5428 910.745 97.8579C910.26 97.0919 909.647 96.6327 908.906 96.4802C908.181 96.3309 907.421 96.5163 906.627 97.0365L902.933 99.4564L902.325 98.4966L912.256 91.9911L912.864 92.9508L908.741 95.6512C909.317 95.6437 909.862 95.7967 910.376 96.1101C910.89 96.4236 911.336 96.8777 911.713 97.4725Z" fill="white"/>
<path d="M914.901 103.714L915.382 104.743L907.805 108.405L907.324 107.376L914.901 103.714ZM916.802 103.435C916.702 103.222 916.691 103.008 916.767 102.794C916.843 102.579 916.982 102.423 917.184 102.326C917.376 102.233 917.578 102.224 917.79 102.299C918.002 102.375 918.157 102.519 918.256 102.731C918.356 102.944 918.367 103.157 918.291 103.372C918.224 103.582 918.095 103.733 917.903 103.826C917.692 103.928 917.48 103.942 917.268 103.866C917.056 103.791 916.901 103.647 916.802 103.435Z" fill="white"/>
<path d="M919.012 114.392C919.334 115.398 919.296 116.292 918.898 117.076C918.513 117.867 917.764 118.447 916.65 118.816L912.018 120.352L911.671 119.27L916.197 117.77C917.027 117.494 917.593 117.076 917.895 116.515C918.197 115.955 918.224 115.288 917.976 114.516C917.7 113.653 917.222 113.053 916.543 112.716C915.877 112.386 915.093 112.371 914.192 112.67L910.001 114.059L909.654 112.978L917.642 110.329L917.974 111.365L916.501 111.853C917.082 111.987 917.587 112.269 918.016 112.7C918.459 113.137 918.791 113.701 919.012 114.392Z" fill="white"/>
<path d="M921.782 129.014L914.484 130.188C913.073 130.415 911.976 130.235 911.194 129.648C910.403 129.073 909.899 128.09 909.682 126.699C909.563 125.93 909.565 125.178 909.688 124.446C909.803 123.725 910.026 123.116 910.359 122.62L911.301 123.052C911.005 123.51 910.802 124.039 910.69 124.641C910.58 125.253 910.574 125.875 910.673 126.507C910.837 127.561 911.205 128.296 911.777 128.712C912.338 129.129 913.135 129.255 914.167 129.089L915.226 128.918C914.645 128.655 914.173 128.261 913.811 127.736C913.45 127.222 913.217 126.622 913.11 125.937C912.989 125.157 913.046 124.418 913.283 123.721C913.532 123.033 913.934 122.455 914.487 121.988C915.053 121.529 915.725 121.237 916.504 121.112C917.284 120.987 918.007 121.054 918.673 121.314C919.341 121.585 919.893 122.009 920.329 122.587C920.764 123.165 921.043 123.849 921.166 124.64C921.276 125.346 921.233 126.007 921.037 126.622C920.842 127.237 920.502 127.761 920.019 128.195L921.615 127.939L921.782 129.014ZM914.122 125.887C914.216 126.488 914.427 127.01 914.755 127.455C915.094 127.897 915.515 128.213 916.02 128.402C916.526 128.601 917.073 128.653 917.663 128.558C918.253 128.463 918.753 128.243 919.163 127.896C919.585 127.558 919.885 127.126 920.063 126.6C920.252 126.084 920.299 125.52 920.204 124.908C920.111 124.308 919.9 123.785 919.572 123.341C919.245 122.907 918.829 122.591 918.323 122.391C917.818 122.202 917.271 122.155 916.682 122.25C916.092 122.345 915.586 122.562 915.163 122.9C914.743 123.248 914.438 123.681 914.248 124.198C914.071 124.723 914.029 125.286 914.122 125.887Z" fill="white"/>
<path d="M791.162 135.874L791.718 140.4C791.863 141.575 791.752 142.641 791.386 143.6C791.031 144.557 790.461 145.337 789.675 145.938C788.9 146.539 787.972 146.905 786.892 147.038C785.812 147.171 784.818 147.041 783.91 146.647C783.013 146.252 782.27 145.634 781.683 144.793C781.107 143.95 780.746 142.942 780.602 141.766L780.045 137.241L791.162 135.874ZM781.61 141.578C781.73 142.552 782.026 143.381 782.496 144.064C782.978 144.747 783.582 145.247 784.309 145.566C785.047 145.884 785.86 145.988 786.75 145.879C787.639 145.77 788.398 145.472 789.026 144.986C789.665 144.499 790.129 143.867 790.421 143.09C790.723 142.311 790.814 141.435 790.694 140.461L790.29 137.174L781.206 138.291L781.61 141.578Z" fill="white"/>
<path d="M788.157 155.969L786.141 149.224C785.321 149.535 784.738 150.061 784.391 150.799C784.054 151.534 784.018 152.346 784.284 153.235C784.434 153.736 784.658 154.17 784.957 154.537C785.266 154.901 785.64 155.185 786.079 155.387L785.557 156.211C785.021 155.982 784.56 155.63 784.173 155.156C783.789 154.691 783.501 154.137 783.309 153.493C783.062 152.666 783.015 151.878 783.17 151.13C783.339 150.39 783.681 149.747 784.198 149.203C784.714 148.659 785.366 148.27 786.153 148.034C786.94 147.799 787.695 147.757 788.42 147.908C789.147 148.069 789.773 148.394 790.297 148.883C790.825 149.382 791.2 150.005 791.423 150.751C791.646 151.497 791.673 152.218 791.502 152.915C791.332 153.612 790.986 154.222 790.463 154.745C789.951 155.266 789.296 155.645 788.499 155.883L788.157 155.969ZM790.488 151.03C790.256 150.254 789.81 149.674 789.151 149.293C788.504 148.918 787.772 148.814 786.953 148.981L788.662 154.699C789.438 154.389 789.992 153.895 790.324 153.217C790.669 152.546 790.724 151.817 790.488 151.03Z" fill="white"/>
<path d="M786.764 162.036C786.48 161.416 786.295 160.779 786.207 160.127C786.135 159.48 786.161 158.934 786.286 158.49L787.314 158.583C787.208 159.019 787.183 159.517 787.24 160.077C787.307 160.633 787.46 161.173 787.699 161.697C788.019 162.395 788.36 162.861 788.725 163.093C789.103 163.33 789.491 163.358 789.889 163.176C790.17 163.048 790.346 162.856 790.417 162.6C790.498 162.341 790.513 162.052 790.462 161.736C790.42 161.414 790.332 161.003 790.197 160.502C790.029 159.828 789.917 159.275 789.861 158.844C789.814 158.408 789.874 157.987 790.041 157.583C790.212 157.188 790.555 156.873 791.069 156.638C791.709 156.345 792.355 156.372 793.006 156.719C793.658 157.067 794.201 157.716 794.635 158.666C794.861 159.161 795.02 159.687 795.11 160.244C795.21 160.796 795.227 161.281 795.16 161.699L794.124 161.627C794.272 160.797 794.147 159.945 793.748 159.072C793.446 158.412 793.101 157.966 792.713 157.733C792.329 157.51 791.949 157.484 791.57 157.657C791.279 157.79 791.088 157.989 790.998 158.253C790.912 158.527 790.89 158.825 790.931 159.146C790.982 159.463 791.077 159.888 791.216 160.423C791.379 161.087 791.487 161.631 791.539 162.052C791.591 162.474 791.536 162.88 791.375 163.271C791.213 163.662 790.885 163.97 790.39 164.196C789.721 164.502 789.059 164.465 788.404 164.084C787.763 163.708 787.216 163.026 786.764 162.036Z" fill="white"/>
<path d="M797.29 163.649L797.876 164.622L790.669 168.968L790.082 167.995L797.29 163.649ZM799.163 163.193C799.042 162.992 799.008 162.781 799.063 162.562C799.117 162.342 799.24 162.175 799.432 162.059C799.615 161.949 799.816 161.921 800.036 161.975C800.255 162.03 800.426 162.157 800.547 162.358C800.668 162.559 800.701 162.77 800.647 162.989C800.602 163.203 800.488 163.366 800.305 163.476C800.104 163.597 799.894 163.63 799.674 163.576C799.454 163.521 799.284 163.394 799.163 163.193Z" fill="white"/>
<path d="M805.561 174.904L799.772 179.501C798.652 180.39 797.606 180.771 796.634 180.644C795.66 180.532 794.735 179.925 793.86 178.822C793.375 178.212 793.006 177.559 792.752 176.861C792.497 176.179 792.391 175.541 792.437 174.946L793.472 174.86C793.44 175.403 793.524 175.963 793.723 176.54C793.929 177.126 794.231 177.669 794.629 178.17C795.292 179.006 795.976 179.464 796.681 179.545C797.377 179.632 798.134 179.351 798.953 178.701L799.792 178.034C799.156 178.09 798.55 177.979 797.974 177.7C797.405 177.43 796.906 177.023 796.474 176.48C795.984 175.862 795.67 175.192 795.532 174.47C795.41 173.75 795.475 173.052 795.727 172.375C795.995 171.699 796.437 171.116 797.056 170.625C797.674 170.134 798.338 169.839 799.048 169.738C799.765 169.646 800.455 169.744 801.121 170.033C801.786 170.322 802.367 170.78 802.865 171.406C803.309 171.966 803.598 172.561 803.73 173.191C803.863 173.821 803.826 174.443 803.619 175.057L804.884 174.052L805.561 174.904ZM797.333 175.941C797.712 176.417 798.153 176.768 798.659 176.993C799.173 177.211 799.697 177.279 800.23 177.196C800.77 177.122 801.274 176.898 801.742 176.527C802.209 176.156 802.537 175.719 802.724 175.216C802.925 174.716 802.974 174.194 802.869 173.65C802.78 173.108 802.542 172.595 802.158 172.111C801.78 171.635 801.338 171.284 800.832 171.059C800.333 170.842 799.814 170.771 799.274 170.846C798.74 170.929 798.24 171.156 797.772 171.527C797.304 171.899 796.969 172.335 796.768 172.836C796.573 173.345 796.52 173.87 796.609 174.412C796.714 174.955 796.955 175.465 797.333 175.941Z" fill="white"/>
<path d="M810.487 179.139C811.266 179.852 811.675 180.646 811.713 181.52C811.767 182.393 811.397 183.263 810.605 184.128L807.309 187.727L806.471 186.959L809.691 183.443C810.282 182.798 810.571 182.159 810.558 181.525C810.546 180.892 810.24 180.301 809.642 179.753C808.974 179.141 808.259 178.855 807.498 178.896C806.753 178.937 806.059 179.307 805.418 180.007L802.436 183.263L801.598 182.496L807.282 176.29L808.084 177.025L807.036 178.169C807.61 178.001 808.191 177.998 808.78 178.161C809.383 178.323 809.953 178.649 810.487 179.139Z" fill="white"/>
<path d="M820.255 185.974L821.244 186.533L817.105 193.861L816.116 193.302L820.255 185.974ZM821.661 184.655C821.457 184.54 821.325 184.373 821.264 184.155C821.203 183.937 821.228 183.731 821.338 183.536C821.443 183.35 821.605 183.227 821.823 183.166C822.041 183.105 822.252 183.133 822.456 183.248C822.661 183.364 822.793 183.53 822.854 183.748C822.92 183.957 822.9 184.154 822.795 184.34C822.68 184.544 822.513 184.677 822.295 184.737C822.077 184.798 821.866 184.771 821.661 184.655Z" fill="white"/>
<path d="M824.565 197.467C823.936 197.2 823.37 196.856 822.865 196.434C822.374 196.006 822.025 195.586 821.817 195.174L822.638 194.549C822.854 194.941 823.172 195.325 823.593 195.7C824.017 196.065 824.495 196.36 825.025 196.584C825.733 196.884 826.299 196.996 826.724 196.921C827.164 196.841 827.469 196.599 827.639 196.196C827.76 195.912 827.76 195.651 827.64 195.415C827.524 195.169 827.34 194.946 827.089 194.747C826.841 194.538 826.498 194.295 826.06 194.016C825.481 193.632 825.025 193.3 824.692 193.02C824.363 192.731 824.123 192.38 823.973 191.969C823.833 191.562 823.873 191.098 824.093 190.578C824.367 189.929 824.862 189.513 825.577 189.329C826.292 189.145 827.131 189.257 828.093 189.665C828.594 189.877 829.066 190.158 829.509 190.507C829.956 190.847 830.296 191.193 830.528 191.547L829.716 192.193C829.265 191.481 828.597 190.938 827.713 190.564C827.045 190.281 826.489 190.185 826.046 190.275C825.612 190.369 825.314 190.608 825.152 190.991C825.027 191.286 825.02 191.561 825.132 191.817C825.254 192.077 825.438 192.311 825.686 192.52C825.937 192.719 826.295 192.969 826.759 193.27C827.327 193.649 827.774 193.977 828.097 194.253C828.42 194.529 828.654 194.866 828.799 195.263C828.944 195.66 828.91 196.109 828.698 196.61C828.411 197.288 827.897 197.707 827.157 197.869C826.431 198.025 825.567 197.891 824.565 197.467Z" fill="white"/>
<path d="M845.921 198.714L838.974 197.57C838.896 198.444 839.112 199.198 839.623 199.834C840.137 200.459 840.851 200.847 841.767 200.998C842.283 201.082 842.771 201.071 843.232 200.963C843.695 200.845 844.113 200.632 844.488 200.327L845 201.157C844.559 201.538 844.04 201.799 843.444 201.938C842.859 202.08 842.235 202.096 841.572 201.987C840.719 201.847 839.991 201.543 839.387 201.076C838.795 200.6 838.367 200.011 838.105 199.308C837.842 198.606 837.777 197.849 837.911 197.039C838.044 196.228 838.337 195.531 838.79 194.946C839.254 194.363 839.82 193.942 840.49 193.685C841.169 193.429 841.894 193.365 842.662 193.491C843.43 193.618 844.09 193.91 844.642 194.368C845.193 194.827 845.59 195.405 845.832 196.105C846.075 196.793 846.129 197.548 845.994 198.369L845.921 198.714ZM842.503 194.454C841.703 194.323 840.987 194.47 840.355 194.895C839.735 195.312 839.321 195.925 839.112 196.734L845.001 197.703C845.062 196.87 844.861 196.156 844.397 195.56C843.945 194.956 843.314 194.588 842.503 194.454Z" fill="white"/>
<path d="M855.784 194.222L851.874 202.562L850.706 202.539L847.145 194.051L848.329 194.074L851.339 201.303L854.664 194.2L855.784 194.222Z" fill="white"/>
<path d="M865.251 197.458L858.265 198.325C858.436 199.186 858.857 199.848 859.528 200.313C860.197 200.767 860.992 200.937 861.913 200.823C862.431 200.758 862.896 200.609 863.308 200.375C863.718 200.131 864.06 199.809 864.333 199.41L865.059 200.061C864.743 200.552 864.32 200.948 863.788 201.251C863.266 201.552 862.672 201.744 862.005 201.827C861.148 201.934 860.363 201.848 859.652 201.571C858.949 201.282 858.373 200.838 857.922 200.238C857.471 199.639 857.195 198.931 857.094 198.116C856.993 197.301 857.077 196.549 857.346 195.86C857.626 195.17 858.05 194.606 858.619 194.17C859.199 193.733 859.875 193.466 860.648 193.37C861.421 193.274 862.137 193.368 862.795 193.651C863.454 193.935 863.998 194.378 864.428 194.98C864.856 195.572 865.121 196.281 865.224 197.106L865.251 197.458ZM860.769 194.338C859.964 194.438 859.319 194.782 858.833 195.369C858.356 195.944 858.132 196.649 858.16 197.484L864.083 196.748C863.906 195.932 863.511 195.304 862.898 194.864C862.293 194.412 861.584 194.237 860.769 194.338Z" fill="white"/>
<path d="M868.099 193.53C868.213 192.916 868.487 192.403 868.919 191.991C869.362 191.577 869.959 191.271 870.712 191.073L870.993 192.141L870.726 192.194C869.87 192.419 869.268 192.859 868.922 193.512C868.575 194.166 868.527 194.967 868.776 195.916L869.866 200.064L868.768 200.352L866.628 192.213L867.68 191.936L868.099 193.53Z" fill="white"/>
<path d="M880.295 187.315L879.94 197.63C879.921 198.49 879.766 199.157 879.475 199.632C879.184 200.107 878.747 200.463 878.164 200.699C877.789 200.852 877.414 200.935 877.039 200.949C876.665 200.962 876.311 200.899 875.978 200.758L876.148 199.774C876.704 200.008 877.258 200.014 877.812 199.789C878.168 199.644 878.429 199.423 878.596 199.125C878.773 198.823 878.873 198.391 878.898 197.828L878.932 196.934L872.289 190.565L873.386 190.119L879.011 195.555L879.257 187.736L880.295 187.315Z" fill="white"/>
<path d="M889.396 190.995C889.305 191.267 889.146 191.528 888.92 191.778C888.697 192.014 888.438 192.216 888.141 192.384C887.453 192.772 886.819 192.885 886.238 192.723C885.656 192.562 885.174 192.142 884.791 191.464L882.289 187.034L880.98 187.773L880.507 186.937L881.817 186.198L880.912 184.596L881.901 184.037L882.806 185.639L885.035 184.38L885.507 185.216L883.278 186.475L885.749 190.849C885.995 191.286 886.291 191.56 886.636 191.672C886.985 191.769 887.363 191.702 887.772 191.471C887.976 191.355 888.153 191.213 888.302 191.043C888.46 190.868 888.575 190.68 888.646 190.481L889.396 190.995Z" fill="white"/>
<path d="M891.327 179.685C892.167 179.044 893.02 178.781 893.887 178.897C894.756 178.998 895.547 179.515 896.259 180.447L899.223 184.325L898.32 185.014L895.425 181.226C894.894 180.531 894.315 180.134 893.689 180.035C893.063 179.936 892.428 180.133 891.784 180.625C891.064 181.176 890.657 181.829 890.563 182.585C890.472 183.326 890.714 184.074 891.291 184.828L893.972 188.337L893.07 189.027L885.861 179.594L886.763 178.904L889.756 182.82C889.704 182.242 889.813 181.682 890.083 181.14C890.353 180.598 890.768 180.113 891.327 179.685Z" fill="white"/>
<path d="M895.574 175.867L896.38 175.067L902.306 181.044L901.499 181.844L895.574 175.867ZM894.687 174.155C894.521 174.32 894.324 174.402 894.098 174.401C893.872 174.4 893.68 174.32 893.522 174.161C893.372 174.01 893.297 173.821 893.298 173.595C893.299 173.368 893.383 173.173 893.55 173.007C893.716 172.842 893.913 172.76 894.139 172.761C894.358 172.754 894.542 172.827 894.692 172.978C894.858 173.145 894.94 173.341 894.939 173.568C894.938 173.794 894.854 173.99 894.687 174.155Z" fill="white"/>
<path d="M902.355 167.896C903.004 167.063 903.762 166.592 904.63 166.484C905.497 166.36 906.393 166.659 907.319 167.379L911.171 170.376L910.473 171.272L906.71 168.345C906.019 167.808 905.359 167.571 904.728 167.634C904.098 167.698 903.534 168.049 903.036 168.689C902.479 169.405 902.252 170.14 902.354 170.895C902.454 171.635 902.878 172.297 903.627 172.88L907.113 175.591L906.415 176.488L899.773 171.32L900.441 170.461L901.666 171.414C901.452 170.856 901.402 170.277 901.517 169.677C901.631 169.062 901.91 168.469 902.355 167.896Z" fill="white"/>
<path d="M909.252 156.345L915.729 159.908C916.981 160.597 917.737 161.415 917.995 162.361C918.269 163.302 918.066 164.39 917.387 165.624C917.012 166.306 916.552 166.899 916.007 167.402C915.476 167.902 914.928 168.246 914.362 168.433L913.883 167.512C914.396 167.332 914.88 167.038 915.335 166.631C915.796 166.215 916.18 165.726 916.488 165.166C917.003 164.231 917.161 163.423 916.963 162.742C916.775 162.067 916.223 161.477 915.307 160.973L914.368 160.456C914.666 161.022 914.797 161.624 914.762 162.262C914.733 162.891 914.551 163.509 914.217 164.117C913.836 164.808 913.34 165.357 912.727 165.762C912.11 166.153 911.441 166.363 910.719 166.392C909.992 166.407 909.283 166.223 908.592 165.843C907.9 165.462 907.371 164.964 907.004 164.348C906.642 163.723 906.465 163.048 906.475 162.322C906.484 161.597 906.682 160.884 907.067 160.183C907.412 159.557 907.849 159.061 908.379 158.695C908.909 158.329 909.497 158.123 910.144 158.077L908.728 157.298L909.252 156.345ZM913.388 163.533C913.681 163 913.833 162.457 913.846 161.904C913.848 161.345 913.709 160.836 913.426 160.376C913.148 159.907 912.748 159.528 912.225 159.24C911.701 158.952 911.172 158.819 910.636 158.841C910.097 158.849 909.596 159.006 909.135 159.312C908.67 159.604 908.289 160.021 907.991 160.563C907.697 161.096 907.545 161.639 907.533 162.192C907.526 162.736 907.661 163.243 907.938 163.712C908.221 164.172 908.624 164.546 909.147 164.834C909.671 165.122 910.202 165.262 910.742 165.255C911.287 165.238 911.792 165.083 912.257 164.791C912.718 164.485 913.095 164.065 913.388 163.533Z" fill="white"/>
<path d="M918.197 142.659C918.154 142.9 918.04 143.086 917.854 143.215C917.658 143.343 917.434 143.384 917.182 143.339C916.93 143.294 916.739 143.178 916.61 142.993C916.47 142.805 916.421 142.591 916.465 142.349C916.508 142.108 916.627 141.923 916.824 141.796C917.011 141.656 917.231 141.608 917.483 141.653C917.735 141.698 917.93 141.82 918.068 142.018C918.197 142.204 918.24 142.417 918.197 142.659Z" fill="white"/>
<path fill-rule="evenodd" clip-rule="evenodd" d="M851.431 110.183C859.188 110.183 865.141 112.069 869.29 115.843C873.438 119.616 875.513 124.864 875.513 131.587C875.513 138.309 873.49 143.629 869.445 147.547C865.401 151.465 859.23 153.424 850.933 153.424H836.061V110.183H851.431Z" fill="url(#paint1_linear)"/>
<path fill-rule="evenodd" clip-rule="evenodd" d="M841.566 124.8C845.896 126.134 850.121 131.511 854.092 134.759C865.362 143.976 872.829 143.168 872.829 143.168C872.829 143.168 867.266 153.424 857.056 153.424C846.846 153.424 836.039 153.424 836.039 153.424V138.045C836.039 138.045 835.523 132.185 831.496 129.507C827.469 126.828 827.182 125.899 827.182 124.8C827.182 123.701 837.703 123.61 841.566 124.8Z" fill="url(#paint2_linear)"/>
</g>
<defs>
<linearGradient id="paint0_linear" x1="666.577" y1="143.343" x2="801.092" y2="346.194" gradientUnits="userSpaceOnUse">
<stop stop-color="#13E5EC"/>
<stop offset="1" stop-color="#472BDA" stop-opacity="0.01"/>
</linearGradient>
<linearGradient id="paint1_linear" x1="887.658" y1="122.393" x2="850.072" y2="98.9838" gradientUnits="userSpaceOnUse">
<stop stop-color="white"/>
<stop offset="1" stop-color="#0855AA" stop-opacity="0.0629097"/>
</linearGradient>
<linearGradient id="paint2_linear" x1="880.993" y1="135.621" x2="860.088" y2="107.783" gradientUnits="userSpaceOnUse">
<stop stop-color="white"/>
<stop offset="1" stop-color="white"/>
</linearGradient>
</defs>
</svg>
