<svg width="54" height="44" viewBox="0 0 54 44" fill="none" xmlns="http://www.w3.org/2000/svg">
<path fill-rule="evenodd" clip-rule="evenodd" d="M33.4805 9.17995C33.4805 12.7588 30.5793 15.66 27.0005 15.66C23.4217 15.66 20.5205 12.7588 20.5205 9.17995C20.5205 5.60115 23.4217 2.69995 27.0005 2.69995C30.5793 2.69995 33.4805 5.60115 33.4805 9.17995ZM15.6602 34.02C15.6602 37.5988 12.759 40.5 9.1802 40.5C5.60139 40.5 2.7002 37.5988 2.7002 34.02C2.7002 30.4412 5.60139 27.54 9.1802 27.54C12.759 27.54 15.6602 30.4412 15.6602 34.02ZM44.82 40.5C48.3988 40.5 51.3 37.5988 51.3 34.02C51.3 30.4412 48.3988 27.54 44.82 27.54C41.2412 27.54 38.34 30.4412 38.34 34.02C38.34 37.5988 41.2412 40.5 44.82 40.5Z" fill="url(#paint0_linear)"/>
<path fill-rule="evenodd" clip-rule="evenodd" d="M14.2178 24.3382L19.2351 16.6506L21.044 17.8312L16.0266 25.5188L14.2178 24.3382ZM38.0709 25.77L33.4809 17.8199L35.3515 16.7399L39.9415 24.69L38.0709 25.77ZM19.9807 35.64L34.5607 35.64V33.48L19.9807 33.48V35.64Z" fill="#4AD3F4"/>
<path fill-rule="evenodd" clip-rule="evenodd" d="M27.0003 17.36C31.518 17.36 35.1803 13.6977 35.1803 9.18C35.1803 4.66231 31.518 1 27.0003 1C22.4826 1 18.8203 4.66231 18.8203 9.18C18.8203 13.6977 22.4826 17.36 27.0003 17.36ZM27.0003 18.36C32.0703 18.36 36.1803 14.25 36.1803 9.18C36.1803 4.11003 32.0703 0 27.0003 0C21.9303 0 17.8203 4.11003 17.8203 9.18C17.8203 14.25 21.9303 18.36 27.0003 18.36ZM9.18 42.2C13.6977 42.2 17.36 38.5377 17.36 34.02C17.36 29.5023 13.6977 25.84 9.18 25.84C4.66231 25.84 1 29.5023 1 34.02C1 38.5377 4.66231 42.2 9.18 42.2ZM9.18 43.2C14.25 43.2 18.36 39.09 18.36 34.02C18.36 28.9501 14.25 24.84 9.18 24.84C4.11003 24.84 0 28.9501 0 34.02C0 39.09 4.11003 43.2 9.18 43.2ZM52.9998 34.02C52.9998 38.5377 49.3375 42.2 44.8198 42.2C40.3022 42.2 36.6398 38.5377 36.6398 34.02C36.6398 29.5023 40.3022 25.84 44.8198 25.84C49.3375 25.84 52.9998 29.5023 52.9998 34.02ZM53.9998 34.02C53.9998 39.09 49.8898 43.2 44.8198 43.2C39.7499 43.2 35.6398 39.09 35.6398 34.02C35.6398 28.9501 39.7499 24.84 44.8198 24.84C49.8898 24.84 53.9998 28.9501 53.9998 34.02Z" fill="url(#paint1_linear)"/>
<circle cx="14.0399" cy="26.46" r="2.16" fill="#4AD3F4"/>
<circle cx="39.9598" cy="26.46" r="2.16" fill="#4AD3F4"/>
<circle cx="35.6395" cy="34.5599" r="2.16" fill="#4AD3F4"/>
<circle cx="18.3602" cy="34.5599" r="2.16" fill="#4AD3F4"/>
<circle cx="21.0604" cy="15.66" r="2.16" fill="#4AD3F4"/>
<circle cx="33.4803" cy="15.66" r="2.16" fill="#4AD3F4"/>
<defs>
<linearGradient id="paint0_linear" x1="3.77892" y1="35.9498" x2="22.0689" y2="-4.3417" gradientUnits="userSpaceOnUse">
<stop stop-color="#717186" stop-opacity="0.19"/>
<stop offset="1" stop-color="#101017"/>
</linearGradient>
<linearGradient id="paint1_linear" x1="3.85121e-07" y1="38.8801" x2="27.8358" y2="-3.20081" gradientUnits="userSpaceOnUse">
<stop stop-color="#717186" stop-opacity="0.19"/>
<stop offset="1" stop-color="#101017"/>
</linearGradient>
</defs>
</svg>
