<?xml version="1.0" encoding="UTF-8"?>
<svg width="1400px" height="935px" viewBox="0 0 1400 935" version="1.1" xmlns="http://www.w3.org/2000/svg" xmlns:xlink="http://www.w3.org/1999/xlink">
    <!-- Generator: Sketch 55.2 (78181) - https://sketchapp.com -->
    <title>Combined Shape</title>
    <desc>Created with Sketch.</desc>
    <g id="Page-1" stroke="none" stroke-width="1" fill="none" fill-rule="evenodd" opacity="0.082455">
        <g id="home-copy-4" transform="translate(-40.000000, -1378.000000)" fill="#A3A3A3">
            <path d="M-27,1378 L-23,1378 L-23,1382 L-27,1382 L-27,1378 Z M-27,1445 L-23,1445 L-23,1449 L-27,1449 L-27,1445 Z M-27,1511 L-23,1511 L-23,1515 L-27,1515 L-27,1511 Z M-27,1577 L-23,1577 L-23,1581 L-27,1581 L-27,1577 Z M-27,1644 L-23,1644 L-23,1648 L-27,1648 L-27,1644 Z M-27,1711 L-23,1711 L-23,1715 L-27,1715 L-27,1711 Z M-27,1777 L-23,1777 L-23,1781 L-27,1781 L-27,1777 Z M-27,1844 L-23,1844 L-23,1848 L-27,1848 L-27,1844 Z M-27,1910 L-23,1910 L-23,1914 L-27,1914 L-27,1910 Z M-27,1976 L-23,1976 L-23,1980 L-27,1980 L-27,1976 Z M-27,2043 L-23,2043 L-23,2047 L-27,2047 L-27,2043 Z M-27,2110 L-23,2110 L-23,2114 L-27,2114 L-27,2110 Z M-27,2176 L-23,2176 L-23,2180 L-27,2180 L-27,2176 Z M-27,2242 L-23,2242 L-23,2246 L-27,2246 L-27,2242 Z M-27,2309 L-23,2309 L-23,2313 L-27,2313 L-27,2309 Z M40,1378 L44,1378 L44,1382 L40,1382 L40,1378 Z M40,1445 L44,1445 L44,1449 L40,1449 L40,1445 Z M40,1511 L44,1511 L44,1515 L40,1515 L40,1511 Z M40,1577 L44,1577 L44,1581 L40,1581 L40,1577 Z M40,1644 L44,1644 L44,1648 L40,1648 L40,1644 Z M40,1711 L44,1711 L44,1715 L40,1715 L40,1711 Z M40,1777 L44,1777 L44,1781 L40,1781 L40,1777 Z M40,1844 L44,1844 L44,1848 L40,1848 L40,1844 Z M40,1910 L44,1910 L44,1914 L40,1914 L40,1910 Z M40,1976 L44,1976 L44,1980 L40,1980 L40,1976 Z M40,2043 L44,2043 L44,2047 L40,2047 L40,2043 Z M40,2110 L44,2110 L44,2114 L40,2114 L40,2110 Z M40,2176 L44,2176 L44,2180 L40,2180 L40,2176 Z M40,2242 L44,2242 L44,2246 L40,2246 L40,2242 Z M40,2309 L44,2309 L44,2313 L40,2313 L40,2309 Z M106,1378 L110,1378 L110,1382 L106,1382 L106,1378 Z M106,1445 L110,1445 L110,1449 L106,1449 L106,1445 Z M106,1511 L110,1511 L110,1515 L106,1515 L106,1511 Z M106,1577 L110,1577 L110,1581 L106,1581 L106,1577 Z M106,1644 L110,1644 L110,1648 L106,1648 L106,1644 Z M106,1711 L110,1711 L110,1715 L106,1715 L106,1711 Z M106,1777 L110,1777 L110,1781 L106,1781 L106,1777 Z M106,1844 L110,1844 L110,1848 L106,1848 L106,1844 Z M106,1910 L110,1910 L110,1914 L106,1914 L106,1910 Z M106,1976 L110,1976 L110,1980 L106,1980 L106,1976 Z M106,2043 L110,2043 L110,2047 L106,2047 L106,2043 Z M106,2110 L110,2110 L110,2114 L106,2114 L106,2110 Z M106,2176 L110,2176 L110,2180 L106,2180 L106,2176 Z M106,2242 L110,2242 L110,2246 L106,2246 L106,2242 Z M106,2309 L110,2309 L110,2313 L106,2313 L106,2309 Z M172,1378 L176,1378 L176,1382 L172,1382 L172,1378 Z M172,1445 L176,1445 L176,1449 L172,1449 L172,1445 Z M172,1511 L176,1511 L176,1515 L172,1515 L172,1511 Z M172,1577 L176,1577 L176,1581 L172,1581 L172,1577 Z M172,1644 L176,1644 L176,1648 L172,1648 L172,1644 Z M172,1711 L176,1711 L176,1715 L172,1715 L172,1711 Z M172,1777 L176,1777 L176,1781 L172,1781 L172,1777 Z M172,1844 L176,1844 L176,1848 L172,1848 L172,1844 Z M172,1910 L176,1910 L176,1914 L172,1914 L172,1910 Z M172,1976 L176,1976 L176,1980 L172,1980 L172,1976 Z M172,2043 L176,2043 L176,2047 L172,2047 L172,2043 Z M172,2110 L176,2110 L176,2114 L172,2114 L172,2110 Z M172,2176 L176,2176 L176,2180 L172,2180 L172,2176 Z M172,2242 L176,2242 L176,2246 L172,2246 L172,2242 Z M172,2309 L176,2309 L176,2313 L172,2313 L172,2309 Z M239,1378 L243,1378 L243,1382 L239,1382 L239,1378 Z M239,1445 L243,1445 L243,1449 L239,1449 L239,1445 Z M239,1511 L243,1511 L243,1515 L239,1515 L239,1511 Z M239,1577 L243,1577 L243,1581 L239,1581 L239,1577 Z M239,1644 L243,1644 L243,1648 L239,1648 L239,1644 Z M239,1711 L243,1711 L243,1715 L239,1715 L239,1711 Z M239,1777 L243,1777 L243,1781 L239,1781 L239,1777 Z M239,1844 L243,1844 L243,1848 L239,1848 L239,1844 Z M239,1910 L243,1910 L243,1914 L239,1914 L239,1910 Z M239,1976 L243,1976 L243,1980 L239,1980 L239,1976 Z M239,2043 L243,2043 L243,2047 L239,2047 L239,2043 Z M239,2110 L243,2110 L243,2114 L239,2114 L239,2110 Z M239,2176 L243,2176 L243,2180 L239,2180 L239,2176 Z M239,2242 L243,2242 L243,2246 L239,2246 L239,2242 Z M239,2309 L243,2309 L243,2313 L239,2313 L239,2309 Z M306,1378 L310,1378 L310,1382 L306,1382 L306,1378 Z M306,1445 L310,1445 L310,1449 L306,1449 L306,1445 Z M306,1511 L310,1511 L310,1515 L306,1515 L306,1511 Z M306,1577 L310,1577 L310,1581 L306,1581 L306,1577 Z M306,1644 L310,1644 L310,1648 L306,1648 L306,1644 Z M306,1711 L310,1711 L310,1715 L306,1715 L306,1711 Z M306,1777 L310,1777 L310,1781 L306,1781 L306,1777 Z M306,1844 L310,1844 L310,1848 L306,1848 L306,1844 Z M306,1910 L310,1910 L310,1914 L306,1914 L306,1910 Z M306,1976 L310,1976 L310,1980 L306,1980 L306,1976 Z M306,2043 L310,2043 L310,2047 L306,2047 L306,2043 Z M306,2110 L310,2110 L310,2114 L306,2114 L306,2110 Z M306,2176 L310,2176 L310,2180 L306,2180 L306,2176 Z M306,2242 L310,2242 L310,2246 L306,2246 L306,2242 Z M306,2309 L310,2309 L310,2313 L306,2313 L306,2309 Z M372,1378 L376,1378 L376,1382 L372,1382 L372,1378 Z M372,1445 L376,1445 L376,1449 L372,1449 L372,1445 Z M372,1511 L376,1511 L376,1515 L372,1515 L372,1511 Z M372,1577 L376,1577 L376,1581 L372,1581 L372,1577 Z M372,1644 L376,1644 L376,1648 L372,1648 L372,1644 Z M372,1711 L376,1711 L376,1715 L372,1715 L372,1711 Z M372,1777 L376,1777 L376,1781 L372,1781 L372,1777 Z M372,1844 L376,1844 L376,1848 L372,1848 L372,1844 Z M372,1910 L376,1910 L376,1914 L372,1914 L372,1910 Z M372,1976 L376,1976 L376,1980 L372,1980 L372,1976 Z M372,2043 L376,2043 L376,2047 L372,2047 L372,2043 Z M372,2110 L376,2110 L376,2114 L372,2114 L372,2110 Z M372,2176 L376,2176 L376,2180 L372,2180 L372,2176 Z M372,2242 L376,2242 L376,2246 L372,2246 L372,2242 Z M372,2309 L376,2309 L376,2313 L372,2313 L372,2309 Z M438,1378 L442,1378 L442,1382 L438,1382 L438,1378 Z M438,1445 L442,1445 L442,1449 L438,1449 L438,1445 Z M438,1511 L442,1511 L442,1515 L438,1515 L438,1511 Z M438,1577 L442,1577 L442,1581 L438,1581 L438,1577 Z M438,1644 L442,1644 L442,1648 L438,1648 L438,1644 Z M438,1711 L442,1711 L442,1715 L438,1715 L438,1711 Z M438,1777 L442,1777 L442,1781 L438,1781 L438,1777 Z M438,1844 L442,1844 L442,1848 L438,1848 L438,1844 Z M438,1910 L442,1910 L442,1914 L438,1914 L438,1910 Z M438,1976 L442,1976 L442,1980 L438,1980 L438,1976 Z M438,2043 L442,2043 L442,2047 L438,2047 L438,2043 Z M438,2110 L442,2110 L442,2114 L438,2114 L438,2110 Z M438,2176 L442,2176 L442,2180 L438,2180 L438,2176 Z M438,2242 L442,2242 L442,2246 L438,2246 L438,2242 Z M438,2309 L442,2309 L442,2313 L438,2313 L438,2309 Z M505,1378 L509,1378 L509,1382 L505,1382 L505,1378 Z M505,1445 L509,1445 L509,1449 L505,1449 L505,1445 Z M505,1511 L509,1511 L509,1515 L505,1515 L505,1511 Z M505,1577 L509,1577 L509,1581 L505,1581 L505,1577 Z M505,1644 L509,1644 L509,1648 L505,1648 L505,1644 Z M505,1711 L509,1711 L509,1715 L505,1715 L505,1711 Z M505,1777 L509,1777 L509,1781 L505,1781 L505,1777 Z M505,1844 L509,1844 L509,1848 L505,1848 L505,1844 Z M505,1910 L509,1910 L509,1914 L505,1914 L505,1910 Z M505,1976 L509,1976 L509,1980 L505,1980 L505,1976 Z M505,2043 L509,2043 L509,2047 L505,2047 L505,2043 Z M505,2110 L509,2110 L509,2114 L505,2114 L505,2110 Z M505,2176 L509,2176 L509,2180 L505,2180 L505,2176 Z M505,2242 L509,2242 L509,2246 L505,2246 L505,2242 Z M505,2309 L509,2309 L509,2313 L505,2313 L505,2309 Z M572,1378 L576,1378 L576,1382 L572,1382 L572,1378 Z M572,1445 L576,1445 L576,1449 L572,1449 L572,1445 Z M572,1511 L576,1511 L576,1515 L572,1515 L572,1511 Z M572,1577 L576,1577 L576,1581 L572,1581 L572,1577 Z M572,1644 L576,1644 L576,1648 L572,1648 L572,1644 Z M572,1711 L576,1711 L576,1715 L572,1715 L572,1711 Z M572,1777 L576,1777 L576,1781 L572,1781 L572,1777 Z M572,1844 L576,1844 L576,1848 L572,1848 L572,1844 Z M572,1910 L576,1910 L576,1914 L572,1914 L572,1910 Z M572,1976 L576,1976 L576,1980 L572,1980 L572,1976 Z M572,2043 L576,2043 L576,2047 L572,2047 L572,2043 Z M572,2110 L576,2110 L576,2114 L572,2114 L572,2110 Z M572,2176 L576,2176 L576,2180 L572,2180 L572,2176 Z M572,2242 L576,2242 L576,2246 L572,2246 L572,2242 Z M572,2309 L576,2309 L576,2313 L572,2313 L572,2309 Z M638,1378 L642,1378 L642,1382 L638,1382 L638,1378 Z M638,1445 L642,1445 L642,1449 L638,1449 L638,1445 Z M638,1511 L642,1511 L642,1515 L638,1515 L638,1511 Z M638,1577 L642,1577 L642,1581 L638,1581 L638,1577 Z M638,1644 L642,1644 L642,1648 L638,1648 L638,1644 Z M638,1711 L642,1711 L642,1715 L638,1715 L638,1711 Z M638,1777 L642,1777 L642,1781 L638,1781 L638,1777 Z M638,1844 L642,1844 L642,1848 L638,1848 L638,1844 Z M638,1910 L642,1910 L642,1914 L638,1914 L638,1910 Z M638,1976 L642,1976 L642,1980 L638,1980 L638,1976 Z M638,2043 L642,2043 L642,2047 L638,2047 L638,2043 Z M638,2110 L642,2110 L642,2114 L638,2114 L638,2110 Z M638,2176 L642,2176 L642,2180 L638,2180 L638,2176 Z M638,2242 L642,2242 L642,2246 L638,2246 L638,2242 Z M638,2309 L642,2309 L642,2313 L638,2313 L638,2309 Z M705,1378 L709,1378 L709,1382 L705,1382 L705,1378 Z M705,1445 L709,1445 L709,1449 L705,1449 L705,1445 Z M705,1511 L709,1511 L709,1515 L705,1515 L705,1511 Z M705,1577 L709,1577 L709,1581 L705,1581 L705,1577 Z M705,1644 L709,1644 L709,1648 L705,1648 L705,1644 Z M705,1711 L709,1711 L709,1715 L705,1715 L705,1711 Z M705,1777 L709,1777 L709,1781 L705,1781 L705,1777 Z M705,1844 L709,1844 L709,1848 L705,1848 L705,1844 Z M705,1910 L709,1910 L709,1914 L705,1914 L705,1910 Z M705,1976 L709,1976 L709,1980 L705,1980 L705,1976 Z M705,2043 L709,2043 L709,2047 L705,2047 L705,2043 Z M705,2110 L709,2110 L709,2114 L705,2114 L705,2110 Z M705,2176 L709,2176 L709,2180 L705,2180 L705,2176 Z M705,2242 L709,2242 L709,2246 L705,2246 L705,2242 Z M705,2309 L709,2309 L709,2313 L705,2313 L705,2309 Z M771,1378 L775,1378 L775,1382 L771,1382 L771,1378 Z M771,1445 L775,1445 L775,1449 L771,1449 L771,1445 Z M771,1511 L775,1511 L775,1515 L771,1515 L771,1511 Z M771,1577 L775,1577 L775,1581 L771,1581 L771,1577 Z M771,1644 L775,1644 L775,1648 L771,1648 L771,1644 Z M771,1711 L775,1711 L775,1715 L771,1715 L771,1711 Z M771,1777 L775,1777 L775,1781 L771,1781 L771,1777 Z M771,1844 L775,1844 L775,1848 L771,1848 L771,1844 Z M771,1910 L775,1910 L775,1914 L771,1914 L771,1910 Z M771,1976 L775,1976 L775,1980 L771,1980 L771,1976 Z M771,2043 L775,2043 L775,2047 L771,2047 L771,2043 Z M771,2110 L775,2110 L775,2114 L771,2114 L771,2110 Z M771,2176 L775,2176 L775,2180 L771,2180 L771,2176 Z M771,2242 L775,2242 L775,2246 L771,2246 L771,2242 Z M771,2309 L775,2309 L775,2313 L771,2313 L771,2309 Z M837,1378 L841,1378 L841,1382 L837,1382 L837,1378 Z M837,1445 L841,1445 L841,1449 L837,1449 L837,1445 Z M837,1511 L841,1511 L841,1515 L837,1515 L837,1511 Z M837,1577 L841,1577 L841,1581 L837,1581 L837,1577 Z M837,1644 L841,1644 L841,1648 L837,1648 L837,1644 Z M837,1711 L841,1711 L841,1715 L837,1715 L837,1711 Z M837,1777 L841,1777 L841,1781 L837,1781 L837,1777 Z M837,1844 L841,1844 L841,1848 L837,1848 L837,1844 Z M837,1910 L841,1910 L841,1914 L837,1914 L837,1910 Z M837,1976 L841,1976 L841,1980 L837,1980 L837,1976 Z M837,2043 L841,2043 L841,2047 L837,2047 L837,2043 Z M837,2110 L841,2110 L841,2114 L837,2114 L837,2110 Z M837,2176 L841,2176 L841,2180 L837,2180 L837,2176 Z M837,2242 L841,2242 L841,2246 L837,2246 L837,2242 Z M837,2309 L841,2309 L841,2313 L837,2313 L837,2309 Z M904,1378 L908,1378 L908,1382 L904,1382 L904,1378 Z M904,1445 L908,1445 L908,1449 L904,1449 L904,1445 Z M904,1511 L908,1511 L908,1515 L904,1515 L904,1511 Z M904,1577 L908,1577 L908,1581 L904,1581 L904,1577 Z M904,1644 L908,1644 L908,1648 L904,1648 L904,1644 Z M904,1711 L908,1711 L908,1715 L904,1715 L904,1711 Z M904,1777 L908,1777 L908,1781 L904,1781 L904,1777 Z M904,1844 L908,1844 L908,1848 L904,1848 L904,1844 Z M904,1910 L908,1910 L908,1914 L904,1914 L904,1910 Z M904,1976 L908,1976 L908,1980 L904,1980 L904,1976 Z M904,2043 L908,2043 L908,2047 L904,2047 L904,2043 Z M904,2110 L908,2110 L908,2114 L904,2114 L904,2110 Z M904,2176 L908,2176 L908,2180 L904,2180 L904,2176 Z M904,2242 L908,2242 L908,2246 L904,2246 L904,2242 Z M904,2309 L908,2309 L908,2313 L904,2313 L904,2309 Z M971,1378 L975,1378 L975,1382 L971,1382 L971,1378 Z M971,1445 L975,1445 L975,1449 L971,1449 L971,1445 Z M971,1511 L975,1511 L975,1515 L971,1515 L971,1511 Z M971,1577 L975,1577 L975,1581 L971,1581 L971,1577 Z M971,1644 L975,1644 L975,1648 L971,1648 L971,1644 Z M971,1711 L975,1711 L975,1715 L971,1715 L971,1711 Z M971,1777 L975,1777 L975,1781 L971,1781 L971,1777 Z M971,1844 L975,1844 L975,1848 L971,1848 L971,1844 Z M971,1910 L975,1910 L975,1914 L971,1914 L971,1910 Z M971,1976 L975,1976 L975,1980 L971,1980 L971,1976 Z M971,2043 L975,2043 L975,2047 L971,2047 L971,2043 Z M971,2110 L975,2110 L975,2114 L971,2114 L971,2110 Z M971,2176 L975,2176 L975,2180 L971,2180 L971,2176 Z M971,2242 L975,2242 L975,2246 L971,2246 L971,2242 Z M971,2309 L975,2309 L975,2313 L971,2313 L971,2309 Z M1037,1378 L1041,1378 L1041,1382 L1037,1382 L1037,1378 Z M1037,1445 L1041,1445 L1041,1449 L1037,1449 L1037,1445 Z M1037,1511 L1041,1511 L1041,1515 L1037,1515 L1037,1511 Z M1037,1577 L1041,1577 L1041,1581 L1037,1581 L1037,1577 Z M1037,1644 L1041,1644 L1041,1648 L1037,1648 L1037,1644 Z M1037,1711 L1041,1711 L1041,1715 L1037,1715 L1037,1711 Z M1037,1777 L1041,1777 L1041,1781 L1037,1781 L1037,1777 Z M1037,1844 L1041,1844 L1041,1848 L1037,1848 L1037,1844 Z M1037,1910 L1041,1910 L1041,1914 L1037,1914 L1037,1910 Z M1037,1976 L1041,1976 L1041,1980 L1037,1980 L1037,1976 Z M1037,2043 L1041,2043 L1041,2047 L1037,2047 L1037,2043 Z M1037,2110 L1041,2110 L1041,2114 L1037,2114 L1037,2110 Z M1037,2176 L1041,2176 L1041,2180 L1037,2180 L1037,2176 Z M1037,2242 L1041,2242 L1041,2246 L1037,2246 L1037,2242 Z M1037,2309 L1041,2309 L1041,2313 L1037,2313 L1037,2309 Z M1103,1378 L1107,1378 L1107,1382 L1103,1382 L1103,1378 Z M1103,1445 L1107,1445 L1107,1449 L1103,1449 L1103,1445 Z M1103,1511 L1107,1511 L1107,1515 L1103,1515 L1103,1511 Z M1103,1577 L1107,1577 L1107,1581 L1103,1581 L1103,1577 Z M1103,1644 L1107,1644 L1107,1648 L1103,1648 L1103,1644 Z M1103,1711 L1107,1711 L1107,1715 L1103,1715 L1103,1711 Z M1103,1777 L1107,1777 L1107,1781 L1103,1781 L1103,1777 Z M1103,1844 L1107,1844 L1107,1848 L1103,1848 L1103,1844 Z M1103,1910 L1107,1910 L1107,1914 L1103,1914 L1103,1910 Z M1103,1976 L1107,1976 L1107,1980 L1103,1980 L1103,1976 Z M1103,2043 L1107,2043 L1107,2047 L1103,2047 L1103,2043 Z M1103,2110 L1107,2110 L1107,2114 L1103,2114 L1103,2110 Z M1103,2176 L1107,2176 L1107,2180 L1103,2180 L1103,2176 Z M1103,2242 L1107,2242 L1107,2246 L1103,2246 L1103,2242 Z M1103,2309 L1107,2309 L1107,2313 L1103,2313 L1103,2309 Z M1170,1378 L1174,1378 L1174,1382 L1170,1382 L1170,1378 Z M1170,1445 L1174,1445 L1174,1449 L1170,1449 L1170,1445 Z M1170,1511 L1174,1511 L1174,1515 L1170,1515 L1170,1511 Z M1170,1577 L1174,1577 L1174,1581 L1170,1581 L1170,1577 Z M1170,1644 L1174,1644 L1174,1648 L1170,1648 L1170,1644 Z M1170,1711 L1174,1711 L1174,1715 L1170,1715 L1170,1711 Z M1170,1777 L1174,1777 L1174,1781 L1170,1781 L1170,1777 Z M1170,1844 L1174,1844 L1174,1848 L1170,1848 L1170,1844 Z M1170,1910 L1174,1910 L1174,1914 L1170,1914 L1170,1910 Z M1170,1976 L1174,1976 L1174,1980 L1170,1980 L1170,1976 Z M1170,2043 L1174,2043 L1174,2047 L1170,2047 L1170,2043 Z M1170,2110 L1174,2110 L1174,2114 L1170,2114 L1170,2110 Z M1170,2176 L1174,2176 L1174,2180 L1170,2180 L1170,2176 Z M1170,2242 L1174,2242 L1174,2246 L1170,2246 L1170,2242 Z M1170,2309 L1174,2309 L1174,2313 L1170,2313 L1170,2309 Z M1237,1378 L1241,1378 L1241,1382 L1237,1382 L1237,1378 Z M1237,1445 L1241,1445 L1241,1449 L1237,1449 L1237,1445 Z M1237,1511 L1241,1511 L1241,1515 L1237,1515 L1237,1511 Z M1237,1577 L1241,1577 L1241,1581 L1237,1581 L1237,1577 Z M1237,1644 L1241,1644 L1241,1648 L1237,1648 L1237,1644 Z M1237,1711 L1241,1711 L1241,1715 L1237,1715 L1237,1711 Z M1237,1777 L1241,1777 L1241,1781 L1237,1781 L1237,1777 Z M1237,1844 L1241,1844 L1241,1848 L1237,1848 L1237,1844 Z M1237,1910 L1241,1910 L1241,1914 L1237,1914 L1237,1910 Z M1237,1976 L1241,1976 L1241,1980 L1237,1980 L1237,1976 Z M1237,2043 L1241,2043 L1241,2047 L1237,2047 L1237,2043 Z M1237,2110 L1241,2110 L1241,2114 L1237,2114 L1237,2110 Z M1237,2176 L1241,2176 L1241,2180 L1237,2180 L1237,2176 Z M1237,2242 L1241,2242 L1241,2246 L1237,2246 L1237,2242 Z M1237,2309 L1241,2309 L1241,2313 L1237,2313 L1237,2309 Z M1303,1378 L1307,1378 L1307,1382 L1303,1382 L1303,1378 Z M1303,1445 L1307,1445 L1307,1449 L1303,1449 L1303,1445 Z M1303,1511 L1307,1511 L1307,1515 L1303,1515 L1303,1511 Z M1303,1577 L1307,1577 L1307,1581 L1303,1581 L1303,1577 Z M1303,1644 L1307,1644 L1307,1648 L1303,1648 L1303,1644 Z M1303,1711 L1307,1711 L1307,1715 L1303,1715 L1303,1711 Z M1303,1777 L1307,1777 L1307,1781 L1303,1781 L1303,1777 Z M1303,1844 L1307,1844 L1307,1848 L1303,1848 L1303,1844 Z M1303,1910 L1307,1910 L1307,1914 L1303,1914 L1303,1910 Z M1303,1976 L1307,1976 L1307,1980 L1303,1980 L1303,1976 Z M1303,2043 L1307,2043 L1307,2047 L1303,2047 L1303,2043 Z M1303,2110 L1307,2110 L1307,2114 L1303,2114 L1303,2110 Z M1303,2176 L1307,2176 L1307,2180 L1303,2180 L1303,2176 Z M1303,2242 L1307,2242 L1307,2246 L1303,2246 L1303,2242 Z M1303,2309 L1307,2309 L1307,2313 L1303,2313 L1303,2309 Z M1369,1378 L1373,1378 L1373,1382 L1369,1382 L1369,1378 Z M1369,1445 L1373,1445 L1373,1449 L1369,1449 L1369,1445 Z M1369,1511 L1373,1511 L1373,1515 L1369,1515 L1369,1511 Z M1369,1577 L1373,1577 L1373,1581 L1369,1581 L1369,1577 Z M1369,1644 L1373,1644 L1373,1648 L1369,1648 L1369,1644 Z M1369,1711 L1373,1711 L1373,1715 L1369,1715 L1369,1711 Z M1369,1777 L1373,1777 L1373,1781 L1369,1781 L1369,1777 Z M1369,1844 L1373,1844 L1373,1848 L1369,1848 L1369,1844 Z M1369,1910 L1373,1910 L1373,1914 L1369,1914 L1369,1910 Z M1369,1976 L1373,1976 L1373,1980 L1369,1980 L1369,1976 Z M1369,2043 L1373,2043 L1373,2047 L1369,2047 L1369,2043 Z M1369,2110 L1373,2110 L1373,2114 L1369,2114 L1369,2110 Z M1369,2176 L1373,2176 L1373,2180 L1369,2180 L1369,2176 Z M1369,2242 L1373,2242 L1373,2246 L1369,2246 L1369,2242 Z M1369,2309 L1373,2309 L1373,2313 L1369,2313 L1369,2309 Z M1436,1378 L1440,1378 L1440,1382 L1436,1382 L1436,1378 Z M1436,1445 L1440,1445 L1440,1449 L1436,1449 L1436,1445 Z M1436,1511 L1440,1511 L1440,1515 L1436,1515 L1436,1511 Z M1436,1577 L1440,1577 L1440,1581 L1436,1581 L1436,1577 Z M1436,1644 L1440,1644 L1440,1648 L1436,1648 L1436,1644 Z M1436,1711 L1440,1711 L1440,1715 L1436,1715 L1436,1711 Z M1436,1777 L1440,1777 L1440,1781 L1436,1781 L1436,1777 Z M1436,1844 L1440,1844 L1440,1848 L1436,1848 L1436,1844 Z M1436,1910 L1440,1910 L1440,1914 L1436,1914 L1436,1910 Z M1436,1976 L1440,1976 L1440,1980 L1436,1980 L1436,1976 Z M1436,2043 L1440,2043 L1440,2047 L1436,2047 L1436,2043 Z M1436,2110 L1440,2110 L1440,2114 L1436,2114 L1436,2110 Z M1436,2176 L1440,2176 L1440,2180 L1436,2180 L1436,2176 Z M1436,2242 L1440,2242 L1440,2246 L1436,2246 L1436,2242 Z M1436,2309 L1440,2309 L1440,2313 L1436,2313 L1436,2309 Z" id="Combined-Shape"></path>
        </g>
    </g>
</svg>