<?xml version="1.0" encoding="UTF-8"?>
<svg width="14px" height="15px" viewBox="0 0 12 13" version="1.1" xmlns="http://www.w3.org/2000/svg" xmlns:xlink="http://www.w3.org/1999/xlink">

    <g id="Page-1" stroke="none" stroke-width="1" fill="none" fill-rule="evenodd">
        <g id="Artboard" transform="translate(-328.000000, -32.000000)">
            <path d="M333.999986,32.6875246 C335.046858,32.6875246 336.015606,32.9492428 336.906229,33.472679 C337.796852,33.9961151 338.503881,34.7031448 339.027317,35.5937677 C339.550754,36.4843905 339.812472,37.4531381 339.812472,38.5000107 C339.812472,39.5468834 339.550754,40.5156309 339.027317,41.4062538 C338.503881,42.2968767 337.796852,43.0039064 336.906229,43.5273425 C336.015606,44.0507786 335.046858,44.3124969 333.999986,44.3124969 C332.953113,44.3124969 331.984366,44.0507786 331.093743,43.5273425 C330.20312,43.0039064 329.49609,42.2968767 328.972654,41.4062538 C328.449218,40.5156309 328.1875,39.5468834 328.1875,38.5000107 C328.1875,37.4531381 328.449218,36.4843905 328.972654,35.5937677 C329.49609,34.7031448 330.20312,33.9961151 331.093743,33.472679 C331.984366,32.9492428 332.953113,32.6875246 333.999986,32.6875246 Z M337.843727,35.3593932 C337.671852,35.5937677 337.429665,35.8437672 337.117166,36.1093914 C336.523417,36.6093901 335.843731,37.0156394 335.078108,37.3281385 C335.218733,37.6406377 335.359357,37.9687619 335.499982,38.3125112 C336.203105,38.2187614 336.968729,38.210949 337.796852,38.2890737 C338.234351,38.3359486 338.624975,38.3906359 338.968724,38.4531358 C338.953099,37.8750121 338.851537,37.3242322 338.664037,36.800796 C338.476538,36.2773599 338.203101,35.7968923 337.843727,35.3593932 Z M337.281228,34.7968946 C336.671854,34.250021 335.976543,33.8789279 335.195295,33.683616 C334.414047,33.488304 333.624987,33.4843977 332.828113,33.6718972 C333.499987,34.5625201 334.117173,35.5312677 334.679672,36.5781403 C335.42967,36.3125161 336.078106,35.9531417 336.624979,35.5000179 C336.921854,35.2500184 337.140603,35.0156439 337.281228,34.7968946 Z M331.890616,34.0234589 C331.187492,34.3515831 330.593744,34.820332 330.10937,35.4297055 C329.624996,36.0390791 329.304685,36.7265773 329.148435,37.4922006 C329.570309,37.4922006 330.070307,37.4687632 330.648435,37.4218883 C331.726554,37.3281385 332.749989,37.1484513 333.718736,36.8828271 C333.156238,35.8672046 332.546864,34.9140818 331.890616,34.0234589 Z M329.031248,38.5000107 C329.031248,39.1250094 329.144528,39.7226642 329.37109,40.2929752 C329.597653,40.8632862 329.914058,41.375004 330.320307,41.8281278 C330.742181,41.0937547 331.320305,40.4296935 332.054678,39.835945 C332.851551,39.1796966 333.679674,38.7343852 334.539047,38.5000107 C334.429672,38.2187614 334.29686,37.9375121 334.14061,37.6562627 C333.093738,37.9687619 331.960928,38.1796989 330.742181,38.2890737 C330.085933,38.3359486 329.515622,38.3593861 329.031248,38.3593861 L329.031248,38.5000107 Z M330.953118,42.4140639 C331.671866,42.9921876 332.480458,43.3320306 333.378893,43.4335927 C334.277329,43.5351549 335.132795,43.4140616 335.945294,43.0703123 C335.742169,41.8671903 335.390607,40.6171931 334.890609,39.3203213 C333.937486,39.6328204 333.093738,40.1015693 332.359365,40.7265679 C331.703116,41.2734415 331.234367,41.8359402 330.953118,42.4140639 Z M336.765604,42.6250009 C337.328103,42.2500018 337.796852,41.7734405 338.171851,41.1953168 C338.54685,40.6171931 338.789037,39.9843821 338.898412,39.2968838 C338.617162,39.2031341 338.273413,39.1328217 337.867164,39.0859468 C337.148416,38.976572 336.460917,38.976572 335.804669,39.0859468 C336.257793,40.3359437 336.578105,41.5156287 336.765604,42.6250009 Z"></path>
        </g>
    </g>
</svg>