<?xml version="1.0" encoding="UTF-8"?>
<svg width="12px" height="12px" viewBox="0 0 12 12" version="1.1" xmlns="http://www.w3.org/2000/svg" xmlns:xlink="http://www.w3.org/1999/xlink">
    <!-- Generator: Sketch 55.2 (78181) - https://sketchapp.com -->
    <title>instagram</title>
    <desc>Created with Sketch.</desc>
    <g id="Page-1" stroke="none" stroke-width="1" fill="none" fill-rule="evenodd">
        <g id="Artboard" transform="translate(-323.000000, -65.000000)" fill="#CACDCE" fill-rule="nonzero">
            <path d="M329,67.9196429 C329.553572,67.9196429 330.066964,68.0580359 330.540179,68.3348214 C331.013393,68.611607 331.388393,68.986607 331.665179,69.4598214 C331.941964,69.9330359 332.080357,70.4464284 332.080357,71 C332.080357,71.5535716 331.941964,72.0669641 331.665179,72.5401786 C331.388393,73.013393 331.013393,73.388393 330.540179,73.6651786 C330.066964,73.9419641 329.553572,74.0803571 329,74.0803571 C328.446428,74.0803571 327.933036,73.9419641 327.459821,73.6651786 C326.986607,73.388393 326.611607,73.013393 326.334821,72.5401786 C326.058036,72.0669641 325.919643,71.5535716 325.919643,71 C325.919643,70.4464284 326.058036,69.9330359 326.334821,69.4598214 C326.611607,68.986607 326.986607,68.611607 327.459821,68.3348214 C327.933036,68.0580359 328.446428,67.9196429 329,67.9196429 Z M329,73.0089286 C329.553572,73.0089286 330.026786,72.8125001 330.419651,72.419651 C330.8125,72.0267856 331.008929,71.5535716 331.008929,71 C331.008929,70.4464284 330.8125,69.9732144 330.419643,69.5803571 C330.026786,69.1874999 329.553572,68.9910714 329,68.9910714 C328.446428,68.9910714 327.973214,69.1874999 327.580357,69.5803571 C327.1875,69.9732144 326.991071,70.4464284 326.991071,71 C326.991071,71.5535716 327.1875,72.0267856 327.580357,72.4196429 C327.973214,72.8125001 328.446428,73.0089286 329,73.0089286 Z M332.9375,67.7857143 C332.919643,67.9821427 332.84375,68.1517859 332.709821,68.2946429 C332.575893,68.4374999 332.410714,68.5089286 332.214286,68.5089286 C332.017857,68.5089286 331.848214,68.4374999 331.705357,68.2946429 C331.5625,68.1517859 331.491071,67.9821427 331.491071,67.7857143 C331.491071,67.5892859 331.5625,67.4196427 331.705357,67.2767857 C331.848214,67.1339287 332.017857,67.0625 332.214286,67.0625 C332.410714,67.0625 332.580357,67.1339287 332.723214,67.2767857 C332.866071,67.4196427 332.9375,67.5892859 332.9375,67.7857143 Z M334.973214,68.5089286 C334.991072,69.0089287 335,69.8392859 335,71 C335,72.1607141 334.986607,72.9955357 334.959821,73.5044643 C334.933036,74.0133929 334.857143,74.4553571 334.732143,74.8303571 C334.571429,75.2767859 334.325893,75.6651787 333.995536,75.9955357 C333.665179,76.3258927 333.276786,76.5714286 332.830357,76.7321429 C332.455357,76.857143 332.013393,76.9330357 331.504464,76.9598214 C330.995536,76.9866071 330.160714,77 329,77 C327.839286,77 327.004464,76.9866071 326.495536,76.9598214 C325.986607,76.9330357 325.544643,76.8482141 325.169643,76.7053571 C324.723214,76.5625001 324.334821,76.3258927 324.004464,75.9955357 C323.674107,75.6651787 323.428571,75.2767859 323.267857,74.8303571 C323.142857,74.4553571 323.066964,74.0133929 323.040179,73.5044643 C323.013393,72.9955357 323,72.1607141 323,71 C323,69.8392859 323.013393,69.0044643 323.040179,68.4955357 C323.066964,67.9866071 323.142857,67.5446429 323.267857,67.1696429 C323.428571,66.7232141 323.674107,66.3348213 324.004464,66.0044643 C324.334821,65.6741073 324.723214,65.4285714 325.169643,65.2678571 C325.544643,65.142857 325.986607,65.0669643 326.495536,65.0401786 C327.004464,65.0133929 327.839286,65 329,65 C330.160714,65 330.995536,65.0133929 331.504464,65.0401786 C332.013393,65.0669643 332.455357,65.142857 332.830357,65.2678571 C333.276786,65.4285714 333.665179,65.6741073 333.995536,66.0044643 C334.325893,66.3348213 334.571429,66.7232141 334.732143,67.1696429 C334.857143,67.5446429 334.9375,67.9910716 334.973214,68.5089286 Z M333.6875,74.5357143 C333.794643,74.232143 333.866072,73.7500001 333.901786,73.0892857 C333.919643,72.6964284 333.928571,72.1428573 333.928571,71.4285714 L333.928571,70.5714286 C333.928571,69.8392859 333.919643,69.2857143 333.901786,68.9107143 C333.866072,68.232143 333.794643,67.7500001 333.6875,67.4642857 C333.473214,66.9107141 333.089286,66.5267857 332.535714,66.3125 C332.25,66.2053571 331.767857,66.1339284 331.089286,66.0982143 C330.696428,66.080357 330.142857,66.0714286 329.428571,66.0714286 L328.571429,66.0714286 C327.857143,66.0714286 327.303572,66.080357 326.910714,66.0982143 C326.25,66.1339284 325.767857,66.2053571 325.464286,66.3125 C324.910714,66.5267857 324.526786,66.9107141 324.3125,67.4642857 C324.205357,67.7500001 324.133928,68.232143 324.098214,68.9107143 C324.080357,69.3035716 324.071429,69.8571427 324.071429,70.5714286 L324.071429,71.4285714 C324.071429,72.1428573 324.080357,72.6964284 324.098214,73.0892857 C324.133928,73.7500001 324.205357,74.232143 324.3125,74.5357143 C324.544643,75.0892859 324.928571,75.4732143 325.464286,75.6875 C325.767857,75.7946429 326.25,75.8660716 326.910714,75.9017857 C327.303572,75.919643 327.857143,75.9285714 328.571429,75.9285714 L329.428571,75.9285714 C330.160714,75.9285714 330.714286,75.919643 331.089286,75.9017857 C331.767857,75.8660716 332.25,75.7946429 332.535714,75.6875 C333.089286,75.455357 333.473214,75.0714286 333.6875,74.5357143 Z" id="instagram"></path>
        </g>
    </g>
</svg>