<svg xmlns="http://www.w3.org/2000/svg" width="101" height="50" viewBox="0 0 101 50">
  <g fill="none">
    <path fill="#313131" d="M29.9656558,0.000190521638 C35.0723398,-0.0167055888 40.1193054,1.09040122 44.7431408,3.24198759 C48.9841568,5.20198228 52.6734567,8.16877008 55.4849838,11.880149 C55.8927927,12.4312732 55.9538302,13.1631601 55.6428713,13.773343 C55.3319124,14.3835259 54.7017689,14.7683742 54.0128602,14.7688416 C53.4303693,14.7678762 52.8828784,14.4926795 52.5373785,14.0271896 C50.0840243,10.7982934 46.8665987,8.21948815 43.1698533,6.51900572 C39.0378436,4.59867765 34.528118,3.61208148 29.9656558,3.6303132 C24.7803404,3.59448925 19.6722432,4.87790664 15.1285639,7.35815569 C10.9019278,9.70852558 7.63110165,12.9751272 5.66910969,16.7992178 C2.98668434,21.9421556 2.98668434,28.0576204 5.66910969,33.2005581 C7.03826269,35.8207001 8.93440099,38.1341798 11.2402602,39.9979229 C16.2224772,44.1070078 22.8699108,46.3694627 29.9581,46.3694627 C34.5129547,46.3886939 39.0156255,45.4068941 43.1429882,43.49452 C46.8330982,41.8009899 50.0475639,39.2335825 52.5037971,36.0180021 C52.8495243,35.5548565 53.395614,35.2813616 53.9763405,35.2805167 C54.3666445,35.2798814 54.746744,35.4042304 55.0601794,35.635093 C55.8721406,36.2311502 56.0446864,37.3666623 55.4463653,38.1737925 C52.6308883,41.8691728 48.9446839,44.8221634 44.7112385,46.7736214 C40.0957607,48.9148275 35.0603372,50.0163855 29.9656558,49.9993905 C24.1538158,50.0340426 18.4298905,48.5905647 13.339516,45.8065573 C8.48448839,43.1049444 4.70490439,39.3150198 2.4104568,34.848442 C-0.8034856,28.6703922 -0.8034856,21.3298004 2.4104568,15.1517506 C4.0045247,12.0914759 6.21377007,9.3880919 8.901737,7.20857533 C14.5455072,2.56241778 22.0261787,0.000190521638 29.9656558,0.000190521638 Z M57.9851174,23.5878327 C58.5194975,23.5878327 59.0319908,23.7985422 59.4098545,24.1736075 C59.7877183,24.5486728 60,25.0573705 60,25.5877929 C60,26.6923405 59.0979063,27.5877531 57.9851174,27.5877531 C56.8723284,27.5877531 55.9702347,26.6923405 55.9702347,25.5877929 C55.9702347,24.4832454 56.8723284,23.5878327 57.9851174,23.5878327 Z"/>
    <path fill="#2B2B2B" d="M44.0479638 21.4882887C44.1061041 21.3488338 44.1406419 21.2015614 44.1504134 21.0519072 44.1545373 20.7804768 44.0372315 20.5200397 43.8274353 20.3350922 43.6176392 20.1501447 43.3349721 20.0579824 43.0494358 20.0814291 42.5793907 20.0623946 42.165372 20.3719328 42.0757673 20.8093858L39.8230715 27.333133 37.2368424 20.7603321C37.1056651 20.3551495 36.7106259 20.078525 36.263174 20.078525 35.815722 20.078525 35.4206828 20.3551495 35.2895055 20.7603321L32.7289647 27.3327406 30.4770975 20.8089933C30.3878372 20.3715076 29.9738506 20.0618616 29.5038434 20.0810367 29.218307 20.05759 28.93564 20.1497523 28.7258439 20.3346997 28.5160477 20.5196472 28.3987418 20.7800843 28.4028658 21.0515147 28.4125336 21.2011828 28.4470751 21.3484704 28.5053154 21.4878963L31.6542005 30.3399275C31.7693976 30.7628199 32.1946834 31.041662 32.6531429 30.9948923 33.1185696 31.0175435 33.5406678 30.7375934 33.6773592 30.3155969L36.2635883 23.5979895 38.8738483 30.3159893C39.0089152 30.7392764 39.4323373 31.0199909 39.898479 30.9952847 40.3545609 31.030049 40.7731605 30.7551106 40.8986643 30.3383578L44.0475495 21.4863266 44.0479638 21.4882887zM20.5680532 28.9711336L16.8415962 25.4632067 20.5680532 21.9552798C21.0380628 21.5102189 21.0381555 20.788545 20.5682604 20.3433758 20.0983652 19.8982066 19.3364218 19.8981187 18.8664123 20.3431796L14.332432 24.6375351C13.8596 25.096892 13.8596 25.8295213 14.332432 26.2888782L18.8664123 30.5828413C19.3363074 31.0279021 20.098158 31.0279021 20.5680532 30.5828413 21.0379484 30.1377805 21.0379484 29.4161944 20.5680532 28.9711336M13.4068255 29.7732594L13.4068255 21.1398114C13.4068255 20.5103109 12.8680393 20 12.2034127 20 11.5387862 20 11 20.5103109 11 21.1398114L11 29.7732594C11 30.4027598 11.5387863 30.9130707 12.2034127 30.9130707 12.8680392 30.9130707 13.4068255 30.4027598 13.4068255 29.7732594M23.5942976 21.2214367L23.5942976 29.8548847C23.5942976 30.4844935 24.1331765 30.9948923 24.7979175 30.9948923 25.4626584 30.9948923 26.0015374 30.4844935 26.0015374 29.8548847L26.0015374 21.2214367C26.0015374 20.5918279 25.4626584 20.0814291 24.7979175 20.0814291 24.1331765 20.0814291 23.5942976 20.5918279 23.5942976 21.2214367M46.5927602 21.2214367L46.5927602 29.8548847C46.5927602 30.4844935 47.1316392 30.9948923 47.7963801 30.9948923 48.461121 30.9948923 49 30.4844935 49 29.8548847L49 21.2214367C49 20.5918279 48.461121 20.0814291 47.7963801 20.0814291 47.1316392 20.0814291 46.5927602 20.5918279 46.5927602 21.2214367M46.5927602 21.2214367L46.5927602 29.8548847C46.5927602 30.4844935 47.1316392 30.9948923 47.7963801 30.9948923 48.461121 30.9948923 49 30.4844935 49 29.8548847L49 21.2214367C49 20.5918279 48.461121 20.0814291 47.7963801 20.0814291 47.1316392 20.0814291 46.5927602 20.5918279 46.5927602 21.2214367M46.5927602 21.2214367L46.5927602 29.8548847C46.5927602 30.4844935 47.1316392 30.9948923 47.7963801 30.9948923 48.461121 30.9948923 49 30.4844935 49 29.8548847L49 21.2214367C49 20.5918279 48.461121 20.0814291 47.7963801 20.0814291 47.1316392 20.0814291 46.5927602 20.5918279 46.5927602 21.2214367M46.5927602 21.2214367L46.5927602 29.8548847C46.5927602 30.4844935 47.1316392 30.9948923 47.7963801 30.9948923 48.461121 30.9948923 49 30.4844935 49 29.8548847L49 21.2214367C49 20.5918279 48.461121 20.0814291 47.7963801 20.0814291 47.1316392 20.0814291 46.5927602 20.5918279 46.5927602 21.2214367M70.6652901 20.0016331C72.0470247 19.9678864 73.3866442 20.4583046 74.3919288 21.3659097 74.6067777 21.5518836 74.7315333 21.8146871 74.736541 22.0918514 74.7449814 22.3570496 74.6397079 22.6140154 74.4451628 22.8030865 74.2506177 22.9921577 73.9837245 23.0968869 73.7064504 23.0929581 73.4460318 23.087839 73.1937618 23.0051557 72.9847627 22.8564198 72.3439079 22.3163461 71.5188736 22.0189474 70.6648739 22.0201731L70.664 22.02 70.4675115 22.0249123C68.6408758 22.1130961 67.3622419 23.4240582 67.2762322 25.297325L67.2716098 25.5001537C67.2716098 27.5493561 68.6675386 28.9805325 70.6652901 28.9805325 71.5116924 28.9804209 72.3294807 28.6873563 72.9676986 28.1554358 73.1809767 28.0008317 73.4393965 27.91382 73.7068666 27.9065529 73.9842152 27.9026198 74.2511753 28.007403 74.4457334 28.196562 74.6402915 28.385721 74.7455136 28.6427917 74.7369572 28.9080578 74.7305846 29.187757 74.6034164 29.4524386 74.3856859 29.6391763 73.3816993 30.5443546 72.0443152 31.0329152 70.6652901 30.9982761 67.33071 30.9982761 65 28.7372246 65 25.4997555 65 22.2622864 67.3294614 20.0016331 70.6652901 20.0016331zM81.9205383 20.0024295C83.4486117 19.9754688 84.9217277 20.5476387 85.9977747 21.5860603 87.0738216 22.6244819 87.6591683 24.0387978 87.6178756 25.5005519 87.6178756 28.5111297 85.0670908 30.9516852 81.9205383 30.9516852 78.7739858 30.9516852 76.223201 28.5111297 76.223201 25.5005519 76.1819083 24.0387978 76.7672549 22.6244819 77.8433019 21.5860603 78.9193489 20.5476387 80.3924649 19.9754688 81.9205383 20.0024295zM99.9186138 20.0641525C100.209866 20.0477445 100.494548 20.1512944 100.700851 20.3486822 100.907154 20.5460701 101.015381 20.8184502 100.998232 21.0971162L100.998232 21.0971162 100.998232 29.919518C100.998232 30.4853896 100.518784 30.9441192 99.9273539 30.9441192 99.3359243 30.9441192 98.8564759 30.4853896 98.8564759 29.919518L98.8564759 29.919518 98.8564759 25.2170245 96.3497141 30.3639233C96.1861508 30.7168665 95.8179882 30.942139 95.4145167 30.9361549 95.0096622 30.9537985 94.6365468 30.7271574 94.4809841 30.3691001L94.4809841 30.3691001 91.939 25.217 91.9396778 29.9039877C91.9396778 30.4321345 91.522025 30.8669488 90.9854838 30.9225767L90.8687998 30.9285889C90.2773703 30.9285889 89.7978564 30.4698593 89.7978564 29.9039877L89.7978564 29.9039877 89.7978564 21.0807894C89.7947685 20.8102469 89.9057029 20.5499046 90.1056581 20.3585903 90.3056133 20.1672759 90.5777141 20.0611354 90.8604759 20.0641525 91.2913114 20.0614536 91.6821159 20.3054006 91.8531086 20.6837714L91.8531086 20.6837714 95.3824694 27.6903234 95.4132681 27.7524446 98.934305 20.6981071C99.1030959 20.3196073 99.4885796 20.0713324 99.9186138 20.0641525zM81.9205383 21.9664144C80.214958 21.9664144 78.4877354 23.1801667 78.4877354 25.5005519 78.4877354 27.2566698 79.666825 29.0350876 81.9205383 29.0350876 83.6273672 29.0350876 85.3550059 27.8209372 85.3550059 25.5005519 85.3550059 23.744434 84.175084 21.9664144 81.9205383 21.9664144z"/>
  </g>
</svg>
