<svg width="39" height="43" viewBox="0 0 39 43" fill="none" xmlns="http://www.w3.org/2000/svg">
<path fill-rule="evenodd" clip-rule="evenodd" d="M3 0C1.34315 0 0 1.34315 0 3V4.59901H38.2V3C38.2 1.34315 36.8568 0 35.2 0H3ZM38.2 5.59901H0V39.4444C0 41.1013 1.34315 42.4444 3 42.4444H35.2C36.8569 42.4444 38.2 41.1013 38.2 39.4444V5.59901ZM10.1568 2.63733C10.1568 3.23078 9.68177 3.71187 9.09573 3.71187C8.5097 3.71187 8.03462 3.23078 8.03462 2.63733C8.03462 2.04387 8.5097 1.56278 9.09573 1.56278C9.68177 1.56278 10.1568 2.04387 10.1568 2.63733ZM4.95979 2.63783C4.95979 3.23128 4.48471 3.71237 3.89867 3.71237C3.31264 3.71237 2.83756 3.23128 2.83756 2.63783C2.83756 2.04437 3.31264 1.56328 3.89867 1.56328C4.48471 1.56328 4.95979 2.04437 4.95979 2.63783ZM14.2955 3.71187C14.8816 3.71187 15.3566 3.23078 15.3566 2.63733C15.3566 2.04387 14.8816 1.56278 14.2955 1.56278C13.7095 1.56278 13.2344 2.04387 13.2344 2.63733C13.2344 3.23078 13.7095 3.71187 14.2955 3.71187ZM30.4445 21.2221L22.6334 10.0805L16.7525 18.4691L14.1446 14.8555L9.54981 21.2221H14.8224H18.7393H30.4445ZM17.8588 12.4679C17.8588 13.2005 17.265 13.7943 16.5325 13.7943C15.7999 13.7943 15.2061 13.2005 15.2061 12.4679C15.2061 11.7354 15.7999 11.1415 16.5325 11.1415C17.265 11.1415 17.8588 11.7354 17.8588 12.4679ZM12.2024 23.6251C12.2024 23.487 12.3144 23.3751 12.4524 23.3751H27.8691C28.0072 23.3751 28.1191 23.487 28.1191 23.6251C28.1191 23.7631 28.0072 23.8751 27.8691 23.8751H12.4524C12.3144 23.8751 12.2024 23.7631 12.2024 23.6251ZM17.7582 26.0276C17.6202 26.0276 17.5082 26.1395 17.5082 26.2776C17.5082 26.4157 17.6202 26.5276 17.7582 26.5276H23.0943C23.2324 26.5276 23.3443 26.4157 23.3443 26.2776C23.3443 26.1395 23.2324 26.0276 23.0943 26.0276H17.7582Z" fill="url(#paint0_linear)"/>
<circle cx="10.3464" cy="33.6903" r="3.97917" fill="#4AD3F4"/>
<line x1="17.7578" y1="31.5833" x2="23.0939" y2="31.5833" stroke="white" stroke-width="0.5" stroke-linecap="round"/>
<line x1="17.7578" y1="33.7053" x2="33.1745" y2="33.7053" stroke="white" stroke-width="0.5" stroke-linecap="round"/>
<line x1="17.7578" y1="35.8276" x2="33.1745" y2="35.8276" stroke="white" stroke-width="0.5" stroke-linecap="round"/>
<defs>
<linearGradient id="paint0_linear" x1="-0.00103689" y1="38.3118" x2="26.5604" y2="-2.10325" gradientUnits="userSpaceOnUse">
<stop stop-color="#717186" stop-opacity="0.19"/>
<stop offset="1" stop-color="#101017"/>
</linearGradient>
</defs>
</svg>
