<?xml version="1.0" encoding="UTF-8"?>
<svg width="12px" height="12px" viewBox="0 0 12 12" version="1.1" xmlns="http://www.w3.org/2000/svg" xmlns:xlink="http://www.w3.org/1999/xlink">
    <g class="icon" stroke="none" stroke-width="1" fill="none" fill-rule="evenodd">
        <g id="Artboard" transform="translate(-322.000000, -100.000000)">
            <path d="M324.678571,112 L322.1875,112 L322.1875,103.991071 L324.678571,103.991071 L324.678571,112 Z M323.446429,102.892857 C323.053571,102.892857 322.714286,102.75 322.428571,102.464286 C322.142857,102.178571 322,101.839286 322,101.446429 C322,101.053571 322.142857,100.714286 322.428571,100.428571 C322.714286,100.142857 323.053571,100 323.446429,100 C323.839286,100 324.178571,100.142857 324.464286,100.428571 C324.75,100.714286 324.892857,101.053571 324.892857,101.446429 C324.892857,101.839286 324.75,102.178571 324.464286,102.464286 C324.178571,102.75 323.839286,102.892857 323.446429,102.892857 Z M334,112 L331.508929,112 L331.508929,108.089286 C331.508929,107.446429 331.455357,106.982143 331.348214,106.696429 C331.151786,106.214286 330.767857,105.973214 330.196429,105.973214 C329.625,105.973214 329.223214,106.1875 328.991071,106.616071 C328.8125,106.9375 328.723214,107.410714 328.723214,108.035714 L328.723214,112 L326.258929,112 L326.258929,103.991071 L328.642857,103.991071 L328.642857,105.089286 L328.669643,105.089286 C328.848214,104.732143 329.133928,104.4375 329.526786,104.205357 C329.955357,103.919643 330.455357,103.776786 331.026786,103.776786 C332.1875,103.776786 333,104.142857 333.464286,104.875 C333.821428,105.464286 334,106.375 334,107.607143 L334,112 Z"></path>
        </g>
    </g>
</svg>