<svg width="11" height="13" viewBox="0 0 11 13" fill="none" xmlns="http://www.w3.org/2000/svg">
<path d="M9.375 5.75H9V4.29688C9 2.23438 7.3125 0.523438 5.25 0.5C3.1875 0.5 1.5 2.1875 1.5 4.25V5.75H1.125C0.492188 5.75 0 6.26562 0 6.875V11.375C0 12.0078 0.492188 12.5 1.125 12.5H9.375C9.98438 12.5 10.5 12.0078 10.5 11.375V6.875C10.5 6.26562 9.98438 5.75 9.375 5.75ZM2.25 4.25C2.25 2.60938 3.58594 1.25 5.25 1.25C6.89062 1.25 8.25 2.60938 8.25 4.25V5.75H2.25V4.25ZM9.375 11.75H1.125C0.914062 11.75 0.75 11.5859 0.75 11.375V6.875C0.75 6.6875 0.914062 6.5 1.125 6.5H9.375C9.5625 6.5 9.75 6.6875 9.75 6.875V11.375C9.75 11.5859 9.5625 11.75 9.375 11.75Z" fill="white"/>
</svg>
