<?xml version="1.0" encoding="UTF-8"?>
<svg width="180px" height="34px" viewBox="0 0 180 34" version="1.1" xmlns="http://www.w3.org/2000/svg" xmlns:xlink="http://www.w3.org/1999/xlink">
    <!-- Generator: Sketch 55.2 (78181) - https://sketchapp.com -->
    <title>logo_full</title>
    <desc>Created with Sketch.</desc>
    <defs>
        <linearGradient x1="91.6204897%" y1="73.3356558%" x2="16.5404132%" y2="11.7651987%" id="linearGradient-1">
            <stop stop-color="#3A9DB7" offset="0%"></stop>
            <stop stop-color="#0855AA" stop-opacity="0.0629097465" offset="100%"></stop>
        </linearGradient>
        <linearGradient x1="86.4907898%" y1="60.8960558%" x2="13.4861786%" y2="34.7020844%" id="linearGradient-2">
            <stop stop-color="#3A5CB7" offset="0%"></stop>
            <stop stop-color="#00FCEE" offset="100%"></stop>
        </linearGradient>
        <linearGradient x1="-4.70400453%" y1="46.4051936%" x2="91.2139847%" y2="58.4351255%" id="linearGradient-3">
            <stop stop-color="#000000" stop-opacity="0.460637019" offset="0%"></stop>
            <stop stop-color="#000000" offset="100%"></stop>
        </linearGradient>
        <linearGradient x1="86.4907898%" y1="76.1190735%" x2="13.4861786%" y2="13.3291725%" id="linearGradient-4">
            <stop stop-color="#3A5CB7" offset="0%"></stop>
            <stop stop-color="#00FCEE" offset="100%"></stop>
        </linearGradient>
    </defs>
    <g id="Page-1" stroke="none" stroke-width="1" fill="none" fill-rule="evenodd">
        <g id="Artboard" transform="translate(-81.000000, -42.000000)">
            <g id="logo_full" transform="translate(81.000000, 29.000000)">
                <g id="logo" transform="translate(0.000000, 13.000000)">
                    <path d="M19.0648297,0 C25.1645619,0 29.8453023,1.48353309 33.1071911,4.45064378 C36.36908,7.41775446 38,11.5440842 38,16.8297568 C38,22.1154294 36.409853,26.2985063 33.2295114,29.379113 C30.0491697,32.4597197 25.1971828,34 18.673405,34 L6.97959184,34 L6.97959184,0 L19.0648297,0 Z" id="D" fill="url(#linearGradient-1)"></path>
                    <path d="M11.3098269,11.4933338 C14.7144321,12.5419952 18.0368051,16.7701414 21.1592224,19.323918 C27.0668172,24.1556481 31.9775795,26.3594977 35.8915092,25.9354668 C32.9755275,31.3118223 28.8415605,34 23.4896082,34 C18.137656,34 12.6293646,34 6.96473429,34 L6.96473429,21.907688 C6.69375871,18.8359735 5.50286003,16.598151 3.39203823,15.1942204 C0.225805535,13.0883246 0,12.357638 0,11.4933338 C0,10.6290297 8.27293963,10.5579342 11.3098269,11.4933338 Z" id="Path-7" fill="url(#linearGradient-2)"></path>
                    <path d="M6.84,24.139414 C10.3285015,23.3191104 14.277873,24.7195797 18.6881144,28.340822 C23.0983559,31.9620643 28.8328208,31.1602792 35.8915092,25.9354668 C35.5718873,26.5143471 35.3354628,26.9285064 35.1822358,27.1779447 C34.3556689,28.5235128 33.7550467,29.3527547 33.4654151,29.6662876 C32.7690172,30.4201546 32.04944,31.040856 31.29768,31.6165148 C29.2482746,33.1858431 26.0367473,34 24.1412086,34 C21.3884427,34 15.6213732,34 6.84,34 L6.84,24.139414 Z" id="Path-8" fill="url(#linearGradient-3)"></path>
                </g>
                <path d="M49.504,31.8 L54.4,31.8 C55.5946726,31.8 56.6559954,32.0319977 57.584,32.496 C58.5120046,32.9600023 59.2319974,33.6159958 59.744,34.464 C60.2560026,35.3120042 60.512,36.2906611 60.512,37.4 C60.512,38.5093389 60.2560026,39.4879958 59.744,40.336 C59.2319974,41.1840042 58.5120046,41.8399977 57.584,42.304 C56.6559954,42.7680023 55.5946726,43 54.4,43 L49.504,43 L49.504,31.8 Z M54.304,41.24 C55.1253374,41.24 55.8479969,41.0826682 56.472,40.768 C57.0960031,40.4533318 57.5759983,40.0053362 57.912,39.424 C58.2480017,38.8426638 58.416,38.1680038 58.416,37.4 C58.416,36.6319962 58.2480017,35.9573362 57.912,35.376 C57.5759983,34.7946638 57.0960031,34.3466682 56.472,34.032 C55.8479969,33.7173318 55.1253374,33.56 54.304,33.56 L51.584,33.56 L51.584,41.24 L54.304,41.24 Z M69.984,40.408 L64.384,40.408 L63.28,43 L61.136,43 L66.176,31.8 L68.224,31.8 L73.28,43 L71.104,43 L69.984,40.408 Z M69.296,38.776 L67.184,33.88 L65.088,38.776 L69.296,38.776 Z M84.944,31.8 L80.064,43 L78.016,43 L73.12,31.8 L75.376,31.8 L79.104,40.44 L82.864,31.8 L84.944,31.8 Z M86.368,31.8 L88.448,31.8 L88.448,43 L86.368,43 L86.368,31.8 Z M91.472,31.8 L96.368,31.8 C97.5626726,31.8 98.6239954,32.0319977 99.552,32.496 C100.480005,32.9600023 101.199997,33.6159958 101.712,34.464 C102.224003,35.3120042 102.48,36.2906611 102.48,37.4 C102.48,38.5093389 102.224003,39.4879958 101.712,40.336 C101.199997,41.1840042 100.480005,41.8399977 99.552,42.304 C98.6239954,42.7680023 97.5626726,43 96.368,43 L91.472,43 L91.472,31.8 Z M96.272,41.24 C97.0933374,41.24 97.8159969,41.0826682 98.44,40.768 C99.0640031,40.4533318 99.5439983,40.0053362 99.88,39.424 C100.216002,38.8426638 100.384,38.1680038 100.384,37.4 C100.384,36.6319962 100.216002,35.9573362 99.88,35.376 C99.5439983,34.7946638 99.0640031,34.3466682 98.44,34.032 C97.8159969,33.7173318 97.0933374,33.56 96.272,33.56 L93.552,33.56 L93.552,41.24 L96.272,41.24 Z M110.848,43.16 C110.13333,43.16 109.47467,43.0186681 108.872,42.736 C108.26933,42.4533319 107.776002,42.0560026 107.392,41.544 L108.576,40.12 C109.19467,40.9733376 109.935996,41.4 110.8,41.4 C111.962672,41.4 112.544,40.7120069 112.544,39.336 L112.544,33.544 L108.56,33.544 L108.56,31.8 L114.624,31.8 L114.624,39.224 C114.624,40.5360066 114.304003,41.5199967 113.664,42.176 C113.023997,42.8320033 112.08534,43.16 110.848,43.16 Z M124.8,40.408 L119.2,40.408 L118.096,43 L115.952,43 L120.992,31.8 L123.04,31.8 L128.096,43 L125.92,43 L124.8,40.408 Z M124.112,38.776 L122,33.88 L119.904,38.776 L124.112,38.776 Z M139.808,43 L139.792,35.576 L136.112,41.72 L135.184,41.72 L131.504,35.672 L131.504,43 L129.52,43 L129.52,31.8 L131.232,31.8 L135.68,39.224 L140.048,31.8 L141.76,31.8 L141.776,43 L139.808,43 Z M152.736,37.176 C153.35467,37.3786677 153.845332,37.717331 154.208,38.192 C154.570668,38.666669 154.752,39.2559965 154.752,39.96 C154.752,40.9306715 154.37867,41.6799974 153.632,42.208 C152.88533,42.7360026 151.79734,43 150.368,43 L144.8,43 L144.8,31.8 L150.048,31.8 C151.370673,31.8 152.38933,32.0586641 153.104,32.576 C153.81867,33.0933359 154.176,33.8053288 154.176,34.712 C154.176,35.2666694 154.048001,35.7573312 153.792,36.184 C153.535999,36.6106688 153.184002,36.9413322 152.736,37.176 Z M146.88,33.432 L146.88,36.52 L149.824,36.52 C150.549337,36.52 151.106665,36.3893346 151.496,36.128 C151.885335,35.8666654 152.08,35.4853358 152.08,34.984 C152.08,34.4719974 151.885335,34.0853346 151.496,33.824 C151.106665,33.5626654 150.549337,33.432 149.824,33.432 L146.88,33.432 Z M150.24,41.368 C151.850675,41.368 152.656,40.8293387 152.656,39.752 C152.656,38.6746613 151.850675,38.136 150.24,38.136 L146.88,38.136 L146.88,41.368 L150.24,41.368 Z M162.208,43.16 C161.066661,43.16 160.037338,42.9120025 159.12,42.416 C158.202662,41.9199975 157.482669,41.2320044 156.96,40.352 C156.437331,39.4719956 156.176,38.4880054 156.176,37.4 C156.176,36.3119946 156.437331,35.3280044 156.96,34.448 C157.482669,33.5679956 158.202662,32.8800025 159.12,32.384 C160.037338,31.8879975 161.066661,31.64 162.208,31.64 C163.349339,31.64 164.378662,31.8879975 165.296,32.384 C166.213338,32.8800025 166.933331,33.565329 167.456,34.44 C167.978669,35.314671 168.24,36.3013278 168.24,37.4 C168.24,38.4986722 167.978669,39.485329 167.456,40.36 C166.933331,41.234671 166.213338,41.9199975 165.296,42.416 C164.378662,42.9120025 163.349339,43.16 162.208,43.16 Z M162.208,41.336 C162.95467,41.336 163.626664,41.1680017 164.224,40.832 C164.821336,40.4959983 165.290665,40.0266697 165.632,39.424 C165.973335,38.8213303 166.144,38.1466704 166.144,37.4 C166.144,36.6533296 165.973335,35.9786697 165.632,35.376 C165.290665,34.7733303 164.821336,34.3040017 164.224,33.968 C163.626664,33.6319983 162.95467,33.464 162.208,33.464 C161.46133,33.464 160.789336,33.6319983 160.192,33.968 C159.594664,34.3040017 159.125335,34.7733303 158.784,35.376 C158.442665,35.9786697 158.272,36.6533296 158.272,37.4 C158.272,38.1466704 158.442665,38.8213303 158.784,39.424 C159.125335,40.0266697 159.594664,40.4959983 160.192,40.832 C160.789336,41.1680017 161.46133,41.336 162.208,41.336 Z M177.776,43 L175.488,39.72 C175.392,39.7306667 175.248001,39.736 175.056,39.736 L172.528,39.736 L172.528,43 L170.448,43 L170.448,31.8 L175.056,31.8 C176.026672,31.8 176.871996,31.9599984 177.592,32.28 C178.312004,32.6000016 178.863998,33.0586637 179.248,33.656 C179.632002,34.2533363 179.824,34.9626626 179.824,35.784 C179.824,36.6266709 179.618669,37.351997 179.208,37.96 C178.797331,38.568003 178.208004,39.0213318 177.44,39.32 L180.016,43 L177.776,43 Z M177.728,35.784 C177.728,35.0693298 177.493336,34.5200019 177.024,34.136 C176.554664,33.7519981 175.866671,33.56 174.96,33.56 L172.528,33.56 L172.528,38.024 L174.96,38.024 C175.866671,38.024 176.554664,37.8293353 177.024,37.44 C177.493336,37.0506647 177.728,36.4986702 177.728,35.784 Z" id="DAVIDJAMBOR" fill="#FFFFFF" fill-rule="nonzero"></path>
                <path d="M52.849,13.9 C53.9930057,13.9 54.8899968,14.1708306 55.54,14.7125 C56.1900033,15.2541694 56.515,16.0059952 56.515,16.968 C56.515,17.9213381 56.1900033,18.6688306 55.54,19.2105 C54.8899968,19.7521694 53.9930057,20.023 52.849,20.023 L50.249,20.023 L50.249,23 L49.586,23 L49.586,13.9 L52.849,13.9 Z M52.849,19.425 C53.8196715,19.425 54.5606641,19.2126688 55.072,18.788 C55.5833359,18.3633312 55.839,17.7566706 55.839,16.968 C55.839,16.1793294 55.5833359,15.5705021 55.072,15.1415 C54.5606641,14.7124979 53.8196715,14.498 52.849,14.498 L50.249,14.498 L50.249,19.425 L52.849,19.425 Z M59.297,17.696 C59.505001,17.2019975 59.8299978,16.8228347 60.272,16.5585 C60.7140022,16.2941653 61.2513302,16.162 61.884,16.162 L61.884,16.799 L61.728,16.786 C60.9739962,16.786 60.3846688,17.0221643 59.96,17.4945 C59.5353312,17.9668357 59.323,18.6233291 59.323,19.464 L59.323,23 L58.673,23 L58.673,16.214 L59.297,16.214 L59.297,17.696 Z M66.447,23.052 C65.8056635,23.052 65.2271692,22.9046681 64.7115,22.61 C64.1958308,22.3153319 63.7906681,21.905836 63.496,21.3815 C63.2013319,20.857164 63.054,20.26567 63.054,19.607 C63.054,18.94833 63.2013319,18.356836 63.496,17.8325 C63.7906681,17.308164 64.1958308,16.8986681 64.7115,16.604 C65.2271692,16.3093319 65.8056635,16.162 66.447,16.162 C67.0883365,16.162 67.6668308,16.3093319 68.1825,16.604 C68.6981692,16.8986681 69.1033319,17.308164 69.398,17.8325 C69.6926681,18.356836 69.84,18.94833 69.84,19.607 C69.84,20.26567 69.6926681,20.857164 69.398,21.3815 C69.1033319,21.905836 68.6981692,22.3153319 68.1825,22.61 C67.6668308,22.9046681 67.0883365,23.052 66.447,23.052 Z M66.447,22.467 C66.9670026,22.467 67.4328313,22.3456679 67.8445,22.103 C68.2561687,21.8603321 68.5811655,21.5223355 68.8195,21.089 C69.0578345,20.6556645 69.177,20.1616694 69.177,19.607 C69.177,19.0523306 69.0578345,18.5583355 68.8195,18.125 C68.5811655,17.6916645 68.2561687,17.3536679 67.8445,17.111 C67.4328313,16.8683321 66.9670026,16.747 66.447,16.747 C65.9269974,16.747 65.4611687,16.8683321 65.0495,17.111 C64.6378313,17.3536679 64.3128345,17.6916645 64.0745,18.125 C63.8361655,18.5583355 63.717,19.0523306 63.717,19.607 C63.717,20.1616694 63.8361655,20.6556645 64.0745,21.089 C64.3128345,21.5223355 64.6378313,21.8603321 65.0495,22.103 C65.4611687,22.3456679 65.9269974,22.467 66.447,22.467 Z M77.887,13.354 L77.887,23 L77.25,23 L77.25,21.401 C76.981332,21.9296693 76.6043358,22.3369986 76.119,22.623 C75.6336642,22.9090014 75.0833364,23.052 74.468,23.052 C73.8353302,23.052 73.2633359,22.9046681 72.752,22.61 C72.2406641,22.3153319 71.8398348,21.9080026 71.5495,21.388 C71.2591652,20.8679974 71.114,20.2743367 71.114,19.607 C71.114,18.9396633 71.2591652,18.343836 71.5495,17.8195 C71.8398348,17.295164 72.2406641,16.8878348 72.752,16.5975 C73.2633359,16.3071652 73.8353302,16.162 74.468,16.162 C75.0746697,16.162 75.6184976,16.3049986 76.0995,16.591 C76.5805024,16.8770014 76.9596653,17.2756641 77.237,17.787 L77.237,13.354 L77.887,13.354 Z M74.507,22.467 C75.0270026,22.467 75.4928313,22.3456679 75.9045,22.103 C76.3161687,21.8603321 76.6411655,21.5223355 76.8795,21.089 C77.1178345,20.6556645 77.237,20.1616694 77.237,19.607 C77.237,19.0523306 77.1178345,18.5583355 76.8795,18.125 C76.6411655,17.6916645 76.3161687,17.3536679 75.9045,17.111 C75.4928313,16.8683321 75.0270026,16.747 74.507,16.747 C73.9869974,16.747 73.5211687,16.8683321 73.1095,17.111 C72.6978313,17.3536679 72.3728345,17.6916645 72.1345,18.125 C71.8961655,18.5583355 71.777,19.0523306 71.777,19.607 C71.777,20.1616694 71.8961655,20.6556645 72.1345,21.089 C72.3728345,21.5223355 72.6978313,21.8603321 73.1095,22.103 C73.5211687,22.3456679 73.9869974,22.467 74.507,22.467 Z M86.571,16.214 L86.571,23 L85.947,23 L85.947,21.544 C85.7216655,22.020669 85.3880022,22.3911653 84.946,22.6555 C84.5039978,22.9198347 83.984003,23.052 83.386,23.052 C82.5019956,23.052 81.8086692,22.8050025 81.306,22.311 C80.8033308,21.8169975 80.552,21.106338 80.552,20.179 L80.552,16.214 L81.202,16.214 L81.202,20.127 C81.202,20.8896705 81.3969981,21.4703313 81.787,21.869 C82.177002,22.2676687 82.7273298,22.467 83.438,22.467 C84.2006705,22.467 84.8051644,22.2286691 85.2515,21.752 C85.6978356,21.2753309 85.921,20.634004 85.921,19.828 L85.921,16.214 L86.571,16.214 Z M92.018,23.052 C91.35933,23.052 90.7700026,22.9046681 90.25,22.61 C89.7299974,22.3153319 89.3226681,21.905836 89.028,21.3815 C88.7333319,20.857164 88.586,20.26567 88.586,19.607 C88.586,18.9396633 88.7333319,18.343836 89.028,17.8195 C89.3226681,17.295164 89.7299974,16.8878348 90.25,16.5975 C90.7700026,16.3071652 91.35933,16.162 92.018,16.162 C92.5640027,16.162 93.0601644,16.2681656 93.5065,16.4805 C93.9528356,16.6928344 94.3146653,17.0026646 94.592,17.41 L94.111,17.761 C93.8683321,17.4229983 93.5671685,17.1695008 93.2075,17.0005 C92.8478315,16.8314992 92.4513355,16.747 92.018,16.747 C91.4893307,16.747 91.0148354,16.8661655 90.5945,17.1045 C90.1741646,17.3428345 89.8448345,17.6786645 89.6065,18.112 C89.3681655,18.5453355 89.249,19.0436639 89.249,19.607 C89.249,20.1703361 89.3681655,20.6686645 89.6065,21.102 C89.8448345,21.5353355 90.1741646,21.8711655 90.5945,22.1095 C91.0148354,22.3478345 91.4893307,22.467 92.018,22.467 C92.4513355,22.467 92.8478315,22.3825008 93.2075,22.2135 C93.5671685,22.0444992 93.8683321,21.7910017 94.111,21.453 L94.592,21.804 C94.3146653,22.2113354 93.9528356,22.5211656 93.5065,22.7335 C93.0601644,22.9458344 92.5640027,23.052 92.018,23.052 Z M99.909,22.571 C99.7443325,22.7270008 99.5385012,22.8461663 99.2915,22.9285 C99.0444988,23.0108337 98.786668,23.052 98.518,23.052 C97.9286637,23.052 97.4736683,22.8895016 97.153,22.5645 C96.8323317,22.2394984 96.672,21.7866696 96.672,21.206 L96.672,16.773 L95.424,16.773 L95.424,16.214 L96.672,16.214 L96.672,14.732 L97.322,14.732 L97.322,16.214 L99.48,16.214 L99.48,16.773 L97.322,16.773 L97.322,21.141 C97.322,21.5830022 97.4281656,21.9188322 97.6405,22.1485 C97.8528344,22.3781678 98.1669979,22.493 98.583,22.493 C99.0076688,22.493 99.3586653,22.3673346 99.636,22.116 L99.909,22.571 Z M121.112,13.354 L121.112,23 L120.475,23 L120.475,21.401 C120.206332,21.9296693 119.829336,22.3369986 119.344,22.623 C118.858664,22.9090014 118.308336,23.052 117.693,23.052 C117.06033,23.052 116.488336,22.9046681 115.977,22.61 C115.465664,22.3153319 115.064835,21.9080026 114.7745,21.388 C114.484165,20.8679974 114.339,20.2743367 114.339,19.607 C114.339,18.9396633 114.484165,18.343836 114.7745,17.8195 C115.064835,17.295164 115.465664,16.8878348 115.977,16.5975 C116.488336,16.3071652 117.06033,16.162 117.693,16.162 C118.29967,16.162 118.843498,16.3049986 119.3245,16.591 C119.805502,16.8770014 120.184665,17.2756641 120.462,17.787 L120.462,13.354 L121.112,13.354 Z M117.732,22.467 C118.252003,22.467 118.717831,22.3456679 119.1295,22.103 C119.541169,21.8603321 119.866165,21.5223355 120.1045,21.089 C120.342835,20.6556645 120.462,20.1616694 120.462,19.607 C120.462,19.0523306 120.342835,18.5583355 120.1045,18.125 C119.866165,17.6916645 119.541169,17.3536679 119.1295,17.111 C118.717831,16.8683321 118.252003,16.747 117.732,16.747 C117.211997,16.747 116.746169,16.8683321 116.3345,17.111 C115.922831,17.3536679 115.597835,17.6916645 115.3595,18.125 C115.121165,18.5583355 115.002,19.0523306 115.002,19.607 C115.002,20.1616694 115.121165,20.6556645 115.3595,21.089 C115.597835,21.5223355 115.922831,21.8603321 116.3345,22.103 C116.746169,22.3456679 117.211997,22.467 117.732,22.467 Z M129.588,19.763 L123.751,19.763 C123.768333,20.2916693 123.902665,20.7618313 124.154,21.1735 C124.405335,21.5851687 124.745498,21.9036655 125.1745,22.129 C125.603502,22.3543345 126.086664,22.467 126.624,22.467 C127.066002,22.467 127.475498,22.3868341 127.8525,22.2265 C128.229502,22.0661659 128.543665,21.8300016 128.795,21.518 L129.172,21.947 C128.877332,22.3023351 128.506836,22.5753324 128.0605,22.766 C127.614164,22.9566676 127.131003,23.052 126.611,23.052 C125.934997,23.052 125.332669,22.9046681 124.804,22.61 C124.275331,22.3153319 123.861501,21.9080026 123.5625,21.388 C123.263499,20.8679974 123.114,20.2743367 123.114,19.607 C123.114,18.94833 123.254832,18.356836 123.5365,17.8325 C123.818168,17.308164 124.205998,16.8986681 124.7,16.604 C125.194002,16.3093319 125.748664,16.162 126.364,16.162 C126.979336,16.162 127.531831,16.3071652 128.0215,16.5975 C128.511169,16.8878348 128.896832,17.2929974 129.1785,17.813 C129.460168,18.3330026 129.601,18.92233 129.601,19.581 L129.588,19.763 Z M126.364,16.734 C125.887331,16.734 125.458335,16.8401656 125.077,17.0525 C124.695665,17.2648344 124.390168,17.5638314 124.1605,17.9495 C123.930832,18.3351686 123.798667,18.7706642 123.764,19.256 L128.964,19.256 C128.938,18.7706642 128.808001,18.3373352 128.574,17.956 C128.339999,17.5746648 128.032335,17.2756678 127.651,17.059 C127.269665,16.8423322 126.840669,16.734 126.364,16.734 Z M133.332,23.052 C132.785997,23.052 132.266002,22.9696675 131.772,22.805 C131.277998,22.6403325 130.892335,22.4323346 130.615,22.181 L130.914,21.661 C131.191335,21.8950012 131.548831,22.0899992 131.9865,22.246 C132.424169,22.4020008 132.881331,22.48 133.358,22.48 C134.04267,22.48 134.547498,22.3673345 134.8725,22.142 C135.197502,21.9166655 135.36,21.6046687 135.36,21.206 C135.36,20.9199986 135.271168,20.6946675 135.0935,20.53 C134.915832,20.3653325 134.697001,20.2440004 134.437,20.166 C134.176999,20.0879996 133.817336,20.0056671 133.358,19.919 C132.820664,19.8236662 132.387335,19.7196672 132.058,19.607 C131.728665,19.4943328 131.447001,19.3123346 131.213,19.061 C130.978999,18.8096654 130.862,18.4630022 130.862,18.021 C130.862,17.483664 131.085164,17.0395018 131.5315,16.6885 C131.977836,16.3374982 132.612663,16.162 133.436,16.162 C133.869336,16.162 134.298331,16.2226661 134.723,16.344 C135.147669,16.4653339 135.494332,16.6256657 135.763,16.825 L135.464,17.345 C135.186665,17.1456657 134.870335,16.9940005 134.515,16.89 C134.159665,16.7859995 133.795669,16.734 133.423,16.734 C132.79033,16.734 132.313668,16.8509988 131.993,17.085 C131.672332,17.3190012 131.512,17.6266648 131.512,18.008 C131.512,18.3113349 131.602999,18.5474992 131.785,18.7165 C131.967001,18.8855008 132.190165,19.0111663 132.4545,19.0935 C132.718835,19.1758337 133.089331,19.2646662 133.566,19.36 C134.094669,19.4553338 134.521498,19.5571661 134.8465,19.6655 C135.171502,19.7738339 135.446666,19.9493321 135.672,20.192 C135.897334,20.4346679 136.01,20.7683312 136.01,21.193 C136.01,21.7563361 135.776002,22.2069983 135.308,22.545 C134.839998,22.8830017 134.181338,23.052 133.332,23.052 Z M137.83,16.214 L138.48,16.214 L138.48,23 L137.83,23 L137.83,16.214 Z M138.155,14.563 C138.007666,14.563 137.882001,14.5131672 137.778,14.4135 C137.673999,14.3138328 137.622,14.1903341 137.622,14.043 C137.622,13.8956659 137.673999,13.7700005 137.778,13.666 C137.882001,13.5619995 138.007666,13.51 138.155,13.51 C138.302334,13.51 138.427999,13.5598328 138.532,13.6595 C138.636001,13.7591672 138.688,13.8826659 138.688,14.03 C138.688,14.1773341 138.636001,14.3029995 138.532,14.407 C138.427999,14.5110005 138.302334,14.563 138.155,14.563 Z M147.333,16.214 L147.333,22.272 C147.333,23.3986723 147.060003,24.230664 146.514,24.768 C145.967997,25.305336 145.144672,25.574 144.044,25.574 C143.419997,25.574 142.830669,25.4786676 142.276,25.288 C141.721331,25.0973324 141.275002,24.8330017 140.937,24.495 L141.288,24.001 C141.626002,24.3130016 142.033331,24.5556658 142.51,24.729 C142.986669,24.9023342 143.493664,24.989 144.031,24.989 C144.932338,24.989 145.599665,24.7745021 146.033,24.3455 C146.466336,23.9164979 146.683,23.2513378 146.683,22.35 L146.683,21.206 C146.405665,21.7000025 146.020002,22.081332 145.526,22.35 C145.031998,22.618668 144.477336,22.753 143.862,22.753 C143.22933,22.753 142.655169,22.6121681 142.1395,22.3305 C141.623831,22.0488319 141.218668,21.6566692 140.924,21.154 C140.629332,20.6513308 140.482,20.0836698 140.482,19.451 C140.482,18.8183302 140.629332,18.2506692 140.924,17.748 C141.218668,17.2453308 141.623831,16.8553347 142.1395,16.578 C142.655169,16.3006653 143.22933,16.162 143.862,16.162 C144.486003,16.162 145.049331,16.3006653 145.552,16.578 C146.054669,16.8553347 146.440332,17.2453308 146.709,17.748 L146.709,16.214 L147.333,16.214 Z M143.914,22.168 C144.442669,22.168 144.919331,22.0531678 145.344,21.8235 C145.768669,21.5938322 146.100165,21.2731687 146.3385,20.8615 C146.576835,20.4498313 146.696,19.9796693 146.696,19.451 C146.696,18.9223307 146.576835,18.4543354 146.3385,18.047 C146.100165,17.6396646 145.768669,17.3211678 145.344,17.0915 C144.919331,16.8618322 144.442669,16.747 143.914,16.747 C143.385331,16.747 142.910835,16.8618322 142.4905,17.0915 C142.070165,17.3211678 141.740835,17.6396646 141.5025,18.047 C141.264165,18.4543354 141.145,18.9223307 141.145,19.451 C141.145,19.9796693 141.264165,20.4498313 141.5025,20.8615 C141.740835,21.2731687 142.070165,21.5938322 142.4905,21.8235 C142.910835,22.0531678 143.385331,22.168 143.914,22.168 Z M153.404,16.162 C154.253338,16.162 154.924998,16.4089975 155.419,16.903 C155.913002,17.3970025 156.16,18.107662 156.16,19.035 L156.16,23 L155.51,23 L155.51,19.087 C155.51,18.3243295 155.317169,17.7436687 154.9315,17.345 C154.545831,16.9463313 154.006337,16.747 153.313,16.747 C152.515663,16.747 151.887336,16.9853309 151.428,17.462 C150.968664,17.9386691 150.739,18.579996 150.739,19.386 L150.739,23 L150.089,23 L150.089,16.214 L150.713,16.214 L150.713,17.683 C150.947001,17.2063309 151.295831,16.833668 151.7595,16.565 C152.223169,16.296332 152.77133,16.162 153.404,16.162 Z M164.571,19.763 L158.734,19.763 C158.751333,20.2916693 158.885665,20.7618313 159.137,21.1735 C159.388335,21.5851687 159.728498,21.9036655 160.1575,22.129 C160.586502,22.3543345 161.069664,22.467 161.607,22.467 C162.049002,22.467 162.458498,22.3868341 162.8355,22.2265 C163.212502,22.0661659 163.526665,21.8300016 163.778,21.518 L164.155,21.947 C163.860332,22.3023351 163.489836,22.5753324 163.0435,22.766 C162.597164,22.9566676 162.114003,23.052 161.594,23.052 C160.917997,23.052 160.315669,22.9046681 159.787,22.61 C159.258331,22.3153319 158.844501,21.9080026 158.5455,21.388 C158.246499,20.8679974 158.097,20.2743367 158.097,19.607 C158.097,18.94833 158.237832,18.356836 158.5195,17.8325 C158.801168,17.308164 159.188998,16.8986681 159.683,16.604 C160.177002,16.3093319 160.731664,16.162 161.347,16.162 C161.962336,16.162 162.514831,16.3071652 163.0045,16.5975 C163.494169,16.8878348 163.879832,17.2929974 164.1615,17.813 C164.443168,18.3330026 164.584,18.92233 164.584,19.581 L164.571,19.763 Z M161.347,16.734 C160.870331,16.734 160.441335,16.8401656 160.06,17.0525 C159.678665,17.2648344 159.373168,17.5638314 159.1435,17.9495 C158.913832,18.3351686 158.781667,18.7706642 158.747,19.256 L163.947,19.256 C163.921,18.7706642 163.791001,18.3373352 163.557,17.956 C163.322999,17.5746648 163.015335,17.2756678 162.634,17.059 C162.252665,16.8423322 161.823669,16.734 161.347,16.734 Z M167.223,17.696 C167.431001,17.2019975 167.755998,16.8228347 168.198,16.5585 C168.640002,16.2941653 169.17733,16.162 169.81,16.162 L169.81,16.799 L169.654,16.786 C168.899996,16.786 168.310669,17.0221643 167.886,17.4945 C167.461331,17.9668357 167.249,18.6233291 167.249,19.464 L167.249,23 L166.599,23 L166.599,16.214 L167.223,16.214 L167.223,17.696 Z" id="Productdesigner" fill="#FFFFFF" fill-rule="nonzero"></path>
                <rect id="Rectangle" fill="url(#linearGradient-4)" x="104" y="17" width="4" height="4"></rect>
            </g>
        </g>
    </g>
</svg>