<?xml version="1.0" encoding="UTF-8"?>
<svg width="109px" height="20px" viewBox="0 0 109 20" version="1.1" xmlns="http://www.w3.org/2000/svg" xmlns:xlink="http://www.w3.org/1999/xlink">
    <!-- Generator: Sketch 55.2 (78181) - https://sketchapp.com -->
    <title>logo-export</title>
    <desc>Created with Sketch.</desc>
    <defs>
        <path d="M11.2015979,0.00418604651 L11.0596392,1.82155039 C11.0580928,1.8275969 11.0565464,1.8324031 11.0580928,1.83689922 C11.0225258,2.17953488 11.0053608,3.05395349 11.0084536,3.14232558 C11.0069072,3.15472868 11.0253093,3.62573643 11.0554639,4.01054264 C11.0931959,4.23488372 6.97731959,5.7620155 4.41881443,8.5455814 C1.67226804,11.5337984 0.458505155,16.1455814 0.151546392,17.7553488 C0.0865979381,18.0979845 0,19.7593798 0,19.7593798 L5.4828866,19.7593798 C5.4828866,19.7593798 5.83608247,17.3457364 6.75634021,16.4062016 C6.76871134,16.3937984 7.31335052,15.5694574 8.56963918,14.999845 C9.81087629,14.4371576 11.0449485,14.2618088 12.2718557,14.4737984 C13.7256269,14.7110011 12.3926289,19.9144186 12.3926289,19.9144186 L18.0425258,19.9144186 L18.0425258,19.7593798 L18.0634021,19.7593798 C18.0587629,19.6460465 18.0573711,19.5314729 18.0573711,19.4167442 C18.0573711,18.0415504 18.3326289,16.7299225 18.8304124,15.536124 C19.2262887,14.5826357 19.764433,13.7051163 20.4202577,12.9285271 C20.4408247,12.9034109 20.4630928,12.8792248 20.484433,12.8544186 C20.4881443,12.8533333 20.4915464,12.851938 20.4968041,12.8525581 C20.5476804,12.7807752 20.6033505,12.7133333 20.6624227,12.6499225 C20.6653608,12.6468217 20.668299,12.6437209 20.6712371,12.6404651 C21.097732,12.1897674 21.7213918,11.9593798 22.4010309,11.9593798 C22.5153093,11.9593798 23.2040722,11.9964341 23.6669072,12.3007752 C24.198866,12.6508527 24.5053608,13.2756589 24.5151031,13.2925581 C24.5164948,13.2925581 24.4472165,11.4947287 24.4626804,11.1376744 C24.4598969,11.1173643 24.4459794,10.8424806 24.5219072,10.6613953 C24.5925773,10.4927132 24.6903093,10.4317829 24.8031959,10.3924031 C24.9143814,10.3534884 25.0736598,10.3536434 25.121134,10.3579845 C25.1259278,10.364031 25.8774742,10.3562791 26.5685567,11.3020155 C26.7895361,11.5844961 27.4356186,12.4955039 27.5601031,13.3221705 C27.7186082,14.3750388 27.3179381,15.3646512 27.228866,15.5407752 C27.0941753,15.8088372 26.9103093,16.0475969 26.6860825,16.2431008 C26.6860825,16.2431008 26.3692268,16.488062 26.1892268,16.5775194 C26.1794845,16.5824806 26.0458763,16.6446512 25.9864948,16.6672868 C25.7296392,16.7657364 25.4503608,16.819845 25.1582474,16.819845 C24.9123711,16.819845 24.6742268,16.7810853 24.4515464,16.7097674 C24.1159794,16.6026357 23.5051546,16.1113178 23.2561856,15.8742636 C23.0969072,16.1888372 23.1850515,16.4741085 23.1850515,16.4741085 C23.3443299,17.6043411 24.3069588,18.0551938 25.4543814,18.1762791 C25.9079381,18.224031 26.246134,18.1553488 26.5254124,18.0717829 C27.2910309,17.8426357 28.0697938,17.1973643 28.6048454,16.5048062 C29.2339175,15.6911628 29.5557216,14.8334884 29.5557216,14.8334884 C29.9420103,13.5927132 30.031701,12.9246512 29.9621134,12.0542636 C29.9075258,11.372093 29.7918557,9.81271318 29.3134021,8.43891473 C28.9156701,7.29643411 28.2890722,6.28635659 28.0840206,5.96248062 C27.6558247,5.28031008 27.0247423,4.47550388 26.5020619,3.86635659 C23.6181959,0.479069767 11.386701,0 9.69850515,0" id="path-1"></path>
        <linearGradient x1="0%" y1="49.999983%" x2="99.9999069%" y2="49.999983%" id="linearGradient-3">
            <stop stop-color="#EAEAEA" offset="0%"></stop>
            <stop stop-color="#7F7A81" offset="100%"></stop>
        </linearGradient>
        <linearGradient x1="50%" y1="0%" x2="50%" y2="100%" id="linearGradient-4">
            <stop stop-color="#EEEEEE" offset="0%"></stop>
            <stop stop-color="#3C3636" offset="100%"></stop>
        </linearGradient>
        <linearGradient x1="3.91764618%" y1="36.6630706%" x2="59.4568672%" y2="56.033558%" id="linearGradient-5">
            <stop stop-color="#FFFFFF" stop-opacity="0.0518192745" offset="0%"></stop>
            <stop stop-color="#89848C" offset="100%"></stop>
        </linearGradient>
        <linearGradient x1="7.72088498%" y1="23.9711322%" x2="73.8108498%" y2="72.2912827%" id="linearGradient-6">
            <stop stop-color="#EAEAEA" offset="0%"></stop>
            <stop stop-color="#7F7A81" offset="100%"></stop>
        </linearGradient>
        <linearGradient x1="7.72088498%" y1="43.2968588%" x2="73.8108498%" y2="55.7406114%" id="linearGradient-7">
            <stop stop-color="#FFFFFF" stop-opacity="0" offset="0%"></stop>
            <stop stop-color="#FFFFFF" stop-opacity="0.584653628" offset="100%"></stop>
        </linearGradient>
    </defs>
    <g id="Page-1" stroke="none" stroke-width="1" fill="none" fill-rule="evenodd">
        <g id="home-copy-5" transform="translate(-847.000000, -1459.000000)">
            <g id="logo-export" transform="translate(847.000000, 1459.000000)">
                <path d="M48.4923077,7.41538462 C48.8041041,7.41538462 49.0584606,7.51794769 49.2553846,7.72307692 C49.4523087,7.92820615 49.5507692,8.19487015 49.5507692,8.52307692 L49.5507692,15.2184615 C49.5507692,15.530258 49.4605137,15.7764094 49.28,15.9569231 C49.0994863,16.1374368 48.8615399,16.2276923 48.5661538,16.2276923 C48.2789729,16.2276923 48.0430778,16.1374368 47.8584615,15.9569231 C47.6738452,15.7764094 47.5815385,15.530258 47.5815385,15.2184615 L47.5815385,11.6 L46.1784615,14.1846154 C46.0389737,14.4471808 45.8912828,14.6338456 45.7353846,14.7446154 C45.5794864,14.8553852 45.3948729,14.9107692 45.1815385,14.9107692 C44.9682041,14.9107692 44.7835905,14.8553852 44.6276923,14.7446154 C44.4717941,14.6338456 44.3241033,14.4471808 44.1846154,14.1846154 L42.7938462,11.6738462 L42.7938462,15.2184615 C42.7938462,15.5220528 42.7015394,15.7661529 42.5169231,15.9507692 C42.3323068,16.1353855 42.0923092,16.2276923 41.7969231,16.2276923 C41.5097422,16.2276923 41.2738471,16.1374368 41.0892308,15.9569231 C40.9046145,15.7764094 40.8123077,15.530258 40.8123077,15.2184615 L40.8123077,8.52307692 C40.8123077,8.19487015 40.9128195,7.92820615 41.1138462,7.72307692 C41.3148728,7.51794769 41.5712805,7.41538462 41.8830769,7.41538462 C42.1046165,7.41538462 42.3056401,7.47897372 42.4861538,7.60615385 C42.6666676,7.73333397 42.8184609,7.91589625 42.9415385,8.15384615 L45.2061538,12.4123077 L47.4584615,8.15384615 C47.7128218,7.661536 48.0574337,7.41538462 48.4923077,7.41538462 Z M53.7011969,16.1538462 C53.364785,16.1538462 53.106326,16.0635906 52.9258123,15.8830769 C52.7452986,15.7025632 52.6550431,15.4441042 52.6550431,15.1076923 L52.6550431,8.52307692 C52.6550431,8.18666498 52.7452986,7.92820603 52.9258123,7.74769231 C53.106326,7.56717858 53.364785,7.47692308 53.7011969,7.47692308 L57.9596585,7.47692308 C58.3124807,7.47692308 58.5791447,7.55076849 58.7596585,7.69846154 C58.9401722,7.84615458 59.0304277,8.05948578 59.0304277,8.33846154 C59.0304277,8.92923372 58.6735082,9.22461538 57.9596585,9.22461538 L54.85812,9.22461538 L54.85812,10.8738462 L57.7135046,10.8738462 C58.4273543,10.8738462 58.7842738,11.1651253 58.7842738,11.7476923 C58.7842738,12.0266681 58.6940183,12.2399993 58.5135046,12.3876923 C58.3329909,12.5353854 58.0663269,12.6092308 57.7135046,12.6092308 L54.85812,12.6092308 L54.85812,14.4061538 L57.9596585,14.4061538 C58.6735082,14.4061538 59.0304277,14.7015355 59.0304277,15.2923077 C59.0304277,15.5712834 58.9401722,15.7846146 58.7596585,15.9323077 C58.5791447,16.0800007 58.3124807,16.1538462 57.9596585,16.1538462 L53.7011969,16.1538462 Z M68.1777785,7.41538462 C68.4895749,7.41538462 68.7459826,7.51794769 68.9470092,7.72307692 C69.1480359,7.92820615 69.2485477,8.19487015 69.2485477,8.52307692 L69.2485477,15.1076923 C69.2485477,15.4441042 69.1500871,15.7148708 68.9531631,15.92 C68.756239,16.1251292 68.5018826,16.2276923 68.1900862,16.2276923 C67.8208535,16.2276923 67.541882,16.1046166 67.3531631,15.8584615 L63.6116246,11.1938462 L63.6116246,15.1076923 C63.6116246,15.4441042 63.5172666,15.7148708 63.3285477,15.92 C63.1398288,16.1251292 62.8854724,16.2276923 62.5654708,16.2276923 C62.2536743,16.2276923 61.9993179,16.1251292 61.8023938,15.92 C61.6054698,15.7148708 61.5070092,15.4441042 61.5070092,15.1076923 L61.5070092,8.52307692 C61.5070092,8.19487015 61.6054698,7.92820615 61.8023938,7.72307692 C61.9993179,7.51794769 62.2536743,7.41538462 62.5654708,7.41538462 C62.918293,7.41538462 63.1931621,7.53846031 63.3900862,7.78461538 L67.1316246,12.4369231 L67.1316246,8.52307692 C67.1316246,8.18666498 67.2280339,7.91794972 67.4208554,7.71692308 C67.6136769,7.51589643 67.865982,7.41538462 68.1777785,7.41538462 Z M75.4297446,16.2153846 C75.0851275,16.2153846 74.8082072,16.1148728 74.5989754,15.9138462 C74.3897436,15.7128195 74.2851292,15.4441042 74.2851292,15.1076923 L74.2851292,9.31076923 L72.5497446,9.31076923 C72.1887172,9.31076923 71.9200019,9.23487255 71.7435908,9.08307692 C71.5671796,8.93128129 71.4789754,8.69948874 71.4789754,8.38769231 C71.4789754,8.07589588 71.5671796,7.84615458 71.7435908,7.69846154 C71.9200019,7.55076849 72.1887172,7.47692308 72.5497446,7.47692308 L78.3097446,7.47692308 C78.6707721,7.47692308 78.9394873,7.55076849 79.1158985,7.69846154 C79.2923096,7.84615458 79.3805138,8.07589588 79.3805138,8.38769231 C79.3805138,8.69948874 79.2923096,8.93128129 79.1158985,9.08307692 C78.9394873,9.23487255 78.6707721,9.31076923 78.3097446,9.31076923 L76.57436,9.31076923 L76.57436,15.1076923 C76.57436,15.4441042 76.4697457,15.7128195 76.2605138,15.9138462 C76.051282,16.1148728 75.7743617,16.2153846 75.4297446,16.2153846 Z M82.6570954,16.1538462 C82.3206834,16.1538462 82.0622245,16.0635906 81.8817108,15.8830769 C81.701197,15.7025632 81.6109415,15.4441042 81.6109415,15.1076923 L81.6109415,8.52307692 C81.6109415,8.18666498 81.701197,7.92820603 81.8817108,7.74769231 C82.0622245,7.56717858 82.3206834,7.47692308 82.6570954,7.47692308 L86.9155569,7.47692308 C87.2683792,7.47692308 87.5350432,7.55076849 87.7155569,7.69846154 C87.8960706,7.84615458 87.9863262,8.05948578 87.9863262,8.33846154 C87.9863262,8.92923372 87.6294066,9.22461538 86.9155569,9.22461538 L83.8140185,9.22461538 L83.8140185,10.8738462 L86.6694031,10.8738462 C87.3832528,10.8738462 87.7401723,11.1651253 87.7401723,11.7476923 C87.7401723,12.0266681 87.6499168,12.2399993 87.4694031,12.3876923 C87.2888894,12.5353854 87.0222254,12.6092308 86.6694031,12.6092308 L83.8140185,12.6092308 L83.8140185,14.4061538 L86.9155569,14.4061538 C87.6294066,14.4061538 87.9863262,14.7015355 87.9863262,15.2923077 C87.9863262,15.5712834 87.8960706,15.7846146 87.7155569,15.9323077 C87.5350432,16.0800007 87.2683792,16.1538462 86.9155569,16.1538462 L82.6570954,16.1538462 Z M91.5090615,16.1538462 C91.1726496,16.1538462 90.9141906,16.0635906 90.7336769,15.8830769 C90.5531632,15.7025632 90.4629077,15.4441042 90.4629077,15.1076923 L90.4629077,8.52307692 C90.4629077,8.18666498 90.5531632,7.92820603 90.7336769,7.74769231 C90.9141906,7.56717858 91.1726496,7.47692308 91.5090615,7.47692308 L93.9952154,7.47692308 C94.9552202,7.47692308 95.7818786,7.65128031 96.4752154,8 C97.1685522,8.34871969 97.6998289,8.84717625 98.0690615,9.49538462 C98.4382942,10.143593 98.6229077,10.9148673 98.6229077,11.8092308 C98.6229077,12.7117994 98.4403454,13.4892275 98.0752154,14.1415385 C97.7100854,14.7938494 97.1808599,15.292306 96.4875231,15.6369231 C95.7941863,15.9815402 94.9634254,16.1538462 93.9952154,16.1538462 L91.5090615,16.1538462 Z M93.8352154,14.3323077 C94.6803478,14.3323077 95.3141876,14.1251303 95.7367538,13.7107692 C96.1593201,13.2964082 96.3706,12.6625684 96.3706,11.8092308 C96.3706,10.9558932 96.1593201,10.3241046 95.7367538,9.91384615 C95.3141876,9.50358769 94.6803478,9.29846154 93.8352154,9.29846154 L92.7275231,9.29846154 L92.7275231,14.3323077 L93.8352154,14.3323077 Z M106.391797,7.77230769 C106.605131,7.52615262 106.855385,7.40307692 107.142566,7.40307692 C107.413337,7.40307692 107.657437,7.50769126 107.874874,7.71692308 C108.092311,7.92615489 108.201028,8.16615249 108.201028,8.43692308 C108.201028,8.67487298 108.110772,8.90051175 107.930258,9.11384615 L105.345643,12.1046154 L105.345643,15.1076923 C105.345643,15.4687198 105.241029,15.7456401 105.031797,15.9384615 C104.822565,16.131283 104.55385,16.2276923 104.225643,16.2276923 C103.889231,16.2276923 103.614362,16.131283 103.401028,15.9384615 C103.187693,15.7456401 103.081028,15.4687198 103.081028,15.1076923 L103.081028,12.1046154 L100.521028,9.11384615 C100.332309,8.90051175 100.237951,8.67077046 100.237951,8.42461538 C100.237951,8.1538448 100.344616,7.91589846 100.557951,7.71076923 C100.771285,7.50564 101.013334,7.40307692 101.284105,7.40307692 C101.571286,7.40307692 101.821539,7.52615262 102.034874,7.77230769 L104.213335,10.3569231 L106.391797,7.77230769 Z" id="MENTEDY" fill="#898989" fill-rule="nonzero"></path>
                <g id="logo-white">
                    <mask id="mask-2" fill="white">
                        <use xlink:href="#path-1"></use>
                    </mask>
                    <g id="Clip-2"></g>
                    <path d="M11.0580928,1.83689922 C11.0225258,2.17953488 11.0053608,3.05395349 11.0084536,3.14232558 C11.0069072,3.15472868 11.0253093,3.62573643 11.0554639,4.01054264 C11.0931959,4.23488372 6.97731959,5.7620155 4.41881443,8.5455814 C1.67226804,11.5337984 0.458505155,16.1455814 0.151546392,17.7553488 C0.0865979381,18.0979845 0,19.7593798 0,19.7593798 L5.4828866,19.7593798 C5.4828866,19.7593798 5.83608247,17.3457364 6.75634021,16.4062016 C6.76871134,16.3937984 7.31335052,15.5694574 8.56963918,14.999845 C10.4314948,14.155814 12.3926289,19.9144186 12.3926289,19.9144186 L18.0425258,19.9144186 L18.0425258,19.7593798 L18.0634021,19.7593798 C18.0587629,19.6460465 18.0573711,19.5314729 18.0573711,19.4167442 C18.0573711,18.0415504 18.3326289,16.7299225 18.8304124,15.536124 C19.2262887,14.5826357 19.764433,13.7051163 20.4202577,12.9285271 C20.4408247,12.9034109 20.4630928,12.8792248 20.484433,12.8544186 C20.4881443,12.8533333 20.4915464,12.851938 20.4968041,12.8525581 C20.5476804,12.7807752 20.6033505,12.7133333 20.6624227,12.6499225 C20.6653608,12.6468217 20.668299,12.6437209 20.6712371,12.6404651 C21.097732,12.1897674 21.7213918,11.9593798 22.4010309,11.9593798 C22.5153093,11.9593798 23.2040722,11.9964341 23.6669072,12.3007752 C24.198866,12.6508527 24.5053608,13.2756589 24.5151031,13.2925581 C24.5164948,13.2925581 24.4472165,11.4947287 24.4626804,11.1376744 C24.4598969,11.1173643 24.4459794,10.8424806 24.5219072,10.6613953 C24.5925773,10.4927132 24.6903093,10.4317829 24.8031959,10.3924031 C24.9143814,10.3534884 25.0736598,10.3536434 25.121134,10.3579845 C25.1259278,10.364031 25.8774742,10.3562791 26.5685567,11.3020155 C26.7895361,11.5844961 27.4356186,12.4955039 27.5601031,13.3221705 C27.7186082,14.3750388 27.3179381,15.3646512 27.228866,15.5407752 C27.0941753,15.8088372 26.9103093,16.0475969 26.6860825,16.2431008 C26.6860825,16.2431008 26.3692268,16.488062 26.1892268,16.5775194 C26.1794845,16.5824806 26.0458763,16.6446512 25.9864948,16.6672868 C25.7296392,16.7657364 25.4503608,16.819845 25.1582474,16.819845 C24.9123711,16.819845 24.6742268,16.7810853 24.4515464,16.7097674 C24.1159794,16.6026357 23.5051546,16.1113178 23.2561856,15.8742636 C23.0969072,16.1888372 23.1850515,16.4741085 23.1850515,16.4741085 C23.3443299,17.6043411 24.3069588,18.0551938 25.4543814,18.1762791 C25.9079381,18.224031 26.246134,18.1553488 26.5254124,18.0717829 C27.2910309,17.8426357 28.0697938,17.1973643 28.6048454,16.5048062 C29.2339175,15.6911628 29.5557216,14.8334884 29.5557216,14.8334884 C29.9420103,13.5927132 30.031701,12.9246512 29.9621134,12.0542636 C29.9075258,11.372093 29.7918557,9.81271318 29.3134021,8.43891473 C28.9156701,7.29643411 28.2890722,6.28635659 28.0840206,5.96248062 C27.6558247,5.28031008 27.0247423,4.47550388 26.5020619,3.86635659 C23.6181959,0.479069767 13.087732,0 11.3995361,0 C11.304433,0 11.2374742,0.0015503876 11.2015979,0.00418604651 C11.1048969,1.22299742 11.0570619,1.83390181 11.0580928,1.83689922 Z" id="Fill-1" fill="url(#linearGradient-3)" mask="url(#mask-2)"></path>
                    <path d="M6.05686664,17.5472526 C7.11058598,13.0237647 9.16991296,9.86863781 12.2348476,8.081872 C15.2997822,6.29510618 19.0886725,7.50090662 23.6015186,11.6992733 L24.5911342,13.2925581 C23.992473,12.1993203 23.0786475,11.7796685 21.8496577,12.0336029 C20.6206679,12.2875373 20.0292171,13.5942752 20.0753052,15.9538165 L17.9100719,21.2403101 L9.5654419,20.842601 L5.38851022,20.1741791 L6.05686664,17.5472526 Z" id="Path-48" fill="url(#linearGradient-4)" opacity="0.122163318" mask="url(#mask-2)"></path>
                    <path d="M9.70774804,5.86171193 C10.913758,8.68165727 13.2049619,9.91969074 16.5813597,9.57581233 C19.8295115,9.32857703 22.5255465,10.8269476 24.6694649,14.0709241 L22.0168529,17.201323 L26.7622755,22.8918381 L34.9025925,14.0695421 L31.9805619,3.86339744 L10.1982266,-0.878818291 L9.70774804,5.86171193 Z" id="Path-43" fill="url(#linearGradient-5)" mask="url(#mask-2)" transform="translate(22.305170, 11.006510) rotate(-3.000000) translate(-22.305170, -11.006510) "></path>
                    <path d="M11.0329577,5.18286955 C11.3317501,8.27575187 13.1693101,9.65048059 16.5456378,9.30705573 C19.7937333,9.06025734 22.4502217,10.3887581 24.5151031,13.2925581 L21.8629315,16.4226209 L26.6090871,22.1138172 L34.7481582,13.2925581 L31.8247735,3.0859466 L10.0419532,-1.65924439 L11.0329577,5.18286955 Z" id="Path-44" fill="url(#linearGradient-6)" mask="url(#mask-2)"></path>
                    <ellipse id="Oval" fill="#FFFFFF" mask="url(#mask-2)" transform="translate(23.844171, 6.124031) rotate(10.000000) translate(-23.844171, -6.124031) " cx="23.8441713" cy="6.12403101" rx="1" ry="1"></ellipse>
                    <path d="M25.6422365,11.7830542 C22.8124108,8.17209433 19.841121,6.50247457 16.7283671,6.77419497 C14.6690791,6.96147179 13.1712392,7.39736413 12.2348476,8.081872 C12.8245416,8.69193897 13.3627701,9.06446003 13.8495332,9.19943519 C14.3362962,9.33441034 15.1039281,9.37612632 16.152429,9.32458314 C19.7153071,8.95178318 22.5028651,10.2744415 24.5151031,13.2925581 C24.4985621,13.2611089 24.4810879,12.8528918 24.4626804,12.067907" id="Path-46" fill="url(#linearGradient-7)" mask="url(#mask-2)"></path>
                </g>
            </g>
        </g>
    </g>
</svg>