<svg width="108" height="21" viewBox="0 0 108 21" fill="none" xmlns="http://www.w3.org/2000/svg">
<mask id="mask0_2629_192" style="mask-type:alpha" maskUnits="userSpaceOnUse" x="0" y="0" width="30" height="20">
<path d="M11.1682 0.0251744L11.0266 1.84843C11.0251 1.8545 11.0236 1.85932 11.0251 1.86383C10.9896 2.20758 10.9725 3.08483 10.9756 3.17349C10.9741 3.18594 10.9924 3.65847 11.0225 4.04453C11.0601 4.26959 6.9565 5.80168 4.40563 8.59427C1.66728 11.5922 0.457137 16.2189 0.151094 17.8339C0.0863395 18.1777 0 19.8444 0 19.8444H5.46652C5.46652 19.8444 5.81867 17.423 6.73618 16.4804C6.74851 16.4679 7.29153 15.6409 8.54407 15.0695C9.7816 14.505 11.012 14.329 12.2352 14.5417C13.6847 14.7797 12.3556 20 12.3556 20H17.9887V19.8444H18.0095C18.0049 19.7307 18.0035 19.6158 18.0035 19.5007C18.0035 18.121 18.2779 16.8052 18.7742 15.6075C19.1689 14.6509 19.7055 13.7705 20.3593 12.9914C20.3798 12.9662 20.402 12.942 20.4233 12.9171C20.427 12.916 20.4304 12.9146 20.4356 12.9152C20.4864 12.8432 20.5419 12.7755 20.6008 12.7119C20.6037 12.7088 20.6066 12.7057 20.6095 12.7024C21.0348 12.2503 21.6566 12.0191 22.3342 12.0191C22.4481 12.0191 23.1348 12.0563 23.5963 12.3616C24.1267 12.7129 24.4322 13.3397 24.4419 13.3566C24.4433 13.3566 24.3743 11.553 24.3897 11.1948C24.3869 11.1744 24.373 10.8986 24.4487 10.717C24.5192 10.5477 24.6166 10.4866 24.7292 10.4471C24.84 10.408 24.9988 10.4082 25.0462 10.4126C25.0509 10.4186 25.8002 10.4108 26.4893 11.3596C26.7096 11.643 27.3537 12.557 27.4779 13.3864C27.6359 14.4426 27.2364 15.4355 27.1476 15.6122C27.0133 15.8811 26.83 16.1206 26.6064 16.3168C26.6064 16.3168 26.2905 16.5625 26.1111 16.6523C26.1014 16.6572 25.9681 16.7196 25.9089 16.7423C25.6529 16.8411 25.3744 16.8954 25.0832 16.8954C24.838 16.8954 24.6006 16.8565 24.3786 16.7849C24.044 16.6775 23.435 16.1846 23.1868 15.9467C23.028 16.2623 23.1159 16.5485 23.1159 16.5485C23.2747 17.6824 24.2344 18.1347 25.3784 18.2562C25.8306 18.3041 26.1678 18.2352 26.4463 18.1514C27.2096 17.9215 27.986 17.2741 28.5195 16.5793C29.1467 15.763 29.4675 14.9026 29.4675 14.9026C29.8527 13.6578 29.9421 12.9875 29.8727 12.1143C29.8183 11.43 29.7029 9.86552 29.2259 8.48726C28.8294 7.34107 28.2046 6.32772 28.0002 6.00279C27.5733 5.31841 26.9441 4.51099 26.423 3.89987C25.0614 2.29067 21.7015 1.02693 18.2661 0.467433C16.4765 0.175972 14.1127 0.0201613 11.1748 0" fill="white"/>
</mask>
<g mask="url(#mask0_2629_192)">
<path d="M11.1682 0.0251744L11.0266 1.84843C11.0251 1.8545 11.0236 1.85932 11.0251 1.86383C10.9896 2.20758 10.9725 3.08483 10.9756 3.17349C10.9741 3.18594 10.9924 3.65847 11.0225 4.04453C11.0601 4.26959 6.9565 5.80168 4.40563 8.59427C1.66728 11.5922 0.457137 16.2189 0.151094 17.8339C0.0863395 18.1777 0 19.8444 0 19.8444H5.46652C5.46652 19.8444 5.81867 17.423 6.73618 16.4804C6.74851 16.4679 7.29153 15.6409 8.54407 15.0695C9.7816 14.505 11.012 14.329 12.2352 14.5417C13.6847 14.7797 12.3556 20 12.3556 20H17.9887V19.8444H18.0095C18.0049 19.7307 18.0035 19.6158 18.0035 19.5007C18.0035 18.121 18.2779 16.8052 18.7742 15.6075C19.1689 14.6509 19.7055 13.7705 20.3593 12.9914C20.3798 12.9662 20.402 12.942 20.4233 12.9171C20.427 12.916 20.4304 12.9146 20.4356 12.9152C20.4864 12.8432 20.5419 12.7755 20.6008 12.7119C20.6037 12.7088 20.6066 12.7057 20.6095 12.7024C21.0348 12.2503 21.6566 12.0191 22.3342 12.0191C22.4481 12.0191 23.1348 12.0563 23.5963 12.3616C24.1267 12.7129 24.4322 13.3397 24.4419 13.3566C24.4433 13.3566 24.3743 11.553 24.3897 11.1948C24.3869 11.1744 24.373 10.8986 24.4487 10.717C24.5192 10.5477 24.6166 10.4866 24.7292 10.4471C24.84 10.408 24.9988 10.4082 25.0462 10.4126C25.0509 10.4186 25.8002 10.4108 26.4893 11.3596C26.7096 11.643 27.3537 12.557 27.4779 13.3864C27.6359 14.4426 27.2364 15.4355 27.1476 15.6122C27.0133 15.8811 26.83 16.1206 26.6064 16.3168C26.6064 16.3168 26.2905 16.5625 26.1111 16.6523C26.1014 16.6572 25.9681 16.7196 25.9089 16.7423C25.6529 16.8411 25.3744 16.8954 25.0832 16.8954C24.838 16.8954 24.6006 16.8565 24.3786 16.7849C24.044 16.6775 23.435 16.1846 23.1868 15.9467C23.028 16.2623 23.1159 16.5485 23.1159 16.5485C23.2747 17.6824 24.2344 18.1347 25.3784 18.2562C25.8306 18.3041 26.1678 18.2352 26.4463 18.1514C27.2096 17.9215 27.986 17.2741 28.5195 16.5793C29.1467 15.763 29.4675 14.9026 29.4675 14.9026C29.8527 13.6578 29.9421 12.9875 29.8727 12.1143C29.8183 11.43 29.7029 9.86552 29.2259 8.48726C28.8294 7.34107 28.2046 6.32772 28.0002 6.00279C27.5733 5.31841 26.9441 4.51099 26.423 3.89987C25.0614 2.29067 21.7015 1.02693 18.2661 0.467433C16.4765 0.175972 14.1127 0.0201613 11.1748 0" fill="#2F2A35"/>
<path opacity="0.122163" fill-rule="evenodd" clip-rule="evenodd" d="M5.76358 17.7602C6.80383 13.204 8.83685 10.0261 11.8626 8.22647C14.8884 6.42681 18.7582 7.66182 23.4721 11.9315L24.6079 13.4684C23.6523 12.3715 22.5679 11.951 21.3546 12.2067C20.1413 12.4625 19.5574 13.7787 19.6029 16.1552L17.4653 21.4799L9.22732 21.0793L5.10376 20.4061L5.76358 17.7602Z" fill="url(#paint0_linear_2629_192)"/>
<path fill-rule="evenodd" clip-rule="evenodd" d="M11.2204 5.43813C11.5211 8.5252 13.3706 9.89734 16.7689 9.55456C20.0382 9.30823 22.712 10.6342 24.7903 13.5326L22.1209 16.6567L26.8979 22.3372L35.09 13.5326L32.1476 3.34515L10.2229 -1.39111L11.2204 5.43813Z" fill="url(#paint1_linear_2629_192)"/>
<path opacity="0.65425" fill-rule="evenodd" clip-rule="evenodd" d="M25.2973 12.0062C22.5186 8.32537 19.601 6.62343 16.5446 6.90041C14.5225 7.09132 13.0518 7.53564 12.1323 8.2334C12.7114 8.85528 13.2398 9.23501 13.7178 9.37259C14.1958 9.51018 14.9346 9.62979 15.9343 9.73142C19.5845 9.11041 22.3975 10.3382 24.3734 13.4147C24.3572 13.3826 24.5658 13.4347 24.9994 13.5709" fill="url(#paint2_linear_2629_192)"/>
<path d="M23.6931 6.95565C24.1296 7.03302 24.5375 6.78779 24.6041 6.40792C24.6707 6.02805 24.3709 5.65739 23.9344 5.58002C23.4979 5.50266 23.09 5.74789 23.0234 6.12775C22.9568 6.50762 23.2566 6.87828 23.6931 6.95565Z" fill="white"/>
</g>
<path d="M42.3373 5.6146C42.5344 5.97604 42.759 6.42511 43.0109 6.9618C43.2737 7.48753 43.5421 8.06255 43.8159 8.68686C44.1007 9.30022 44.38 9.93 44.6538 10.5762C44.9276 11.2224 45.185 11.8303 45.426 12.3999C45.6669 11.8303 45.9243 11.2224 46.1981 10.5762C46.472 9.93 46.7458 9.30022 47.0196 8.68686C47.3044 8.06255 47.5727 7.48753 47.8246 6.9618C48.0875 6.42511 48.3175 5.97604 48.5147 5.6146H50.8476C50.9571 6.37034 51.0557 7.21919 51.1433 8.16113C51.2419 9.09211 51.324 10.0669 51.3898 11.0855C51.4664 12.0932 51.5322 13.1063 51.5869 14.1249C51.6526 15.1435 51.7074 16.1019 51.7512 17H49.254C49.2211 15.8938 49.1773 14.689 49.1225 13.3856C49.0678 12.0822 48.9856 10.7679 48.8761 9.44261C48.6789 9.90262 48.4599 10.4119 48.2189 10.9705C47.978 11.5291 47.737 12.0877 47.496 12.6463C47.266 13.2049 47.0415 13.7416 46.8224 14.2564C46.6034 14.7602 46.4172 15.1928 46.2639 15.5543H44.4731C44.3197 15.1928 44.1335 14.7602 43.9145 14.2564C43.6954 13.7416 43.4654 13.2049 43.2245 12.6463C42.9944 12.0877 42.759 11.5291 42.518 10.9705C42.277 10.4119 42.058 9.90262 41.8608 9.44261C41.7513 10.7679 41.6692 12.0822 41.6144 13.3856C41.5596 14.689 41.5158 15.8938 41.483 17H38.9857C39.0295 16.1019 39.0788 15.1435 39.1336 14.1249C39.1993 13.1063 39.265 12.0932 39.3307 11.0855C39.4074 10.0669 39.4895 9.09211 39.5772 8.16113C39.6757 7.21919 39.7798 6.37034 39.8893 5.6146H42.3373Z" fill="#1E103A"/>
<path d="M53.4838 12.7449C53.4838 11.9782 53.5989 11.3101 53.8289 10.7405C54.0698 10.16 54.382 9.67809 54.7653 9.29474C55.1487 8.91139 55.5868 8.62114 56.0797 8.42399C56.5835 8.22684 57.0983 8.12827 57.624 8.12827C58.8507 8.12827 59.82 8.50614 60.532 9.26188C61.2439 10.0067 61.5999 11.1074 61.5999 12.5642C61.5999 12.7065 61.5944 12.8654 61.5834 13.0406C61.5725 13.2049 61.5615 13.3528 61.5506 13.4842H55.9975C56.0523 13.988 56.2878 14.3878 56.704 14.6835C57.1202 14.9792 57.6788 15.1271 58.3798 15.1271C58.8288 15.1271 59.2669 15.0888 59.6941 15.0121C60.1322 14.9245 60.4882 14.8204 60.762 14.6999L61.0906 16.6879C60.9591 16.7536 60.7839 16.8193 60.5648 16.885C60.3458 16.9508 60.0993 17.0055 59.8255 17.0493C59.5627 17.1041 59.2779 17.1479 58.9712 17.1808C58.6645 17.2136 58.3578 17.23 58.0512 17.23C57.2735 17.23 56.5944 17.115 56.0139 16.885C55.4444 16.655 54.968 16.3429 54.5846 15.9486C54.2122 15.5433 53.9329 15.0669 53.7467 14.5192C53.5715 13.9716 53.4838 13.3801 53.4838 12.7449ZM59.2341 11.8084C59.2231 11.6003 59.1848 11.3977 59.1191 11.2005C59.0643 11.0034 58.9712 10.8281 58.8398 10.6748C58.7193 10.5215 58.5605 10.3955 58.3633 10.2969C58.1771 10.1983 57.9416 10.1491 57.6569 10.1491C57.383 10.1491 57.1476 10.1983 56.9504 10.2969C56.7533 10.3845 56.589 10.505 56.4575 10.6584C56.3261 10.8117 56.222 10.9924 56.1454 11.2005C56.0797 11.3977 56.0304 11.6003 55.9975 11.8084H59.2341Z" fill="#1E103A"/>
<path d="M63.489 8.654C63.9052 8.53352 64.4419 8.42399 65.099 8.32542C65.7562 8.21589 66.4462 8.16113 67.1691 8.16113C67.903 8.16113 68.5108 8.2597 68.9928 8.45685C69.4856 8.64305 69.8745 8.91139 70.1592 9.26188C70.444 9.61237 70.6466 10.0286 70.7671 10.5105C70.8876 10.9924 70.9478 11.5291 70.9478 12.1206V17H68.4999V12.4163C68.4999 11.6277 68.3958 11.0691 68.1877 10.7405C67.9796 10.4119 67.5908 10.2476 67.0213 10.2476C66.846 10.2476 66.6598 10.2586 66.4627 10.2805C66.2655 10.2914 66.0903 10.3079 65.9369 10.3298V17H63.489V8.654Z" fill="#1E103A"/>
<path d="M73.0814 6.20605L75.5294 5.81175V8.35828H78.4702V10.3955H75.5294V13.4349C75.5294 13.9497 75.617 14.3604 75.7923 14.6671C75.9785 14.9738 76.3454 15.1271 76.893 15.1271C77.1559 15.1271 77.4242 15.1052 77.6981 15.0614C77.9828 15.0066 78.2402 14.9354 78.4702 14.8478L78.8152 16.7536C78.5195 16.8741 78.1909 16.9781 77.8295 17.0658C77.468 17.1534 77.0245 17.1972 76.4987 17.1972C75.8306 17.1972 75.2775 17.1096 74.8394 16.9343C74.4013 16.7481 74.0508 16.4962 73.7879 16.1786C73.525 15.85 73.3388 15.4557 73.2293 14.9957C73.1307 14.5357 73.0814 14.0264 73.0814 13.4678V6.20605Z" fill="#1E103A"/>
<path d="M79.7321 12.7449C79.7321 11.9782 79.8471 11.3101 80.0771 10.7405C80.318 10.16 80.6302 9.67809 81.0135 9.29474C81.3969 8.91139 81.835 8.62114 82.3279 8.42399C82.8317 8.22684 83.3465 8.12827 83.8722 8.12827C85.0989 8.12827 86.0683 8.50614 86.7802 9.26188C87.4921 10.0067 87.8481 11.1074 87.8481 12.5642C87.8481 12.7065 87.8426 12.8654 87.8317 13.0406C87.8207 13.2049 87.8098 13.3528 87.7988 13.4842H82.2457C82.3005 13.988 82.536 14.3878 82.9522 14.6835C83.3684 14.9792 83.927 15.1271 84.628 15.1271C85.077 15.1271 85.5151 15.0888 85.9423 15.0121C86.3804 14.9245 86.7364 14.8204 87.0102 14.6999L87.3388 16.6879C87.2074 16.7536 87.0321 16.8193 86.8131 16.885C86.594 16.9508 86.3476 17.0055 86.0737 17.0493C85.8109 17.1041 85.5261 17.1479 85.2194 17.1808C84.9127 17.2136 84.6061 17.23 84.2994 17.23C83.5217 17.23 82.8427 17.115 82.2622 16.885C81.6926 16.655 81.2162 16.3429 80.8328 15.9486C80.4604 15.5433 80.1811 15.0669 79.9949 14.5192C79.8197 13.9716 79.7321 13.3801 79.7321 12.7449ZM85.4823 11.8084C85.4713 11.6003 85.433 11.3977 85.3673 11.2005C85.3125 11.0034 85.2194 10.8281 85.088 10.6748C84.9675 10.5215 84.8087 10.3955 84.6115 10.2969C84.4253 10.1983 84.1899 10.1491 83.9051 10.1491C83.6313 10.1491 83.3958 10.1983 83.1986 10.2969C83.0015 10.3845 82.8372 10.505 82.7058 10.6584C82.5743 10.8117 82.4703 10.9924 82.3936 11.2005C82.3279 11.3977 82.2786 11.6003 82.2457 11.8084H85.4823Z" fill="#1E103A"/>
<path d="M91.8237 12.6134C91.8237 13.3692 91.9935 13.9771 92.333 14.4371C92.6725 14.8971 93.1764 15.1271 93.8445 15.1271C94.0636 15.1271 94.2662 15.1216 94.4524 15.1107C94.6386 15.0888 94.7919 15.0669 94.9124 15.045V10.5926C94.7591 10.4941 94.5564 10.4119 94.3045 10.3462C94.0636 10.2805 93.8171 10.2476 93.5652 10.2476C92.4042 10.2476 91.8237 11.0362 91.8237 12.6134ZM97.3603 16.7207C97.1413 16.7865 96.8894 16.8522 96.6046 16.9179C96.3198 16.9727 96.0186 17.0219 95.701 17.0658C95.3943 17.1096 95.0767 17.1424 94.7481 17.1643C94.4305 17.1972 94.1238 17.2136 93.8281 17.2136C93.1161 17.2136 92.4809 17.1096 91.9223 16.9015C91.3637 16.6934 90.8927 16.3976 90.5094 16.0143C90.126 15.62 89.8303 15.149 89.6222 14.6014C89.425 14.0428 89.3265 13.4185 89.3265 12.7284C89.3265 12.0275 89.4141 11.3977 89.5893 10.8391C89.7646 10.2695 90.0165 9.78762 90.3451 9.39332C90.6737 8.99902 91.0734 8.69781 91.5444 8.48971C92.0263 8.28161 92.574 8.17756 93.1873 8.17756C93.5269 8.17756 93.8281 8.21042 94.0909 8.27613C94.3648 8.34185 94.6386 8.43495 94.9124 8.55543V4.64528L97.3603 4.25098V16.7207Z" fill="#1E103A"/>
<path d="M107.068 8.35828C106.575 10.0231 106.061 11.5839 105.524 13.0406C104.987 14.4973 104.401 15.9102 103.766 17.2793C103.536 17.7722 103.306 18.1884 103.076 18.528C102.846 18.8784 102.594 19.1632 102.32 19.3823C102.046 19.6123 101.734 19.7766 101.384 19.8751C101.044 19.9847 100.644 20.0394 100.184 20.0394C99.801 20.0394 99.4451 20.0011 99.1165 19.9244C98.7988 19.8587 98.536 19.782 98.3279 19.6944L98.755 17.7394C99.0069 17.827 99.2315 17.8872 99.4286 17.9201C99.6258 17.9529 99.8339 17.9694 100.053 17.9694C100.491 17.9694 100.825 17.8489 101.055 17.6079C101.296 17.3779 101.499 17.0548 101.663 16.6386C101.104 15.5433 100.546 14.3166 99.9872 12.9585C99.4286 11.5894 98.9029 10.056 98.41 8.35828H101.006C101.115 8.78544 101.241 9.25093 101.384 9.75476C101.537 10.2476 101.696 10.7515 101.86 11.2662C102.024 11.7701 102.189 12.263 102.353 12.7449C102.528 13.2268 102.693 13.6649 102.846 14.0592C102.988 13.6649 103.136 13.2268 103.289 12.7449C103.443 12.263 103.591 11.7701 103.733 11.2662C103.886 10.7515 104.029 10.2476 104.16 9.75476C104.303 9.25093 104.429 8.78544 104.538 8.35828H107.068Z" fill="#1E103A"/>
<defs>
<linearGradient id="paint0_linear_2629_192" x1="14.8558" y1="7.42603" x2="14.8558" y2="21.4799" gradientUnits="userSpaceOnUse">
<stop stop-color="#EEEEEE"/>
<stop offset="1" stop-color="#3C3636"/>
</linearGradient>
<linearGradient id="paint1_linear_2629_192" x1="12.1429" y1="4.46175" x2="28.0519" y2="16.326" gradientUnits="userSpaceOnUse">
<stop stop-color="#A1A1A1"/>
<stop offset="1" stop-color="#403B45"/>
</linearGradient>
<linearGradient id="paint2_linear_2629_192" x1="15.4146" y1="9.91565" x2="21.1014" y2="12.3688" gradientUnits="userSpaceOnUse">
<stop stop-color="#68616E"/>
<stop offset="1" stop-color="#2F2A35"/>
</linearGradient>
</defs>
</svg>
