<svg width="53" height="39" viewBox="0 0 53 39" fill="none" xmlns="http://www.w3.org/2000/svg">
<rect x="6.48438" y="16.7344" width="41.9375" height="11.4375" rx="3" fill="url(#paint0_linear)" fill-opacity="0.5"/>
<rect width="41.9375" height="11.4375" rx="3" transform="matrix(-1 0 0 1 46.9922 0.53125)" fill="url(#paint1_linear)" fill-opacity="0.5"/>
<rect x="0.289062" y="32.9375" width="52.4219" height="5.71875" rx="2.85938" fill="url(#paint2_linear)"/>
<line x1="27.2266" y1="16.9609" x2="36.2578" y2="16.9609" stroke="#4AD3F4" stroke-width="0.5" stroke-linecap="round"/>
<line x1="38.6641" y1="16.9609" x2="46.7422" y2="16.9609" stroke="#4AD3F4" stroke-width="0.5" stroke-linecap="round"/>
<line x1="15.3125" y1="27.9219" x2="31.9688" y2="27.9219" stroke="#4AD3F4" stroke-width="0.5" stroke-linecap="round"/>
<line x1="34.375" y1="27.9219" x2="39.1172" y2="27.9219" stroke="#4AD3F4" stroke-width="0.5" stroke-linecap="round"/>
<line x1="21.9844" y1="22.2031" x2="39.1172" y2="22.2031" stroke="#4AD3F4" stroke-width="0.5" stroke-linecap="round"/>
<line x1="0.25" y1="-0.25" x2="9.28125" y2="-0.25" transform="matrix(-1 8.74228e-08 8.74228e-08 1 25.5469 1.00781)" stroke="#101017" stroke-width="0.5" stroke-linecap="round"/>
<line x1="0.25" y1="-0.25" x2="8.32812" y2="-0.25" transform="matrix(-1 0 0 1 14.1094 1.00781)" stroke="#101017" stroke-width="0.5" stroke-linecap="round"/>
<line x1="0.25" y1="-0.25" x2="16.9062" y2="-0.25" transform="matrix(-1 0 0 1 37.4609 11.9688)" stroke="#101017" stroke-width="0.5" stroke-linecap="round"/>
<line x1="0.25" y1="-0.25" x2="4.99219" y2="-0.25" transform="matrix(-1 0 0 1 18.3984 11.9688)" stroke="#101017" stroke-width="0.5" stroke-linecap="round"/>
<line x1="0.25" y1="-0.25" x2="17.3828" y2="-0.25" transform="matrix(-1 -8.74228e-08 -8.74228e-08 1 30.7891 6.25)" stroke="#101017" stroke-width="0.5" stroke-linecap="round"/>
<circle cx="6.00781" cy="6.25" r="5.71875" fill="#101017"/>
<circle cx="46.9922" cy="22.4531" r="5.71875" fill="#4AD3F4"/>
<defs>
<linearGradient id="paint0_linear" x1="15.1186" y1="22.4531" x2="22.6021" y2="10.1871" gradientUnits="userSpaceOnUse">
<stop stop-color="#4AD3F4" stop-opacity="0"/>
<stop offset="1" stop-color="#4AD3F4"/>
</linearGradient>
<linearGradient id="paint1_linear" x1="8.63419" y1="5.71875" x2="16.1178" y2="-6.54728" gradientUnits="userSpaceOnUse">
<stop stop-color="#101017" stop-opacity="0"/>
<stop offset="1" stop-color="#101017"/>
</linearGradient>
<linearGradient id="paint2_linear" x1="0.288017" y1="38.0994" x2="0.967602" y2="30.3618" gradientUnits="userSpaceOnUse">
<stop stop-color="#717186" stop-opacity="0.19"/>
<stop offset="1" stop-color="#101017"/>
</linearGradient>
</defs>
</svg>
