<svg width="84" height="17" viewBox="0 0 84 17" fill="none" xmlns="http://www.w3.org/2000/svg">
<g clip-path="url(#clip0_3184_1382)">
<mask id="mask0_3184_1382" style="mask-type:luminance" maskUnits="userSpaceOnUse" x="0" y="0" width="84" height="17">
<path d="M83.9969 0.56604H0.00878906V16.4142H83.9969V0.56604Z" fill="white"/>
</mask>
<g mask="url(#mask0_3184_1382)">
<path d="M29.0279 5.44219C29.8092 5.86366 30.4621 6.49052 30.9168 7.25586C31.3755 8.0273 31.6126 8.91148 31.6016 9.81019C31.6126 10.7119 31.3756 11.5992 30.9168 12.374C30.4618 13.1451 29.8095 13.7796 29.0279 14.2114C28.2142 14.654 27.3037 14.8858 26.3786 14.8858C25.4535 14.8858 24.543 14.654 23.7293 14.2114C22.9478 13.7796 22.2954 13.1451 21.8404 12.374C21.3816 11.5992 21.1446 10.7119 21.1556 9.81019C21.1447 8.91148 21.3817 8.0273 21.8404 7.25586C22.2951 6.49052 22.948 5.86366 23.7293 5.44219C24.5457 5.00815 25.4551 4.78125 26.3786 4.78125C27.3021 4.78125 28.2116 5.00815 29.0279 5.44219ZM24.7446 6.90927C23.9778 7.35845 23.4198 8.09535 23.193 8.95802C22.9663 9.8207 23.0896 10.7386 23.5357 11.5099C23.8282 12.0168 24.2463 12.4389 24.7494 12.7348C25.2514 13.0326 25.8241 13.1884 26.4069 13.1859C26.9824 13.1884 27.5474 13.0325 28.0409 12.7348C28.5405 12.4407 28.9529 12.0178 29.2356 11.5099C29.5293 10.9925 29.6808 10.4059 29.6748 9.81019C29.681 9.21749 29.5294 8.63392 29.2356 8.11997C28.9509 7.61726 28.5386 7.19949 28.0408 6.90923C27.5431 6.61898 26.9776 6.46663 26.4023 6.46773C25.8207 6.46576 25.2489 6.61806 24.7446 6.90927Z" fill="#231F20"/>
<path d="M45.2734 14.2777C44.708 14.6364 44.0532 14.8273 43.3845 14.8284C42.8052 14.851 42.2397 14.6468 41.8072 14.2587C41.5918 14.0385 41.4256 13.7748 41.3198 13.4849C41.2139 13.1951 41.1708 12.8859 41.1933 12.5779V5.45619L42.9973 5.23779V7.5215H45.1318V8.85563H43.0114V12.2409C42.9858 12.5031 43.0544 12.7658 43.205 12.9815C43.2821 13.0567 43.3741 13.1145 43.4751 13.1514C43.576 13.1882 43.6835 13.2032 43.7906 13.1951C44.1675 13.1812 44.5368 13.0839 44.8721 12.9103L45.2734 14.2777Z" fill="#231F20"/>
<path d="M49.4766 7.55475C49.9401 7.29038 50.4644 7.15287 50.9973 7.15593V8.92688C50.6646 8.8844 50.3268 8.91049 50.0045 9.00354C49.6822 9.0966 49.382 9.25468 49.1225 9.46812C48.8935 9.67435 48.7129 9.9291 48.5936 10.214C48.4744 10.4989 48.4196 10.8068 48.4331 11.1156V14.743H46.6338V7.21291H48.452V8.63725C48.6873 8.18807 49.0421 7.81334 49.4766 7.55475Z" fill="#231F20"/>
<path d="M57.943 8.19596C58.5878 9.01137 58.9092 10.0381 58.845 11.0779C58.845 11.32 58.845 11.5005 58.845 11.6239H53.3103C53.4093 12.1165 53.6725 12.5603 54.0564 12.8821C54.4574 13.2048 54.9598 13.3731 55.4732 13.3568C55.8493 13.3587 56.2218 13.2845 56.5687 13.1384C56.9143 12.9983 57.2265 12.7864 57.4849 12.5165L58.4624 13.542C58.0823 13.9532 57.6184 14.2771 57.1024 14.4916C56.5353 14.721 55.9286 14.8355 55.3174 14.8286C54.6161 14.8438 53.9225 14.6806 53.3008 14.3539C52.7302 14.0498 52.2607 13.5844 51.9502 13.015C51.6265 12.4033 51.464 11.7184 51.478 11.0257C51.4594 10.3309 51.6223 9.64339 51.9502 9.03157C52.2606 8.45899 52.7277 7.98779 53.2962 7.67369C53.9011 7.34783 54.5793 7.1843 55.2654 7.19891C55.7569 7.15999 56.2509 7.22899 56.7133 7.40115C57.1756 7.57332 57.5953 7.84452 57.943 8.19596ZM57.1827 10.4037C57.1849 10.1572 57.1375 9.91273 57.0435 9.68509C56.9493 9.45744 56.8104 9.2513 56.6349 9.07905C56.2544 8.7642 55.777 8.59204 55.2843 8.59204C54.7915 8.59204 54.3141 8.7642 53.9336 9.07905C53.5607 9.42788 53.3245 9.89952 53.2678 10.4084L57.1827 10.4037Z" fill="#231F20"/>
<path d="M67.6523 7.21294V14.743H65.8342V13.5465C65.5762 13.9488 65.218 14.276 64.7952 14.4961C64.3415 14.7253 63.8389 14.8394 63.3312 14.8285C62.67 14.8495 62.016 14.6851 61.4423 14.3537C60.905 14.0281 60.471 13.5555 60.1908 12.991C59.885 12.3637 59.7328 11.6718 59.747 10.9732C59.7331 10.2838 59.8854 9.60128 60.1908 8.98389C60.4733 8.42733 60.9073 7.96298 61.4423 7.645C62.0043 7.31879 62.6448 7.15453 63.2935 7.17022C63.802 7.1606 64.3054 7.2729 64.7621 7.49782C65.1884 7.7163 65.5501 8.0438 65.8105 8.44739V7.21294H67.6523ZM65.1778 12.7394C65.5689 12.3484 65.8026 11.826 65.8342 11.2724V10.7406C65.8038 10.1853 65.5699 9.66097 65.1778 9.26876C64.9839 9.08393 64.7556 8.93965 64.5059 8.84429C64.2563 8.74893 63.9901 8.70439 63.7232 8.71327C63.4387 8.70294 63.1554 8.75491 62.8928 8.86559C62.6303 8.97626 62.3947 9.14298 62.2027 9.35422C61.7968 9.80792 61.5804 10.4013 61.5982 11.0112C61.5815 11.6195 61.798 12.211 62.2027 12.6634C62.3958 12.8731 62.6315 13.0384 62.8939 13.1481C63.1564 13.258 63.4391 13.3096 63.7232 13.2996C63.9906 13.3079 64.2568 13.2626 64.5064 13.1664C64.7562 13.0702 64.9844 12.9251 65.1778 12.7394Z" fill="#231F20"/>
<path d="M72.6821 8.77043C72.4061 8.76082 72.1313 8.81094 71.8763 8.91744C71.6212 9.02393 71.3919 9.18429 71.204 9.38765C70.8159 9.82886 70.6128 10.404 70.6372 10.9924C70.6096 11.5886 70.8127 12.1722 71.204 12.6209C71.3903 12.8263 71.6193 12.9881 71.8748 13.0947C72.1301 13.2014 72.4057 13.2503 72.6821 13.2381C73.0635 13.2657 73.4458 13.1998 73.7962 13.046C74.1466 12.8921 74.4547 12.655 74.6938 12.355L75.8225 13.3047C75.4893 13.7933 75.0307 14.1821 74.4955 14.4298C73.9023 14.6994 73.2573 14.8339 72.6065 14.824C71.922 14.8376 71.2455 14.674 70.642 14.3491C70.0783 14.0404 69.6146 13.5758 69.3055 13.0103C68.9816 12.3986 68.8191 11.7137 68.8333 11.0209C68.8158 10.3217 68.9784 9.62987 69.3055 9.01257C69.6158 8.44272 70.081 7.9734 70.6467 7.65945C71.2548 7.33319 71.9363 7.1697 72.6254 7.18466C73.2511 7.17411 73.872 7.29541 74.4482 7.54075C74.9628 7.765 75.4126 8.11609 75.7563 8.56153L74.6229 9.58707C74.3768 9.31873 74.076 9.10688 73.741 8.96595C73.4062 8.82503 73.0449 8.75834 72.6821 8.77043Z" fill="#231F20"/>
<path d="M83.2547 7.93461C83.5116 8.22253 83.7094 8.55867 83.8367 8.92371C83.9639 9.28875 84.0181 9.67547 83.9962 10.0616V14.7525H82.178V10.5839C82.1895 10.357 82.1557 10.13 82.0786 9.91638C82.0016 9.70277 81.8829 9.50678 81.7294 9.33998C81.5705 9.18118 81.3806 9.05706 81.1718 8.97537C80.9629 8.89368 80.7396 8.85616 80.5157 8.8652C80.2496 8.86195 79.9859 8.91526 79.7417 9.02163C79.4977 9.128 79.2786 9.28502 79.099 9.48241C78.7361 9.91356 78.5473 10.4659 78.5701 11.0302V14.724H76.752V4.31677H78.5701V8.66104C79.0801 7.67349 79.9869 7.17496 81.2666 7.15597C81.6333 7.14212 81.999 7.20407 82.3409 7.338C82.6829 7.47193 82.9939 7.67499 83.2547 7.93461Z" fill="#231F20"/>
<path d="M37.8403 7.21301V11.486C37.8403 11.923 37.6676 12.3421 37.3603 12.651C37.053 12.96 36.6362 13.1336 36.2015 13.1336C35.767 13.1336 35.3501 12.96 35.0429 12.651C34.7355 12.3421 34.5629 11.923 34.5629 11.486V7.21301H32.7637V11.4386C32.7637 13.898 34.4826 14.8096 36.2015 14.8096C37.9205 14.8096 39.6442 13.8932 39.6442 11.4338V7.21301H37.8403Z" fill="#231F20"/>
<path d="M7.47939 0.56604C4.85373 0.56604 2.87976 1.23548 1.73222 2.38446C1.15615 2.96801 0.705813 3.66459 0.409261 4.43079C0.112707 5.197 -0.0237015 6.0164 0.00853525 6.83792C0.00853525 9.55369 1.37331 12.4593 3.28117 14.3774C3.77702 14.8807 5.49598 16.4142 7.74857 16.4142C10.0012 16.4142 11.7627 14.99 12.8394 13.9217C14.922 11.8279 16.8062 8.22429 16.8062 5.85038C16.8158 4.85438 16.4359 3.89445 15.7483 3.17734C13.9397 1.35893 10.0484 0.56604 7.47939 0.56604ZM10.6623 9.94775C10.3458 10.3105 9.95883 10.6043 9.52511 10.8108C9.0914 11.0174 8.62018 11.1325 8.14053 11.149C7.34071 11.1326 6.57725 10.8099 6.006 10.2469C5.35483 9.59535 4.97347 8.71994 4.93873 7.79699C4.92773 7.41209 4.99446 7.02894 5.13488 6.67071C5.27529 6.31246 5.4865 5.98656 5.75571 5.71268C6.11065 5.38277 6.52837 5.12854 6.9837 4.96535C7.43902 4.80214 7.92251 4.73335 8.40499 4.76312C8.90366 4.73469 9.40275 4.81121 9.87032 4.9878C10.3379 5.16439 10.7636 5.43716 11.1203 5.78865C11.328 5.99795 11.4918 6.24693 11.6021 6.52093C11.7124 6.79493 11.767 7.08837 11.7627 7.38393C11.7367 8.34884 11.3428 9.26681 10.6623 9.94775Z" fill="#231F20"/>
</g>
</g>
<defs>
<clipPath id="clip0_3184_1382">
<rect width="84" height="15.8491" fill="white" transform="translate(0 0.56604)"/>
</clipPath>
</defs>
</svg>
