<?xml version="1.0" encoding="UTF-8"?>
<svg width="300px" height="280px" viewBox="0 0 300 280" version="1.1" xmlns="http://www.w3.org/2000/svg" xmlns:xlink="http://www.w3.org/1999/xlink">
    <title>Group</title>
    <defs>
        <linearGradient x1="30.3262781%" y1="103.161735%" x2="62.7595407%" y2="35.0275634%" id="linearGradient-1">
            <stop stop-color="#FCFCFC" offset="0%"></stop>
            <stop stop-color="#FCFCFC" offset="100%"></stop>
        </linearGradient>
        <path d="M130.290028,0 C157.578303,0 178.518457,6.63226558 193.111118,19.8969957 C207.703779,33.1617258 215,51.608847 215,75.2389127 C215,91.0045893 211.833365,104.576065 205.500033,115.953507 L205.567278,115.946793 C192.522097,139.982264 174.028034,152 150.08509,152 L128.830188,151.999771 C128.73318,151.999924 128.63609,152 128.538917,152 L76.2244898,152 L76.224,151.999 L76.1580218,152 L76.1590479,149.995519 C100.896992,148.998506 125.177309,148.5 149,148.5 C172.858355,148.5 190.858355,137.333333 203,115 C186.885509,116.329476 165.660592,106.260194 139.32525,84.7921535 C125.405892,73.4453732 110.595156,54.6591396 95.4178383,49.999793 C81.8797627,45.8436841 47,44.9995861 45,49.999793 C43,55 47.3853182,56.6432157 61.5,66 C70.9097879,72.2378562 75.7591018,82.328589 76.0479418,96.2721983 L76.0479418,96.2721983 L76.0478219,96.8077865 C76.0877123,97.1824152 76.1244456,97.5599039 76.1580218,97.9402524 L76.1580218,97.9402524 L76.1590479,149.995519 C76.1220135,149.997011 76.0849782,149.998505 76.0479418,150 L76.0478219,96.8077865 C74.6474803,83.6565544 69.356509,74.0296599 60.1749079,67.9271032 C46.0101827,58.51251 43,57.5 43,50 C43,44.7923423 60.7972359,44.077256 76.2247095,45.5265523 L76.2244898,0 L130.290028,0 Z" id="path-2"></path>
        <filter x="-74.4%" y="-42.1%" width="248.8%" height="268.4%" filterUnits="objectBoundingBox" id="filter-3">
            <feOffset dx="0" dy="4" in="SourceAlpha" result="shadowOffsetOuter1"></feOffset>
            <feGaussianBlur stdDeviation="2" in="shadowOffsetOuter1" result="shadowBlurOuter1"></feGaussianBlur>
            <feColorMatrix values="0 0 0 0 0.462160762   0 0 0 0 0.449092641   0 0 0 0 0.603713768  0 0 0 0.07 0" type="matrix" in="shadowBlurOuter1" result="shadowMatrixOuter1"></feColorMatrix>
            <feOffset dx="0" dy="8" in="SourceAlpha" result="shadowOffsetOuter2"></feOffset>
            <feGaussianBlur stdDeviation="4" in="shadowOffsetOuter2" result="shadowBlurOuter2"></feGaussianBlur>
            <feColorMatrix values="0 0 0 0 0.477535869   0 0 0 0 0.470172463   0 0 0 0 0.597203351  0 0 0 0.09 0" type="matrix" in="shadowBlurOuter2" result="shadowMatrixOuter2"></feColorMatrix>
            <feOffset dx="0" dy="16" in="SourceAlpha" result="shadowOffsetOuter3"></feOffset>
            <feGaussianBlur stdDeviation="8" in="shadowOffsetOuter3" result="shadowBlurOuter3"></feGaussianBlur>
            <feColorMatrix values="0 0 0 0 0.464521142   0 0 0 0 0.468471347   0 0 0 0 0.608554121  0 0 0 0.1 0" type="matrix" in="shadowBlurOuter3" result="shadowMatrixOuter3"></feColorMatrix>
            <feOffset dx="0" dy="32" in="SourceAlpha" result="shadowOffsetOuter4"></feOffset>
            <feGaussianBlur stdDeviation="16" in="shadowOffsetOuter4" result="shadowBlurOuter4"></feGaussianBlur>
            <feColorMatrix values="0 0 0 0 0.46062312   0 0 0 0 0.469594066   0 0 0 0 0.599779212  0 0 0 0.08 0" type="matrix" in="shadowBlurOuter4" result="shadowMatrixOuter4"></feColorMatrix>
            <feOffset dx="0" dy="64" in="SourceAlpha" result="shadowOffsetOuter5"></feOffset>
            <feGaussianBlur stdDeviation="32" in="shadowOffsetOuter5" result="shadowBlurOuter5"></feGaussianBlur>
            <feColorMatrix values="0 0 0 0 0.526529953   0 0 0 0 0.530789109   0 0 0 0 0.627122962  0 0 0 0.04 0" type="matrix" in="shadowBlurOuter5" result="shadowMatrixOuter5"></feColorMatrix>
            <feMerge>
                <feMergeNode in="shadowMatrixOuter1"></feMergeNode>
                <feMergeNode in="shadowMatrixOuter2"></feMergeNode>
                <feMergeNode in="shadowMatrixOuter3"></feMergeNode>
                <feMergeNode in="shadowMatrixOuter4"></feMergeNode>
                <feMergeNode in="shadowMatrixOuter5"></feMergeNode>
            </feMerge>
        </filter>
    </defs>
    <g id="Page-1" stroke="none" stroke-width="1" fill="none" fill-rule="evenodd">
        <g id="loading-copy" transform="translate(-550.000000, -356.000000)">
            <g id="Group" transform="translate(571.000000, 356.000000)">
                <g id="Combined-Shape">
                    <use fill="black" fill-opacity="1" filter="url(#filter-3)" xlink:href="#path-2"></use>
                    <use fill="url(#linearGradient-1)" fill-rule="evenodd" xlink:href="#path-2"></use>
                </g>
                <g id="tittle-copy-3" transform="translate(0.000000, 202.000000)" fill-rule="nonzero">
                    <path d="M2.03633423,15.48 L4.34361186,3.93 L11.092938,15.48 L12.8611321,15.48 L15.88,0.48 L13.7236658,0.48 L11.4163881,12.03 L4.66706199,0.48 L2.89886792,0.48 L-0.12,15.48 L2.03633423,15.48 Z M28.3169085,15.48 L28.665489,13.6157143 L20.2790536,13.6157143 L21.2017666,8.77285714 L28.4194322,8.77285714 L28.7680126,6.95142857 L21.550347,6.95142857 L22.4320505,2.34428571 L30.5314196,2.34428571 L30.88,0.48 L20.7506625,0.48 L17.88,15.48 L28.3169085,15.48 Z M37.4682353,15.48 L46.88,0.48 L44.6951261,0.48 L36.9010084,12.8228571 L34.0438655,0.48 L31.88,0.48 L35.4094118,15.48 L37.4682353,15.48 Z M57.3169085,15.48 L57.665489,13.6157143 L49.2790536,13.6157143 L50.2017666,8.77285714 L57.4194322,8.77285714 L57.7680126,6.95142857 L50.550347,6.95142857 L51.4320505,2.34428571 L59.5314196,2.34428571 L59.88,0.48 L49.7506625,0.48 L46.88,15.48 L57.3169085,15.48 Z M63.0256753,15.48 L63.9179363,10.8942857 L68.294264,10.8942857 L70.8860698,15.48 L73.1379666,15.48 L70.418695,10.5942857 C71.8349823,10.2228571 72.932605,9.54428571 73.711563,8.55857143 C74.490521,7.57285714 74.88,6.34428571 74.88,4.87285714 C74.88,3.47285714 74.402003,2.39071429 73.4460091,1.62642857 C72.4900152,0.862142857 71.1410015,0.48 69.3989681,0.48 L69.3989681,0.48 L63.8542033,0.48 L60.88,15.48 L63.0256753,15.48 Z M67.3486717,9.48 L63.88,9.48 L65.1431579,2.48 L68.5316291,2.48 C69.6143358,2.48 70.4430744,2.71779193 71.0178446,3.1933758 C71.5926149,3.66895966 71.88,4.37490446 71.88,5.31121019 C71.88,6.6636518 71.4856809,7.69656051 70.6970426,8.40993631 C69.9084043,9.1233121 68.7922807,9.48 67.3486717,9.48 L67.3486717,9.48 Z M86.4002593,15.48 C87.6223015,15.48 88.703879,15.2949441 89.6449919,14.9248324 C90.5861048,14.5547207 91.3200324,14.027486 91.8467747,13.3431285 C92.373517,12.6587709 92.6368882,11.8487151 92.6368882,10.9129609 C92.6368882,10.1587709 92.4367261,9.54424581 92.0364019,9.06938547 C91.6360778,8.59452514 91.1514749,8.23488827 90.5825932,7.99047486 C90.0137115,7.74606145 89.2657374,7.48418994 88.338671,7.20486034 C87.5942085,6.98139665 87.0077688,6.78586592 86.5793517,6.61826816 C86.1509346,6.45067039 85.7927499,6.22022346 85.5047974,5.92692737 C85.2168449,5.63363128 85.0728687,5.27050279 85.0728687,4.8375419 C85.0728687,4.05541899 85.4310535,3.43041899 86.147423,2.9625419 C86.8637925,2.4946648 87.8259751,2.26072626 89.0339708,2.26072626 C89.7924797,2.26072626 90.5123609,2.35849162 91.1936143,2.55402235 C91.8748676,2.74955307 92.4894003,3.04284916 93.0372123,3.43391061 L93.0372123,3.43391061 L93.88,1.71603352 C93.2760022,1.32497207 92.5631442,1.02120112 91.7414263,0.80472067 C90.9197083,0.588240223 90.0523393,0.48 89.1393193,0.48 C87.9453701,0.48 86.8848622,0.665055866 85.9577958,1.0351676 C85.0307293,1.40527933 84.3073366,1.93251397 83.7876175,2.61687151 C83.2678984,3.30122905 83.0080389,4.10430168 83.0080389,5.02608939 C83.0080389,5.83614525 83.2152242,6.48907821 83.6295948,6.98488827 C84.0439654,7.48069832 84.5391032,7.85430168 85.1150081,8.10569832 C85.690913,8.35709497 86.4494219,8.6224581 87.3905348,8.90178771 C88.1349973,9.1252514 88.7109022,9.32078212 89.1182496,9.48837989 C89.525597,9.65597765 89.8697353,9.87944134 90.1506645,10.1587709 C90.4315937,10.4381006 90.5720583,10.7872626 90.5720583,11.206257 C90.5720583,11.9883799 90.210362,12.5994134 89.4869692,13.0393575 C88.7635764,13.4793017 87.7978822,13.6992737 86.5898865,13.6992737 C85.6768666,13.6992737 84.7919395,13.5491341 83.9351053,13.2488547 C83.0782712,12.9485754 82.3689249,12.5400559 81.8070665,12.0232961 L81.8070665,12.0232961 L80.88,13.6992737 C81.427812,14.2160335 82.2109022,14.6420112 83.2292707,14.9772067 C84.2476391,15.3124022 85.3046353,15.48 86.4002593,15.48 Z M99.5914094,15.48 L102.274295,2.34428571 L107.487383,2.34428571 L107.88,0.48 L95.2508054,0.48 L94.88,2.34428571 L100.093087,2.34428571 L97.4320134,15.48 L99.5914094,15.48 Z M113.852185,15.48 C115.632318,15.48 117.207594,15.0889385 118.578013,14.3068156 C119.948433,13.5246927 121.008035,12.4632402 121.756821,11.1224581 C122.505607,9.78167598 122.88,8.29424581 122.88,6.6601676 C122.88,5.43111732 122.604503,4.3522067 122.05351,3.42343575 C121.502517,2.4946648 120.700751,1.77189944 119.648212,1.25513966 C118.595673,0.738379888 117.34181,0.48 115.886623,0.48 C114.10649,0.48 112.534746,0.871061453 111.171391,1.65318436 C109.808035,2.43530726 108.751965,3.49675978 108.003179,4.8375419 C107.254393,6.17832402 106.88,7.66575419 106.88,9.2998324 C106.88,10.5288827 107.155497,11.6077933 107.70649,12.5365642 C108.257483,13.4653352 109.055717,14.1881006 110.101192,14.7048603 C111.146667,15.2216201 112.396998,15.48 113.852185,15.48 Z M114.035235,13.48 C112.389025,13.48 111.118267,13.0881165 110.22296,12.3043494 C109.327653,11.5205824 108.88,10.4676084 108.88,9.14542751 C108.88,7.94592317 109.165199,6.83501859 109.735596,5.81271375 C110.305993,4.79040892 111.111047,3.97938042 112.150758,3.37962825 C113.190469,2.77987608 114.389025,2.48 115.746426,2.48 C117.392635,2.48 118.659783,2.87188352 119.54787,3.65565056 C120.435957,4.4394176 120.88,5.49239157 120.88,6.81457249 C120.88,8.02770756 120.598412,9.14201983 120.035235,10.1575093 C119.472058,11.1729988 118.670614,11.9806196 117.630903,12.5803717 C116.591191,13.1801239 115.392635,13.48 114.035235,13.48 Z M127.010898,15.48 L127.905875,10.9371429 L131.890654,10.9371429 C133.325459,10.9371429 134.568483,10.6978571 135.619726,10.2192857 C136.670969,9.74071429 137.477159,9.04785714 138.038295,8.14071429 C138.599432,7.23357143 138.88,6.14428571 138.88,4.87285714 C138.88,3.47285714 138.400548,2.39071429 137.441644,1.62642857 C136.48274,0.862142857 135.136722,0.48 133.403592,0.48 L133.403592,0.48 L127.863257,0.48 L124.88,15.48 L127.010898,15.48 Z M131.325844,9.48 L127.88,9.48 L129.149521,2.48 L132.534912,2.48 C133.609639,2.48 134.435835,2.72150743 135.013501,3.20452229 C135.591167,3.68753715 135.88,4.38976645 135.88,5.31121019 C135.88,6.6636518 135.483694,7.69656051 134.691083,8.40993631 C133.898472,9.1233121 132.776725,9.48 131.325844,9.48 L131.325844,9.48 Z" id="NEVERSTOP" fill="#434350"></path>
                    <path d="M156.316909,15.48 L156.665489,13.6157143 L148.279054,13.6157143 L149.201767,8.77285714 L156.419432,8.77285714 L156.768013,6.95142857 L149.550347,6.95142857 L150.43205,2.34428571 L158.53142,2.34428571 L158.88,0.48 L148.750662,0.48 L145.88,15.48 L156.316909,15.48 Z M165.468235,15.48 L174.88,0.48 L172.695126,0.48 L164.901008,12.8228571 L162.043866,0.48 L159.88,0.48 L163.409412,15.48 L165.468235,15.48 Z M180.852185,15.48 C182.632318,15.48 184.207594,15.0889385 185.578013,14.3068156 C186.948433,13.5246927 188.008035,12.4632402 188.756821,11.1224581 C189.505607,9.78167598 189.88,8.29424581 189.88,6.6601676 C189.88,5.43111732 189.604503,4.3522067 189.05351,3.42343575 C188.502517,2.4946648 187.700751,1.77189944 186.648212,1.25513966 C185.595673,0.738379888 184.34181,0.48 182.886623,0.48 C181.10649,0.48 179.534746,0.871061453 178.171391,1.65318436 C176.808035,2.43530726 175.751965,3.49675978 175.003179,4.8375419 C174.254393,6.17832402 173.88,7.66575419 173.88,9.2998324 C173.88,10.5288827 174.155497,11.6077933 174.70649,12.5365642 C175.257483,13.4653352 176.055717,14.1881006 177.101192,14.7048603 C178.146667,15.2216201 179.396998,15.48 180.852185,15.48 Z M181.035235,13.48 C179.389025,13.48 178.118267,13.0881165 177.22296,12.3043494 C176.327653,11.5205824 175.88,10.4676084 175.88,9.14542751 C175.88,7.94592317 176.165199,6.83501859 176.735596,5.81271375 C177.305993,4.79040892 178.111047,3.97938042 179.150758,3.37962825 C180.190469,2.77987608 181.389025,2.48 182.746426,2.48 C184.392635,2.48 185.659783,2.87188352 186.54787,3.65565056 C187.435957,4.4394176 187.88,5.49239157 187.88,6.81457249 C187.88,8.02770756 187.598412,9.14201983 187.035235,10.1575093 C186.472058,11.1729988 185.670614,11.9806196 184.630903,12.5803717 C183.591191,13.1801239 182.392635,13.48 181.035235,13.48 Z M201.537948,15.48 L201.88,13.6157143 L194.234125,13.6157143 L196.708974,0.48 L194.696901,0.48 L191.88,15.48 L201.537948,15.48 Z M210.468235,15.48 L219.88,0.48 L217.695126,0.48 L209.901008,12.8228571 L207.043866,0.48 L204.88,0.48 L208.409412,15.48 L210.468235,15.48 Z M220.963333,15.48 L223.88,0.48 L221.796667,0.48 L218.88,15.48 L220.963333,15.48 Z M228.036334,15.48 L230.343612,3.93 L237.092938,15.48 L238.861132,15.48 L241.88,0.48 L239.723666,0.48 L237.416388,12.03 L230.667062,0.48 L228.898868,0.48 L225.88,15.48 L228.036334,15.48 Z M250.026933,15.48 C251.039772,15.48 252.02408,15.3193855 252.979857,14.9981564 C253.935635,14.6769274 254.770157,14.23 255.483424,13.6573743 L255.483424,13.6573743 L256.660314,7.89620112 L254.606106,7.89620112 L253.643195,12.6936872 C252.630357,13.3082123 251.503395,13.6154749 250.262311,13.6154749 C248.564736,13.6154749 247.266591,13.2139385 246.367874,12.4108659 C245.469158,11.6077933 245.0198,10.5288827 245.0198,9.17413408 C245.0198,7.90318436 245.308673,6.7474581 245.886419,5.70695531 C246.464165,4.66645251 247.280856,3.84592179 248.336491,3.24536313 C249.392126,2.64480447 250.618944,2.34452514 252.016947,2.34452514 C252.972725,2.34452514 253.807247,2.48069832 254.520514,2.75304469 C255.23378,3.02539106 255.840057,3.44787709 256.339344,4.02050279 L256.339344,4.02050279 L257.88,2.74256983 C257.280856,2.01631285 256.492696,1.45765363 255.515521,1.06659218 C254.538345,0.675530726 253.400685,0.48 252.102539,0.48 C250.262311,0.48 248.643195,0.871061453 247.245193,1.65318436 C245.84719,2.43530726 244.770157,3.49675978 244.014094,4.8375419 C243.258031,6.17832402 242.88,7.66575419 242.88,9.2998324 C242.88,10.5288827 243.168873,11.6077933 243.746619,12.5365642 C244.324365,13.4653352 245.151755,14.1881006 246.228787,14.7048603 C247.30582,15.2216201 248.571869,15.48 250.026933,15.48 Z" id="EVOLVING" fill="#00D9FF"></path>
                </g>
            </g>
        </g>
    </g>
</svg>