<svg width="55" height="44" viewBox="0 0 55 44" fill="none" xmlns="http://www.w3.org/2000/svg">
<rect x="8.79102" y="1.5849" width="44.4827" height="34.424" stroke="#979797" stroke-dasharray="2 4"/>
<rect x="7.23633" width="2.18667" height="2.18667" fill="#979797"/>
<rect x="30.1582" width="2.18667" height="2.18667" fill="#979797"/>
<rect x="7.23633" y="18.1409" width="2.18667" height="2.18667" fill="#979797"/>
<rect x="52.5996" width="2.18667" height="2.18667" fill="#979797"/>
<rect x="52.5996" y="18.1409" width="2.18667" height="2.18667" fill="#979797"/>
<rect x="52.5996" y="35.2512" width="2.18667" height="2.18667" fill="#979797"/>
<rect x="30.1582" y="35.2512" width="2.18667" height="2.18667" fill="#979797"/>
<rect x="8.54883" y="32.1898" width="2.18667" height="2.18667" fill="#979797"/>
<path fill-rule="evenodd" clip-rule="evenodd" d="M12.6035 2.39691C10.9467 2.39691 9.60352 3.74006 9.60352 5.39691V7.86937H52.4622V5.39691C52.4622 3.74006 51.1191 2.39691 49.4622 2.39691H12.6035ZM52.4622 8.86937H9.60352V21.6353L26.6435 35.6343H49.4622C51.1191 35.6343 52.4622 34.2911 52.4622 32.6343V8.86937ZM17.9328 5.53058C17.9328 6.12637 17.4531 6.60934 16.8613 6.60934C16.2696 6.60934 15.7898 6.12637 15.7898 5.53058C15.7898 4.9348 16.2696 4.45183 16.8613 4.45183C17.4531 4.45183 17.9328 4.9348 17.9328 5.53058ZM13.6485 5.53132C13.6485 6.1271 13.1688 6.61007 12.5771 6.61007C11.9853 6.61007 11.5056 6.1271 11.5056 5.53132C11.5056 4.93554 11.9853 4.45256 12.5771 4.45256C13.1688 4.45256 13.6485 4.93554 13.6485 5.53132ZM21.1475 6.60934C21.7393 6.60934 22.219 6.12637 22.219 5.53058C22.219 4.9348 21.7393 4.45183 21.1475 4.45183C20.5558 4.45183 20.0761 4.9348 20.0761 5.53058C20.0761 6.12637 20.5558 6.60934 21.1475 6.60934Z" fill="url(#paint0_linear)"/>
<path d="M8.08973 22.9729L24.2558 36.4412L13.9575 36.4412L7.76266 43.3923L8.08973 22.9729Z" fill="white"/>
<defs>
<linearGradient id="paint0_linear" x1="32.399" y1="-3.63786" x2="10.5293" y2="25.3156" gradientUnits="userSpaceOnUse">
<stop stop-color="#717186" stop-opacity="0.943428"/>
<stop offset="1" stop-color="#101017"/>
</linearGradient>
</defs>
</svg>
