<svg width="45" height="45" viewBox="0 0 45 45" fill="none" xmlns="http://www.w3.org/2000/svg">
<path d="M43.6562 41.9219C44.1719 42.3802 44.1719 42.8672 43.6562 43.3828L42.8828 44.1562C42.3672 44.6719 41.8802 44.6719 41.4219 44.1562L30.3359 33.1562C30.1068 32.9271 29.9922 32.6693 29.9922 32.3828V31.5234C26.5547 34.6745 22.5156 36.25 17.875 36.25C12.9479 36.25 8.73698 34.5026 5.24219 31.0078C1.7474 27.513 0 23.3021 0 18.375C0 13.4479 1.7474 9.23698 5.24219 5.74219C8.73698 2.2474 12.9479 0.5 17.875 0.5C22.8021 0.5 27.013 2.2474 30.5078 5.74219C34.0026 9.23698 35.75 13.4479 35.75 18.375C35.75 23.0156 34.1745 27.0547 31.0234 30.4922H31.8828C32.1693 30.4922 32.4271 30.6068 32.6562 30.8359L43.6562 41.9219ZM7.13281 29.1172C10.112 32.0391 13.6927 33.5 17.875 33.5C22.0573 33.5 25.6094 32.0391 28.5312 29.1172C31.5104 26.138 33 22.5573 33 18.375C33 14.1927 31.5104 10.6406 28.5312 7.71875C25.6094 4.73958 22.0573 3.25 17.875 3.25C13.6927 3.25 10.112 4.73958 7.13281 7.71875C4.21094 10.6406 2.75 14.1927 2.75 18.375C2.75 22.5573 4.21094 26.138 7.13281 29.1172Z" fill="white"/>
</svg>
