<svg width="1377" height="273" viewBox="0 0 1377 273" fill="none" xmlns="http://www.w3.org/2000/svg">
<path d="M19.5 118.999C47.5 71.9992 131.1 -16.7008 241.5 4.49917C379.5 30.9992 367.934 196.467 518 183.499C599 176.5 603.283 110.116 754 53.4998C947 -19 1040.5 356.5 1183 254.5C1325.5 152.5 1303.71 28.8899 1388.5 36.4993" stroke="#383842" stroke-dasharray="2 8"/>
<path d="M10.1842 134.8V146H9.20822L2.00822 136.912V146H0.824219V134.8H1.80022L9.01622 143.888V134.8H10.1842Z" fill="#525261"/>
<path d="M18.7358 146.096C17.6265 146.096 16.6185 145.851 15.7118 145.36C14.8158 144.859 14.1118 144.176 13.5998 143.312C13.0985 142.448 12.8478 141.477 12.8478 140.4C12.8478 139.323 13.0985 138.352 13.5998 137.488C14.1118 136.624 14.8158 135.947 15.7118 135.456C16.6185 134.955 17.6265 134.704 18.7358 134.704C19.8452 134.704 20.8425 134.949 21.7278 135.44C22.6238 135.931 23.3278 136.613 23.8398 137.488C24.3518 138.352 24.6078 139.323 24.6078 140.4C24.6078 141.477 24.3518 142.453 23.8398 143.328C23.3278 144.192 22.6238 144.869 21.7278 145.36C20.8425 145.851 19.8452 146.096 18.7358 146.096ZM18.7358 145.04C19.6212 145.04 20.4212 144.843 21.1358 144.448C21.8505 144.043 22.4105 143.488 22.8158 142.784C23.2212 142.069 23.4238 141.275 23.4238 140.4C23.4238 139.525 23.2212 138.736 22.8158 138.032C22.4105 137.317 21.8505 136.763 21.1358 136.368C20.4212 135.963 19.6212 135.76 18.7358 135.76C17.8505 135.76 17.0452 135.963 16.3198 136.368C15.6052 136.763 15.0398 137.317 14.6238 138.032C14.2185 138.736 14.0158 139.525 14.0158 140.4C14.0158 141.275 14.2185 142.069 14.6238 142.784C15.0398 143.488 15.6052 144.043 16.3198 144.448C17.0452 144.843 17.8505 145.04 18.7358 145.04Z" fill="#525261"/>
<path d="M42.294 134.8L38.518 146H37.27L33.99 136.448L30.694 146H29.462L25.686 134.8H26.902L30.134 144.432L33.478 134.8H34.582L37.878 144.48L41.158 134.8H42.294Z" fill="#525261"/>
<circle cx="19" cy="121" r="8" fill="#1822F7"/>
</svg>
