<svg xmlns="http://www.w3.org/2000/svg" width="912" height="177" viewBox="0 0 912 177">
  <defs>
    <linearGradient id="title_process-a" x1="91.125%" x2="7.883%" y1="50%" y2="49.593%">
      <stop offset="0%" stop-color="#FFF" stop-opacity="0"/>
      <stop offset="100%" stop-color="#D8D8D8"/>
    </linearGradient>
  </defs>
  <path fill="url(#title_process-a)" d="M166,5640 L166,5591.75 L201.25,5591.75 C216.75,5591.75 230.208333,5589.20833 241.625,5584.125 C253.041667,5579.04167 261.833333,5571.70833 268,5562.125 C274.166667,5552.54167 277.25,5541.33333 277.25,5528.5 C277.25,5515.5 274.166667,5504.25 268,5494.75 C261.833333,5485.25 253.041667,5477.91667 241.625,5472.75 C230.208333,5467.58333 216.75,5465 201.25,5465 L201.25,5465 L125.5,5465 L125.5,5640 L166,5640 Z M199,5558.75 L166,5558.75 L166,5498 L199,5498 C211.166667,5498 220.416667,5500.625 226.75,5505.875 C233.083333,5511.125 236.25,5518.66667 236.25,5528.5 C236.25,5538.16667 233.083333,5545.625 226.75,5550.875 C220.416667,5556.125 211.166667,5558.75 199,5558.75 L199,5558.75 Z M344.75,5640 L344.75,5576.5 C344.75,5564 347.916667,5554.625 354.25,5548.375 C360.583333,5542.125 369.333333,5539 380.5,5539 C382,5539 384.916667,5539.16667 389.25,5539.5 L389.25,5539.5 L389.25,5503.5 C378.916667,5503.5 369.791667,5505.16667 361.875,5508.5 C353.958333,5511.83333 347.666667,5516.75 343,5523.25 L343,5523.25 L343,5505.5 L305.75,5505.5 L305.75,5640 L344.75,5640 Z M477.5,5642 C491.666667,5642 504.333333,5639.04167 515.5,5633.125 C526.666667,5627.20833 535.416667,5619 541.75,5608.5 C548.083333,5598 551.25,5586.08333 551.25,5572.75 C551.25,5559.41667 548.083333,5547.5 541.75,5537 C535.416667,5526.5 526.666667,5518.29167 515.5,5512.375 C504.333333,5506.45833 491.666667,5503.5 477.5,5503.5 C463.333333,5503.5 450.625,5506.45833 439.375,5512.375 C428.125,5518.29167 419.333333,5526.5 413,5537 C406.666667,5547.5 403.5,5559.41667 403.5,5572.75 C403.5,5586.08333 406.666667,5598 413,5608.5 C419.333333,5619 428.125,5627.20833 439.375,5633.125 C450.625,5639.04167 463.333333,5642 477.5,5642 Z M477.5,5610 C467.5,5610 459.25,5606.625 452.75,5599.875 C446.25,5593.125 443,5584.08333 443,5572.75 C443,5561.41667 446.25,5552.375 452.75,5545.625 C459.25,5538.875 467.5,5535.5 477.5,5535.5 C487.5,5535.5 495.708333,5538.875 502.125,5545.625 C508.541667,5552.375 511.75,5561.41667 511.75,5572.75 C511.75,5584.08333 508.541667,5593.125 502.125,5599.875 C495.708333,5606.625 487.5,5610 477.5,5610 Z M642.25,5642 C656.416667,5642 668.791667,5639 679.375,5633 C689.958333,5627 697.666667,5618.66667 702.5,5608 L702.5,5608 L672.25,5591.5 C665.416667,5603.83333 655.333333,5610 642,5610 C631.833333,5610 623.416667,5606.66667 616.75,5600 C610.083333,5593.33333 606.75,5584.25 606.75,5572.75 C606.75,5561.25 610.083333,5552.16667 616.75,5545.5 C623.416667,5538.83333 631.833333,5535.5 642,5535.5 C655.166667,5535.5 665.25,5541.66667 672.25,5554 L672.25,5554 L702.5,5537.75 C697.666667,5526.75 689.958333,5518.29167 679.375,5512.375 C668.791667,5506.45833 656.416667,5503.5 642.25,5503.5 C627.916667,5503.5 615.041667,5506.45833 603.625,5512.375 C592.208333,5518.29167 583.291667,5526.5 576.875,5537 C570.458333,5547.5 567.25,5559.41667 567.25,5572.75 C567.25,5586.08333 570.458333,5598 576.875,5608.5 C583.291667,5619 592.208333,5627.20833 603.625,5633.125 C615.041667,5639.04167 627.916667,5642 642.25,5642 Z M791.75,5642 C816.083333,5642 834.583333,5634.75 847.25,5620.25 L847.25,5620.25 L826.5,5597.75 C821.833333,5602.25 816.791667,5605.54167 811.375,5607.625 C805.958333,5609.70833 799.75,5610.75 792.75,5610.75 C782.583333,5610.75 774.083333,5608.33333 767.25,5603.5 C760.416667,5598.66667 756.083333,5592.08333 754.25,5583.75 L754.25,5583.75 L856,5583.75 C856.5,5577.25 856.75,5573.75 856.75,5573.25 C856.75,5559.25 853.708333,5546.95833 847.625,5536.375 C841.541667,5525.79167 833.166667,5517.66667 822.5,5512 C811.833333,5506.33333 799.916667,5503.5 786.75,5503.5 C773.25,5503.5 761.041667,5506.45833 750.125,5512.375 C739.208333,5518.29167 730.625,5526.54167 724.375,5537.125 C718.125,5547.70833 715,5559.58333 715,5572.75 C715,5586.08333 718.166667,5598 724.5,5608.5 C730.833333,5619 739.833333,5627.20833 751.5,5633.125 C763.166667,5639.04167 776.583333,5642 791.75,5642 Z M820,5561 L753.75,5561 C755.083333,5552.33333 758.75,5545.5 764.75,5540.5 C770.75,5535.5 778.166667,5533 787,5533 C795.666667,5533 803,5535.54167 809,5540.625 C815,5545.70833 818.666667,5552.5 820,5561 L820,5561 Z M928,5642 C941.166667,5642 952.541667,5640.20833 962.125,5636.625 C971.708333,5633.04167 979,5628 984,5621.5 C989,5615 991.5,5607.58333 991.5,5599.25 C991.5,5589.41667 988.916667,5581.75 983.75,5576.25 C978.583333,5570.75 972.5,5566.95833 965.5,5564.875 C958.5,5562.79167 949.5,5560.83333 938.5,5559 C928.666667,5557.5 921.5,5555.91667 917,5554.25 C912.5,5552.58333 910.25,5549.66667 910.25,5545.5 C910.25,5541.83333 912.333333,5538.83333 916.5,5536.5 C920.666667,5534.16667 926.916667,5533 935.25,5533 C949.25,5533 962.166667,5536.33333 974,5543 L974,5543 L987,5515.25 C980.833333,5511.58333 973.041667,5508.70833 963.625,5506.625 C954.208333,5504.54167 944.75,5503.5 935.25,5503.5 C922.416667,5503.5 911.291667,5505.33333 901.875,5509 C892.458333,5512.66667 885.291667,5517.79167 880.375,5524.375 C875.458333,5530.95833 873,5538.5 873,5547 C873,5557.16667 875.625,5565 880.875,5570.5 C886.125,5576 892.333333,5579.83333 899.5,5582 C906.666667,5584.16667 915.75,5586.08333 926.75,5587.75 C936.083333,5588.91667 943,5590.33333 947.5,5592 C952,5593.66667 954.25,5596.41667 954.25,5600.25 C954.25,5608.41667 946,5612.5 929.5,5612.5 C921.333333,5612.5 913,5611.29167 904.5,5608.875 C896,5606.45833 888.75,5603.33333 882.75,5599.5 L882.75,5599.5 L869.75,5627.5 C876.083333,5631.66667 884.583333,5635.125 895.25,5637.875 C905.916667,5640.625 916.833333,5642 928,5642 Z M1060.75,5642 C1073.91667,5642 1085.29167,5640.20833 1094.875,5636.625 C1104.45833,5633.04167 1111.75,5628 1116.75,5621.5 C1121.75,5615 1124.25,5607.58333 1124.25,5599.25 C1124.25,5589.41667 1121.66667,5581.75 1116.5,5576.25 C1111.33333,5570.75 1105.25,5566.95833 1098.25,5564.875 C1091.25,5562.79167 1082.25,5560.83333 1071.25,5559 C1061.41667,5557.5 1054.25,5555.91667 1049.75,5554.25 C1045.25,5552.58333 1043,5549.66667 1043,5545.5 C1043,5541.83333 1045.08333,5538.83333 1049.25,5536.5 C1053.41667,5534.16667 1059.66667,5533 1068,5533 C1082,5533 1094.91667,5536.33333 1106.75,5543 L1106.75,5543 L1119.75,5515.25 C1113.58333,5511.58333 1105.79167,5508.70833 1096.375,5506.625 C1086.95833,5504.54167 1077.5,5503.5 1068,5503.5 C1055.16667,5503.5 1044.04167,5505.33333 1034.625,5509 C1025.20833,5512.66667 1018.04167,5517.79167 1013.125,5524.375 C1008.20833,5530.95833 1005.75,5538.5 1005.75,5547 C1005.75,5557.16667 1008.375,5565 1013.625,5570.5 C1018.875,5576 1025.08333,5579.83333 1032.25,5582 C1039.41667,5584.16667 1048.5,5586.08333 1059.5,5587.75 C1068.83333,5588.91667 1075.75,5590.33333 1080.25,5592 C1084.75,5593.66667 1087,5596.41667 1087,5600.25 C1087,5608.41667 1078.75,5612.5 1062.25,5612.5 C1054.08333,5612.5 1045.75,5611.29167 1037.25,5608.875 C1028.75,5606.45833 1021.5,5603.33333 1015.5,5599.5 L1015.5,5599.5 L1002.5,5627.5 C1008.83333,5631.66667 1017.33333,5635.125 1028,5637.875 C1038.66667,5640.625 1049.58333,5642 1060.75,5642 Z" opacity=".25" transform="translate(-125 -5465)"/>
</svg>
