<?xml version="1.0" encoding="UTF-8"?>
<svg  viewBox="0 0 667 188" version="1.1" xmlns="http://www.w3.org/2000/svg" xmlns:xlink="http://www.w3.org/1999/xlink">
    <defs>
        <linearGradient x1="91.1254132%" y1="50%" x2="7.88328523%" y2="48.9761953%" id="linearGradient-1">
            <stop stop-color="#EEEEEE" stop-opacity="0" offset="0%"></stop>
            <stop stop-color="#D8D8D8" offset="100%"></stop>
        </linearGradient>
        <path d="M163,983.75 L194,883.25 L234.75,883.25 L265.5,983.75 L300.25,883.25 L342.5,883.25 L281.5,1058 L252.5,1058 L214.25,936.5 L176.25,1058 L147.25,1058 L86.25,883.25 L128.5,883.25 L163,983.75 Z M389.5,990.75 C389.5,1001.75005 392.624969,1010.7083 398.875,1017.625 C405.125031,1024.5417 413.124951,1028 422.875,1028 C432.625049,1028 440.624969,1024.5417 446.875,1017.625 C453.125031,1010.7083 456.25,1001.75005 456.25,990.75 C456.25,979.749945 453.125031,970.750035 446.875,963.75 C440.624969,956.749965 432.625049,953.25 422.875,953.25 C413.124951,953.25 405.125031,956.749965 398.875,963.75 C392.624969,970.750035 389.5,979.749945 389.5,990.75 Z M494,990.75 C494,1010.2501 487.250068,1026.6666 473.75,1040 C460.249932,1053.3334 443.291769,1060 422.875,1060 C402.458231,1060 385.500068,1053.3334 372,1040 C358.499932,1026.6666 351.75,1010.2501 351.75,990.75 C351.75,971.249902 358.499932,954.791734 372,941.375 C385.500068,927.958266 402.458231,921.25 422.875,921.25 C443.291769,921.25 460.249932,927.958266 473.75,941.375 C487.250068,954.791734 494,971.249902 494,990.75 Z M592.5,956.5 C581.333278,956.5 573.000027,960.458294 567.5,968.375 C561.999973,976.291706 559.25,986.749935 559.25,999.75 L559.25,1058 L521.75,1058 L521.75,923.5 L559.25,923.5 L559.25,941.25 C564.083358,935.749973 570.124964,931.083353 577.375,927.25 C584.625036,923.416647 591.999963,921.416668 599.5,921.25 L599.75,956.5 L592.5,956.5 Z M662,1058 L624.5,1058 L624.5,872.5 L662,872.5 L662,967.75 L703.75,923.25 L751,923.25 L699.75,977.75 L753,1058 L708.5,1058 L674.25,1006.5 L662,1019.25 L662,1058 Z" id="path-2"></path>
    </defs>
    <g id="Page-1" stroke="none" stroke-width="1" fill="none" fill-rule="evenodd" opacity="0.101771763">
        <g id="home-copy-5" transform="translate(-86.000000, -872.000000)" fill-rule="nonzero">
            <g id="Work">
                <use fill="#0D0D19" xlink:href="#path-2"></use>
                <use fill="url(#linearGradient-1)" xlink:href="#path-2"></use>
            </g>
        </g>
    </g>
</svg>