<svg xmlns="http://www.w3.org/2000/svg" xmlns:xlink="http://www.w3.org/1999/xlink" width="808" height="188" viewBox="0 0 808 188">
  <defs>
    <linearGradient id="title_about-b" x1="91.125%" x2="7.883%" y1="50%" y2="49.3%">
      <stop offset="0%" stop-color="#EEE" stop-opacity="0"/>
      <stop offset="100%" stop-color="#D8D8D8"/>
    </linearGradient>
    <path id="title_about-a" d="M155.25,4521 L170.75,4483.5 L252,4483.5 L267.5,4521 L310,4521 L231.75,4346 L191.75,4346 L113.75,4521 L155.25,4521 Z M239.25,4452.75 L183.75,4452.75 L211.5,4385.75 L239.25,4452.75 Z M405,4523 C417.5,4523 428.875,4520.125 439.125,4514.375 C449.375,4508.625 457.416667,4500.54167 463.25,4490.125 C469.083333,4479.70833 472,4467.58333 472,4453.75 C472,4439.91667 469.083333,4427.79167 463.25,4417.375 C457.416667,4406.95833 449.375,4398.875 439.125,4393.125 C428.875,4387.375 417.5,4384.5 405,4384.5 C387.833333,4384.5 374.333333,4389.91667 364.5,4400.75 L364.5,4400.75 L364.5,4335.5 L325.5,4335.5 L325.5,4521 L362.75,4521 L362.75,4505.5 C372.416667,4517.16667 386.5,4523 405,4523 Z M398.25,4491 C388.25,4491 380.041667,4487.625 373.625,4480.875 C367.208333,4474.125 364,4465.08333 364,4453.75 C364,4442.41667 367.208333,4433.375 373.625,4426.625 C380.041667,4419.875 388.25,4416.5 398.25,4416.5 C408.25,4416.5 416.458333,4419.875 422.875,4426.625 C429.291667,4433.375 432.5,4442.41667 432.5,4453.75 C432.5,4465.08333 429.291667,4474.125 422.875,4480.875 C416.458333,4487.625 408.25,4491 398.25,4491 Z M562,4523 C576.166667,4523 588.833333,4520.04167 600,4514.125 C611.166667,4508.20833 619.916667,4500 626.25,4489.5 C632.583333,4479 635.75,4467.08333 635.75,4453.75 C635.75,4440.41667 632.583333,4428.5 626.25,4418 C619.916667,4407.5 611.166667,4399.29167 600,4393.375 C588.833333,4387.45833 576.166667,4384.5 562,4384.5 C547.833333,4384.5 535.125,4387.45833 523.875,4393.375 C512.625,4399.29167 503.833333,4407.5 497.5,4418 C491.166667,4428.5 488,4440.41667 488,4453.75 C488,4467.08333 491.166667,4479 497.5,4489.5 C503.833333,4500 512.625,4508.20833 523.875,4514.125 C535.125,4520.04167 547.833333,4523 562,4523 Z M562,4491 C552,4491 543.75,4487.625 537.25,4480.875 C530.75,4474.125 527.5,4465.08333 527.5,4453.75 C527.5,4442.41667 530.75,4433.375 537.25,4426.625 C543.75,4419.875 552,4416.5 562,4416.5 C572,4416.5 580.208333,4419.875 586.625,4426.625 C593.041667,4433.375 596.25,4442.41667 596.25,4453.75 C596.25,4465.08333 593.041667,4474.125 586.625,4480.875 C580.208333,4487.625 572,4491 562,4491 Z M718.5,4523 C726.833333,4523 734.583333,4521.45833 741.75,4518.375 C748.916667,4515.29167 755.083333,4510.83333 760.25,4505 L760.25,4505 L760.25,4521 L797.25,4521 L797.25,4386.5 L758.25,4386.5 L758.25,4453 C758.25,4465 755.416667,4474.04167 749.75,4480.125 C744.083333,4486.20833 736.583333,4489.25 727.25,4489.25 C709.083333,4489.25 700,4478.41667 700,4456.75 L700,4456.75 L700,4386.5 L661,4386.5 L661,4462.5 C661,4482.5 666.166667,4497.58333 676.5,4507.75 C686.833333,4517.91667 700.833333,4523 718.5,4523 Z M888.5,4523 C894.666667,4523 900.541667,4522.29167 906.125,4520.875 C911.708333,4519.45833 916.416667,4517.33333 920.25,4514.5 L920.25,4514.5 L909.75,4487 C905.416667,4490.33333 900.166667,4492 894,4492 C888.666667,4492 884.541667,4490.45833 881.625,4487.375 C878.708333,4484.29167 877.25,4479.91667 877.25,4474.25 L877.25,4474.25 L877.25,4419.5 L910.75,4419.5 L910.75,4389.5 L877.25,4389.5 L877.25,4356.75 L838.25,4356.75 L838.25,4389.5 L817.5,4389.5 L817.5,4419.5 L838.25,4419.5 L838.25,4474.75 C838.25,4490.58333 842.625,4502.58333 851.375,4510.75 C860.125,4518.91667 872.5,4523 888.5,4523 Z"/>
  </defs>
  <g fill="none" opacity=".102" transform="translate(-113 -4335)">
    <use fill="#0D0D19" xlink:href="#title_about-a"/>
    <use fill="url(#title_about-b)" xlink:href="#title_about-a"/>
  </g>
</svg>
