<svg width="54" height="49" viewBox="0 0 54 49" fill="none" xmlns="http://www.w3.org/2000/svg">
<path fill-rule="evenodd" clip-rule="evenodd" d="M36.3929 13.7645C36.3929 19.198 31.9893 23.6017 26.5557 23.6017C21.1222 23.6017 16.7185 19.198 16.7185 13.7645C16.7185 8.33092 21.1222 3.92725 26.5557 3.92725C31.9893 3.92725 36.3929 8.33092 36.3929 13.7645ZM43.7707 39.5872C43.7707 41.6238 42.1183 43.2761 40.0817 43.2761H15.6333L14.9492 41.8885C17.2326 39.9956 18.6908 37.1353 18.6908 33.9327C18.6908 31.1656 17.6027 28.6527 15.8311 26.7984C17.0179 26.3227 18.3133 26.061 19.6695 26.061H20.9529C22.6668 26.8449 24.5574 27.2907 26.5556 27.2907C28.5537 27.2907 30.452 26.8449 32.1582 26.061H33.4416C39.1441 26.061 43.7707 30.6876 43.7707 36.3901V39.5872Z" fill="url(#paint0_linear)"/>
<path fill-rule="evenodd" clip-rule="evenodd" d="M53.9997 0H38.1074V11.257V16.5544C38.1074 17.8788 41.1636 14.5679 41.1636 14.5679H53.9997V0ZM41.1078 3.93471C40.9145 3.93471 40.7578 4.09141 40.7578 4.28471C40.7578 4.47801 40.9145 4.63471 41.1078 4.63471H51.0026C51.1959 4.63471 51.3526 4.47801 51.3526 4.28471C51.3526 4.09141 51.1959 3.93471 51.0026 3.93471H41.1078ZM41.1078 7.2461C40.9145 7.2461 40.7578 7.4028 40.7578 7.5961C40.7578 7.7894 40.9145 7.9461 41.1078 7.9461H51.0026C51.1959 7.9461 51.3526 7.7894 51.3526 7.5961C51.3526 7.4028 51.1959 7.2461 51.0026 7.2461H41.1078ZM40.7578 10.9071C40.7578 10.7138 40.9145 10.5571 41.1078 10.5571H45.7052C45.8985 10.5571 46.0552 10.7138 46.0552 10.9071C46.0552 11.1004 45.8985 11.2571 45.7052 11.2571H41.1078C40.9145 11.2571 40.7578 11.1004 40.7578 10.9071Z" fill="url(#paint1_linear)"/>
<path fill-rule="evenodd" clip-rule="evenodd" d="M11.0867 41.808C10.2325 42.1023 9.31574 42.2621 8.36163 42.2621C3.74363 42.2621 0 38.5185 0 33.9005C0 29.2824 3.74363 25.5388 8.36163 25.5388C12.9796 25.5388 16.7233 29.2824 16.7233 33.9005C16.7233 37.0398 14.9932 39.7751 12.4345 41.2048L15.6404 47.7081C15.8206 48.0736 15.6704 48.5159 15.3049 48.6961C14.9394 48.8763 14.4971 48.726 14.3169 48.3606L11.0867 41.808ZM15.33 33.9005C15.33 37.7488 12.2103 40.8685 8.36195 40.8685C4.51362 40.8685 1.39393 37.7488 1.39393 33.9005C1.39393 30.0522 4.51362 26.9325 8.36195 26.9325C12.2103 26.9325 15.33 30.0522 15.33 33.9005Z" fill="#4AD3F4"/>
<defs>
<linearGradient id="paint0_linear" x1="8.4012" y1="39.3415" x2="35.856" y2="9.49593" gradientUnits="userSpaceOnUse">
<stop stop-color="#717186" stop-opacity="0.19"/>
<stop offset="1" stop-color="#101017"/>
</linearGradient>
<linearGradient id="paint1_linear" x1="37.5915" y1="15.1805" x2="49.2469" y2="1.46808" gradientUnits="userSpaceOnUse">
<stop stop-color="#717186" stop-opacity="0.19"/>
<stop offset="1" stop-color="#101017"/>
</linearGradient>
</defs>
</svg>
