<svg xmlns="http://www.w3.org/2000/svg" width="34" height="32" viewBox="0 0 34 32">
  <defs>
    <linearGradient id="user_sessions-a" x1="79.317%" x2="26.962%" y1="16.034%" y2="86.242%">
      <stop offset="0%" stop-color="#717186" stop-opacity=".943"/>
      <stop offset="100%" stop-color="#101017"/>
    </linearGradient>
  </defs>
  <g fill="none" fill-rule="evenodd">
    <path fill="url(#user_sessions-a)" d="M20.1249687,15.7500268 C24.2675484,15.7500268 27.6249508,12.3926244 27.6249508,8.2500447 C27.6249508,4.10746501 24.2675484,0.750062585 20.1249687,0.750062585 C15.982389,0.750062585 12.6249866,4.10746501 12.6249866,8.2500447 C12.6249866,12.3926244 15.982389,15.7500268 20.1249687,15.7500268 Z M30.4374441,30.7499911 C31.9901748,30.7499911 33.2499374,29.4902284 33.2499374,27.9374978 L33.2499374,25.5000265 C33.2499374,21.1523691 29.7225906,17.6250224 25.3749333,17.6250224 L24.3964658,17.6250224 C23.0956762,18.2226886 21.6484026,18.5625201 20.1249687,18.5625201 C18.6015348,18.5625201 17.1601549,18.2226886 15.8534716,17.6250224 L14.8750041,17.6250224 C10.5273468,17.6250224 7,21.1523691 7,25.5000265 L7,27.9374978 C7,29.4902284 8.25976262,30.7499911 9.81249329,30.7499911 L30.4374441,30.7499911 Z"/>
    <path fill="#FFF" fill-rule="nonzero" d="M6.18748525,25.625008 C8.0514487,25.625008 9.5624772,24.1139795 9.5624772,22.2500161 L9.5624772,16.6250295 C9.5624772,14.7610661 8.0514487,13.2500376 6.18748525,13.2500376 C4.3235218,13.2500376 2.81249329,14.7610661 2.81249329,16.6250295 L2.81249329,22.2500161 C2.81249329,24.1139795 4.3235218,25.625008 6.18748525,25.625008 Z M8.99997854,31.2499946 C9.31075356,31.2499946 9.5624772,30.998271 9.5624772,30.687496 L9.5624772,30.1249973 C9.5624772,29.8142223 9.31075356,29.5624987 8.99997854,29.5624987 L7.03123324,29.5624987 L7.03123324,28.3752914 C10.0444669,27.9618288 12.3749705,25.375413 12.3749705,22.2500161 L12.3749705,20.5625201 C12.3749705,20.2517451 12.1232469,20.0000215 11.8124718,20.0000215 L11.2499732,20.0000215 C10.9391982,20.0000215 10.6874745,20.2517451 10.6874745,20.5625201 L10.6874745,22.2500161 C10.6874745,24.8796905 8.42024512,26.9897814 5.73783651,26.7282044 C3.39995146,26.5000327 1.68749598,24.3984218 1.68749598,22.0496191 L1.68749598,20.5625201 C1.68749598,20.2517451 1.43577233,20.0000215 1.12499732,20.0000215 L0.562498659,20.0000215 C0.251723643,20.0000215 0,20.2517451 0,20.5625201 L0,21.9743972 C0,25.1257836 2.24893034,27.9351184 5.34373726,28.3619019 L5.34373726,29.5624987 L3.37499195,29.5624987 C3.06421694,29.5624987 2.81249329,29.8142223 2.81249329,30.1249973 L2.81249329,30.687496 C2.81249329,30.998271 3.06421694,31.2499946 3.37499195,31.2499946 L8.99997854,31.2499946 Z"/>
  </g>
</svg>
